<?xml version="1.0" standalone="no"?>
<!DOCTYPE svg PUBLIC "-//W3C//DTD SVG 1.1//EN" "http://www.w3.org/Graphics/SVG/1.1/DTD/svg11.dtd" >
<svg>
<metadata>
Created by FontForge 20120731 at Wed Nov 11 10:48:37 2020
 By ffonts
Copyright (c) 2020 by Yves Michel. All rights reserved.
</metadata>
<defs>
<font id="Abecedary-Regular" horiz-adv-x="1044" >
  <font-face 
    font-family="Abecedary"
    font-weight="400"
    font-stretch="normal"
    units-per-em="2048"
    panose-1="0 0 0 0 0 0 0 0 0 0"
    ascent="1638"
    descent="-410"
    x-height="960"
    cap-height="1577"
    bbox="-195 -694 2335.56 2420"
    underline-thickness="21"
    underline-position="-120"
    unicode-range="U+000D-2265"
  />
<missing-glyph horiz-adv-x="1024" 
 />
    <glyph glyph-name=".notdef" horiz-adv-x="1024" 
 />
    <glyph glyph-name=".null" horiz-adv-x="0" 
 />
    <glyph glyph-name=".null" horiz-adv-x="0" 
 />
    <glyph glyph-name="uni000D" unicode="&#xd;" horiz-adv-x="512" 
 />
    <glyph glyph-name="space" unicode=" " horiz-adv-x="442" 
 />
    <glyph glyph-name="exclam" unicode="!" horiz-adv-x="504" 
d="M331 298q0 -27 -16.5 -43.5t-43.5 -16.5h-45q-27 0 -43.5 16.5t-16.5 43.5v1218q0 27 16.5 43.5t43.5 16.5h45q27 0 43.5 -16.5t16.5 -43.5v-1218zM166 83q0 34 24 58.5t58 24.5q35 0 59 -24t24 -59t-24 -59t-59 -24t-58.5 24t-23.5 59z" />
    <glyph glyph-name="dollar" unicode="$" horiz-adv-x="1037" 
d="M90 1219q0 68 24.5 126.5t66 104t97 76t118.5 42.5v163q0 24 4.5 39t14 23t25.5 10.5t40 2.5q22 0 37.5 -2.5t25 -10.5t14 -22.5t4.5 -39.5v-161q52 -6 94 -19t71 -27q12 -6 17 -15t5 -20q0 -21 -15.5 -35t-35.5 -8q-82 25 -136 32v-537q82 -23 152.5 -62t122.5 -95.5
t81.5 -130.5t29.5 -166q0 -79 -19 -152.5t-60 -135.5q-48 -73 -123.5 -123.5t-183.5 -67.5v-164q0 -24 -4.5 -39t-14 -22.5t-25 -10t-37.5 -2.5q-24 0 -40 2.5t-26 11t-14 23.5t-4 39v156q-48 4 -85 14t-64.5 23t-48 27t-37.5 26q-21 15 -21 35q0 8 5.5 17.5t14.5 16t20 8.5
t23 -6q37 -23 66 -37.5t52 -22t41 -10t34 -2.5v789q-58 15 -113 46t-98 75t-69 99.5t-26 118.5zM561 117q59 23 101 61t68.5 86t39 102t12.5 109q0 60 -14 116t-42 104t-69.5 85.5t-95.5 59.5v-723zM396 1463q-32 -16 -58 -41.5t-44 -57.5t-28 -69t-10 -76
q0 -78 37.5 -139.5t102.5 -94.5v478z" />
    <glyph glyph-name="percent" unicode="%" horiz-adv-x="1356" 
d="M136 1274q0 44 12 96t37 97.5t63.5 76t91.5 30.5t91 -30.5t63.5 -76t37.5 -97.5t12 -96q0 -29 -5.5 -62.5t-16 -67t-27.5 -64.5t-39.5 -55t-51.5 -38t-64 -14q-53 0 -91.5 30.5t-63.5 76t-37 98t-12 96.5zM287 1273q0 -9 0.5 -29t2.5 -45.5t5.5 -53t9 -50t14 -37
t19.5 -14.5q12 0 20.5 14.5t14.5 37t10 50t6.5 53t3.5 46t1 29.5t-1 29.5t-3.5 46t-6.5 53t-10.5 50t-15 37t-19.5 14.5t-19 -14.5t-13.5 -37t-9.5 -50t-6 -53t-2.5 -46.5t-0.5 -30zM811 301q0 44 12 96t37 97.5t63.5 76t91.5 30.5t91.5 -30.5t63.5 -75.5t37 -97.5t12 -96.5
t-12 -96.5t-36.5 -98t-63 -76t-92.5 -30.5q-53 0 -91.5 30.5t-63.5 76t-37 98t-12 96.5zM962 301q0 -9 0.5 -29.5t2.5 -46t5.5 -53t9.5 -50t14.5 -37t20.5 -14.5q11 0 19.5 14.5t14.5 37t10 50t6 53t3 45.5t1 29t-1 29.5t-3.5 46t-6.5 53t-10 50t-14.5 37t-20.5 14.5
q-11 0 -19.5 -14.5t-14 -37t-9 -49.5t-5.5 -52.5t-2.5 -46t-0.5 -29.5zM525 -30q-8 -26 -28 -37t-46 -3l-45 12q-26 8 -37 28t-3 46l475 1633q8 26 28 37t46 3l45 -12q26 -8 37 -28t3 -46z" />
    <glyph glyph-name="ampersand" unicode="&#x26;" horiz-adv-x="1200" 
d="M1039 22q13 -23 6 -45t-31 -35l-39 -21q-24 -13 -46 -6t-35 30l-51 94q-65 -20 -139.5 -29t-137.5 -9q-101 0 -185 25.5t-147 76t-104 125.5t-56 173q-2 17 -3.5 33t-1.5 33q0 73 25.5 138.5t69 121t100.5 100.5t119 77q-34 64 -68.5 126.5t-66.5 126.5q-36 71 -36 149
q0 65 24 114.5t64.5 83t94 50.5t113.5 17q74 0 139 -28t114 -75t77 -108t28 -128q0 -61 -24 -115.5t-63.5 -100t-90.5 -80.5t-106 -57l374 -700q17 11 34.5 28.5t35 34.5t35.5 29.5t36 12.5t25 -11.5t7 -26.5q0 -24 -14.5 -44.5t-35.5 -38t-44 -32.5t-40 -28zM806 112
l-376 703q-41 -28 -76.5 -65t-62 -80t-41.5 -91t-15 -98q0 -53 16 -102.5t44.5 -93t67.5 -79t84.5 -61.5t95.5 -40t101 -14q44 0 83 3.5t79 17.5zM538 964q30 12 60 36t54 58t39 78t15 96q0 45 -12 89.5t-36 80t-61.5 57.5t-88.5 22q-30 0 -55 -12t-43 -31.5t-27.5 -43
t-9.5 -46.5q0 -29 5.5 -60t19.5 -59z" />
    <glyph glyph-name="quotesingle" unicode="'" horiz-adv-x="432" 
d="M175.682 1357.21q0 26.6025 -7.86816 40.5088t-18.1572 24.7891q-10.29 10.8828 -18.1582 22.9756q-7.86816 12.0918 -7.86816 37.4863q0 42.3223 23.6055 67.1113q23.6045 24.7891 62.3408 24.7891q27.8418 0 47.21 -12.6963q19.3682 -12.6973 32.0781 -32.6494
q12.7109 -19.9521 18.1582 -45.9502q5.44727 -25.999 5.44727 -51.3926q0 -61.6709 -28.4473 -123.341q-28.4473 -61.6709 -76.8672 -116.086q-9.68457 -10.8838 -29.0527 -21.7666t-33.8936 -10.8828q-6.05273 0 -15.1318 3.02246q-9.0791 3.02344 -9.0791 11.4883
q0 24.1846 8.47363 45.3457q8.47363 21.1621 19.3682 42.3232t19.3682 44.1367t8.47363 50.7881z" />
    <glyph glyph-name="parenleft" unicode="(" horiz-adv-x="522" 
d="M461 -328q4 -8 4 -18q0 -25 -24 -35l-48 -22q-9 -4 -19 -4q-23 0 -34 23l-14 29q-49 103 -98 219t-87 237.5t-62 244.5t-24 238t25 237.5t64.5 244.5t87.5 238.5t94 219.5l13 29q11 23 34 23q10 0 19 -4l50 -22q23 -11 23 -34q0 -10 -4 -19l-10 -22
q-48 -105 -89.5 -213.5t-72.5 -220t-49 -225.5t-18 -231t18 -231.5t48.5 -226t72.5 -220t90 -213.5z" />
    <glyph glyph-name="asterisk" unicode="*" horiz-adv-x="625" 
d="M574 1200q26 -15 11 -41l-19 -33q-15 -26 -41 -11l-30 17q-16 9 -34.5 19.5t-35 20.5t-29.5 18t-19 11v-175q0 -14 -8 -22t-22 -8h-36q-14 0 -22 8t-8 22v181l-158 -91q-26 -15 -41 11l-18 32q-7 12 -3.5 23t14.5 18l151 88l-151 87q-11 7 -14.5 18t3.5 23l19 33
q7 12 18.5 15t22.5 -4l157 -92v178q0 14 8 22t22 8h36q14 0 22 -8t8 -22v-172l149 87q26 15 41 -11l18 -32q7 -12 3.5 -23t-14.5 -18l-153 -89z" />
    <glyph glyph-name="zero" unicode="0" 
d="M77 782q0 64 10 147.5t31.5 171.5t56.5 173.5t84.5 152.5t114.5 108t148 41q82 0 147 -40t114.5 -105.5t84 -149.5t57 -171.5t32.5 -171.5t10 -150q0 -63 -9.5 -146t-31 -170.5t-55.5 -172t-83.5 -151t-115 -107.5t-148.5 -41t-148 40t-115 105.5t-85 149t-57 170
t-32 170t-10 147.5zM242 788q0 -29 2.5 -74t8.5 -99t16.5 -113.5t25.5 -117t36 -110t49 -92t62.5 -63t77.5 -23.5q42 0 76.5 23t62.5 61.5t49 89.5t37 108t27 116.5t17.5 114t9.5 101t3 78.5q0 41 -5 108.5t-17 144.5t-33 155t-52 141.5t-74 103.5t-100 40q-42 0 -76 -22
t-61.5 -60t-48.5 -88t-37 -106.5t-26.5 -115.5t-17 -114.5t-9.5 -103.5t-3 -83z" />
    <glyph glyph-name="one" unicode="1" 
d="M662 60q0 -27 -16.5 -43.5t-43.5 -16.5h-45q-27 0 -43.5 16.5t-16.5 43.5v1194q-14 -11 -47.5 -27.5t-71 -32t-72 -28.5t-52.5 -16q-14 -2 -23.5 1.5t-14.5 15.5l-11 30q-5 12 0 22.5t18 15.5q11 5 22.5 9t18.5 6q60 21 97.5 39.5t61 45t37.5 65.5t27 101q5 26 12 41
t18.5 22.5t28.5 9.5t42 2q74 0 74 -75v-1441z" />
    <glyph glyph-name="two" unicode="2" 
d="M82 118q44 69 105 159t127.5 191t131.5 207.5t117 207t84 190t32 157.5q0 58 -12 104t-38 78t-68.5 49t-104.5 17q-34 0 -63 -2.5t-56 -7.5t-53 -14t-53 -22q-15 -7 -25.5 -10.5t-18.5 -3.5q-11 0 -18.5 7.5t-7.5 22.5q0 22 16.5 39.5t42.5 31.5t58.5 24.5t65 17t61 10
t47.5 3.5q76 0 147 -21.5t125.5 -63.5t87.5 -104.5t33 -143.5q0 -62 -14.5 -125t-36.5 -122t-48.5 -111t-50.5 -91l-409 -654q-12 -19 -6 -30.5t29 -11.5h628q14 0 22 -8t8 -22v-36q0 -14 -8 -22t-22 -8h-783q-14 0 -26 7.5t-20 18.5l-26 40q-8 11 -8 26t8 26z" />
    <glyph glyph-name="three" unicode="3" 
d="M381 960q51 0 95.5 22t77.5 58.5t52 83.5t19 96q0 46 -12.5 92.5t-38 83.5t-64 60.5t-91.5 23.5q-57 0 -101.5 -14t-95.5 -37q-9 -4 -18 -7.5t-18 -3.5q-11 0 -18.5 6.5t-7.5 16.5q0 39 29 65t71 41.5t87.5 22t78.5 6.5q73 0 139 -26t116.5 -72.5t80 -110t29.5 -138.5
q0 -56 -16.5 -104t-46 -88t-69 -71.5t-84.5 -53.5q85 -12 152 -49.5t113.5 -94.5t71 -130.5t24.5 -157.5q0 -126 -39 -216.5t-109.5 -149t-168.5 -86.5t-216 -28q-31 0 -70.5 4.5t-78.5 16t-74 30t-57 45.5q-4 5 -9.5 14.5t-5.5 19.5q0 11 8 18.5t19 7.5q8 0 17.5 -4
t21.5 -9q30 -13 56.5 -22.5t53.5 -14.5t56 -7.5t63 -2.5q92 0 161 26.5t115 76t69 120.5t23 161q0 74 -33.5 143t-88.5 122.5t-125.5 86t-144.5 32.5h-39q-14 0 -22 7.5t-8 21.5v36q0 14 8 22.5t22 8.5h41z" />
    <glyph glyph-name="four" unicode="4" 
d="M329 1516q0 -147 -13.5 -298t-45.5 -289q-2 -8 -2.5 -12t-0.5 -8q0 -15 7.5 -19t21.5 -4h492v630q0 27 16.5 43.5t43.5 16.5h46q27 0 43.5 -16.5t16.5 -43.5v-1456q0 -27 -16.5 -43.5t-43.5 -16.5h-46q-27 0 -43.5 16.5t-16.5 43.5v730h-603q-16 0 -33 8.5t-30.5 22.5
t-22 31t-8.5 33q0 11 3 29.5t7.5 40t9 42t7.5 33.5q23 117 34 242t11 244q0 27 16.5 43.5t43.5 16.5h46q27 0 43.5 -16.5t16.5 -43.5z" />
    <glyph glyph-name="five" unicode="5" 
d="M244 468q0 -61 16 -126.5t50 -120t87 -90t126 -35.5t125.5 35.5t86.5 90.5t50.5 120.5t16.5 126.5t-16.5 130t-50.5 128t-86.5 98t-125.5 39h-353q-17 0 -34 8.5t-30 21.5t-21 28.5t-8 30.5q0 11 4.5 35t10.5 51t11.5 52.5t8.5 38.5q37 181 37 371q0 75 74 75h534
q14 0 22 -8t8 -22v-36q0 -14 -8 -22t-22 -8h-403q-17 0 -28.5 -6.5t-11.5 -25.5q0 -43 -1 -82t-4.5 -77.5t-9 -77.5t-14.5 -81q-3 -13 -8 -33.5t-10.5 -43t-9.5 -42.5t-4 -32q0 -14 7.5 -17t21.5 -3q60 0 120 0.5t120 0.5q98 0 179.5 -40t140.5 -106.5t92 -153.5t33 -180
t-33 -180t-92 -153.5t-141 -106.5t-181 -40q-96 0 -176.5 38t-139.5 102.5t-92 149.5t-33 179q0 27 16.5 43.5t43.5 16.5h45q27 0 43.5 -16.5t16.5 -43.5v-1z" />
    <glyph glyph-name="six" unicode="6" 
d="M242 480q0 -62 16.5 -129.5t51 -124t87.5 -93.5t126 -37q49 0 88.5 17t71 46t54.5 67.5t37.5 81t22 87t7.5 85.5q0 62 -16.5 129.5t-51 124t-87.5 93.5t-126 37t-126 -37t-87.5 -93.5t-51 -124t-16.5 -129.5zM764 1378q-102 102 -241 102q-73 0 -126 -37t-87.5 -93.5
t-51 -124t-16.5 -129.5v-240q122 104 278 104q98 0 180 -40t141.5 -107t92.5 -154t33 -180t-33 -179.5t-92 -153t-140.5 -106.5t-179.5 -40t-179.5 40t-140.5 106.5t-92 153t-33 180.5v614q0 93 33 180t91.5 154t140 107.5t177.5 40.5q42 0 83.5 -10t80.5 -27.5t75 -41.5
t67 -51q11 -9 11.5 -20.5t-8.5 -21.5l-22 -24q-9 -11 -20 -11t-22 9z" />
    <glyph glyph-name="seven" unicode="7" 
d="M474 60q0 -27 -16.5 -43.5t-43.5 -16.5h-46q-27 0 -43.5 16.5t-16.5 43.5v109q0 125 19.5 258t56 264t90 255t122.5 231q5 8 19.5 30.5t33 52t39.5 63t38 63t28.5 51t11.5 27.5t-9.5 11t-20.5 5h-588q-16 0 -29 0.5t-22.5 5t-14.5 14.5t-5 28q0 17 4.5 27t12.5 14.5
t19.5 5.5t25.5 1h735q17 0 33 -8.5t29.5 -22t21.5 -30t8 -31.5q0 -10 -3.5 -19.5t-8.5 -18.5t-10.5 -18t-11.5 -18q-51 -78 -101 -155.5t-100 -155.5q-134 -214 -195.5 -446.5t-61.5 -483.5v-109z" />
    <glyph glyph-name="eight" unicode="8" 
d="M149 1219q0 77 30 142t81 113t118 75t142 27t142.5 -27t119.5 -75t82.5 -113.5t30.5 -141.5q0 -98 -50 -177.5t-133 -128.5q60 -30 107.5 -76.5t80 -103.5t50 -122t17.5 -131q0 -93 -33 -180t-92 -153.5t-140.5 -106.5t-179.5 -40t-179.5 40t-140.5 106.5t-92 153
t-33 180.5q0 66 17 130.5t49.5 121.5t79.5 103.5t107 77.5q-85 47 -133 128t-48 178zM242 480q0 -40 7.5 -84t23 -87t38.5 -81.5t54.5 -67.5t70.5 -46.5t86 -17.5q71 0 124 37.5t87.5 94t51.5 124t17 127.5t-17.5 128t-52 125t-87 94.5t-123.5 37.5q-47 0 -86 -17.5
t-70.5 -46.5t-54.5 -67.5t-38.5 -81.5t-23 -87t-7.5 -84zM314 1219q0 -45 14 -91t40.5 -83.5t65 -61t88.5 -23.5t88.5 24t65 61.5t40.5 83.5t14 90t-14 90t-41 84t-66 62.5t-89 24.5q-49 0 -87.5 -24t-65 -62t-40 -84t-13.5 -91z" />
    <glyph glyph-name="nine" unicode="9" 
d="M802 1096q0 62 -16.5 129.5t-51 124t-87.5 93.5t-126 37t-126 -37t-87.5 -93.5t-51 -124t-16.5 -129.5q0 -41 7.5 -85.5t22.5 -87t38 -81t54 -67.5t70.5 -46t88.5 -17q73 0 126 37t87.5 93.5t51 124t16.5 129.5zM280 198q102 -102 241 -102q73 0 126 37t87.5 93.5t51 124
t16.5 129.5v240q-60 -51 -130 -77.5t-148 -26.5q-98 0 -180 40t-141.5 107t-92.5 154t-33 180t33 179.5t92 153t141 106.5t179 40q98 0 179.5 -40t140.5 -106.5t92 -153t33 -180.5v-614q0 -93 -33 -180t-91.5 -154t-140 -107.5t-177.5 -40.5q-42 0 -83.5 10t-80.5 27.5
t-74.5 41.5t-67.5 51q-11 9 -11.5 20.5t8.5 21.5l22 24q9 11 20 11t22 -9z" />
    <glyph glyph-name="question" unicode="?" horiz-adv-x="731" 
d="M110 1199q-23 0 -39 2t-26 9.5t-14.5 22.5t-4.5 40q0 66 27 122t72.5 96t104.5 62.5t123 22.5t123 -22.5t104.5 -62.5t72.5 -95.5t27 -122.5q0 -47 -17 -109.5t-41 -129.5t-50 -131.5t-44 -115.5q-37 -102 -60.5 -212t-31.5 -225q-1 -26 -5 -40.5t-13 -22t-25.5 -9.5
t-43.5 -2q-18 0 -32 2t-24.5 8.5t-16 20t-5.5 36.5q0 83 17 172.5t43.5 179t58 176.5t60.5 165q10 27 21.5 56.5t21 60t16 61t6.5 60.5q0 35 -9.5 74.5t-29.5 73.5t-50.5 56.5t-72.5 22.5t-72.5 -22.5t-50 -56t-29 -73t-9.5 -73.5q0 -27 -5.5 -42.5t-16 -23t-25.5 -9.5
t-35 -2zM270 83q0 35 24 59t59 24q34 0 58.5 -24.5t24.5 -58.5q0 -35 -24 -59t-59 -24t-59 24t-24 59z" />
    <glyph glyph-name="at" unicode="@" horiz-adv-x="1890" 
d="M742 485q0 -25 3 -63.5t10.5 -82.5t20 -88t32 -79.5t46 -58t61.5 -22.5t61.5 22t46 56.5t32.5 77.5t21 86t11 81.5t3 62.5q0 25 -3.5 64t-11 82.5t-20.5 87t-32.5 79t-46 57.5t-61.5 22q-33 0 -59 -21t-45.5 -54.5t-32.5 -75.5t-21 -84.5t-11.5 -81.5t-3.5 -67zM930 -268
q-105 0 -201.5 27t-180.5 76t-152.5 118.5t-117.5 154.5t-75.5 183t-26.5 204q0 108 27 207t77 185.5t120 157.5t156 121.5t185 78t207 27.5q104 0 201.5 -28.5t183 -80.5t156 -124t121 -158.5t78.5 -184.5t28 -202q0 -97 -19.5 -186.5t-64.5 -157.5t-120 -109t-186 -41
q-29 0 -58 7.5t-54 22.5t-45 36.5t-31 49.5q-45 -51 -99 -83.5t-126 -32.5q-57 0 -104.5 22t-85 59t-65 86t-46 102.5t-27.5 108.5t-9 104t9 103t27 107.5t45.5 102t65 85t85 58.5t104.5 22q52 0 96.5 -18t81.5 -50q-1 24 4 37.5t15 20t24 8.5t30 2q24 0 41.5 -2.5t29 -10.5
t16.5 -22.5t5 -38.5v-614q0 -16 2 -46.5t9.5 -60.5t21.5 -52t38 -22q42 0 75.5 20.5t59.5 54.5t44.5 77t30 88.5t17 89t5.5 78.5q0 124 -45.5 239.5t-126 205t-191 143t-240.5 53.5q-95 0 -181 -29.5t-157 -82.5t-126 -126t-89 -160q-25 -64 -34.5 -133t-9.5 -130
q0 -87 16.5 -171t49.5 -158.5t81.5 -137t112 -108t142 -71t170.5 -25.5q35 0 70.5 4t69.5 13q13 3 28.5 11t31 16.5t29.5 14.5t23 6q11 0 18.5 -8t7.5 -23q0 -22 -16 -38t-41.5 -28t-57 -20t-62.5 -13t-58 -7t-44 -2z" />
    <glyph glyph-name="A" unicode="A" horiz-adv-x="1179" 
d="M648 1485q-85 0 -152 -33t-118.5 -88t-87.5 -126.5t-59.5 -149.5t-34 -155.5t-10.5 -145.5q0 -37 2.5 -86.5t9 -105.5t17.5 -115t28 -115t41.5 -106t57 -87t74.5 -59t95 -22q49 0 93 19t77.5 51.5t53 76t19.5 92.5v930q0 27 16.5 43.5t43.5 16.5h46q27 0 43.5 -16.5
t16.5 -43.5v-1058q0 -10 1.5 -28.5t8 -37t20 -32t36.5 -13.5q38 0 67 13t52 35t41 51t33 60q8 15 14.5 30.5t12.5 30.5q8 19 26 24t35 -1t27 -20.5t2 -34.5q-29 -59 -55.5 -108t-61.5 -86q-38 -41 -87 -63t-111 -22q-74 0 -116.5 30.5t-60.5 76.5q-24 -30 -59.5 -50t-76 -33
t-82.5 -18.5t-81 -5.5q-104 0 -180 35.5t-130 95.5t-88 139t-53.5 166.5t-26.5 178t-7 172.5q0 96 16 192t48.5 183.5t83 163t120 131.5t158.5 87.5t198 31.5q80 0 146 -16t106 -36q12 -6 17 -15t5 -20q0 -21 -15.5 -34.5t-35.5 -8.5q-72 23 -129 31t-90 8z" />
    <glyph glyph-name="B" unicode="B" horiz-adv-x="1084" 
d="M100 1489q0 11 5 20t17 15q40 20 106 36t146 16q56 0 115.5 -6.5t116 -22t107 -41t88.5 -63.5t60 -90t22 -121q0 -46 -10.5 -92.5t-31 -88.5t-50 -78t-68.5 -61q69 -29 126 -71t98.5 -97t64 -121.5t22.5 -144.5q0 -87 -25.5 -156.5t-70.5 -122.5t-107 -91t-135 -62
t-154.5 -35t-165.5 -11q-81 0 -146.5 16t-105.5 36q-12 6 -17 15t-5 20q0 9 4.5 18.5t11.5 16t16 9.5t19 -1q44 -15 80.5 -23t66.5 -12l-9 1165q0 27 16.5 43.5t43.5 16.5h46q27 0 43.5 -16.5t16.5 -43.5v-300q58 0 105.5 18.5t82 51.5t53.5 79.5t19 101.5q0 71 -31.5 122.5
t-82 85.5t-114 50t-128.5 16q-33 0 -85.5 -8t-124.5 -31q-20 -5 -35.5 8.5t-15.5 34.5zM457 91q44 0 91.5 13.5t93 38.5t86.5 59.5t72 77t49.5 91.5t18.5 102q0 84 -33 155.5t-89 124t-131 82t-158 29.5v-773z" />
    <glyph glyph-name="C" unicode="C" horiz-adv-x="843" 
d="M538 1576q80 0 146 -16t106 -36q12 -6 17 -15t5 -20q0 -21 -15.5 -34.5t-35.5 -8.5q-36 9 -63.5 16t-52.5 12.5t-50.5 8t-57.5 2.5q-82 0 -141.5 -36.5t-100.5 -95.5t-66.5 -133.5t-39.5 -151.5t-18.5 -149t-4.5 -126q0 -73 7 -153.5t24.5 -158.5t47 -148.5t75 -124.5
t109 -85.5t147.5 -31.5q42 0 81 7.5t72.5 26t62.5 49t51 76.5q8 15 14.5 30.5t12.5 30.5q8 19 26 24t35 -1t27 -20.5t2 -34.5q-29 -59 -55.5 -104.5t-61.5 -77.5q-20 -19 -46 -36.5t-59 -31t-74 -21.5t-92 -8q-114 0 -200.5 34.5t-150.5 94t-106 138t-68 166t-36.5 180
t-10.5 178.5q0 81 8.5 171t30.5 177t60 166.5t98 139.5t144 95.5t197 35.5z" />
    <glyph glyph-name="D" unicode="D" horiz-adv-x="1132" 
d="M100 1489q0 11 5 20t17 15q40 20 106 36t146 16q81 0 159.5 -16.5t152.5 -50.5q108 -50 183.5 -126.5t123 -171t68.5 -203t21 -223.5q0 -117 -22 -227.5t-71.5 -205.5t-129 -170.5t-193.5 -123.5q-69 -29 -143 -43.5t-149 -14.5q-81 0 -146.5 16t-105.5 36q-12 6 -17 15
t-5 20q0 9 4.5 18.5t11.5 16t16 9.5t19 -1q42 -14 76.5 -22t63.5 -12v1164q0 27 16.5 43.5t43.5 16.5h46q27 0 43.5 -16.5t16.5 -43.5v-1161q82 12 147.5 47t116.5 87.5t88 118t60.5 138.5t35 149.5t11.5 150.5q0 97 -15.5 192t-52.5 179.5t-98.5 153.5t-153.5 115
q-24 12 -52.5 22.5t-58.5 17.5t-59.5 11t-56.5 4q-33 0 -89.5 -7.5t-128.5 -31.5q-10 -4 -19 -1t-16 9.5t-11.5 16t-4.5 18.5z" />
    <glyph glyph-name="E" unicode="E" horiz-adv-x="819" 
d="M542 0q-95 0 -182 28t-154 86.5t-106.5 149.5t-39.5 216q0 73 22 140t62 124t96 100.5t124 68.5q-46 22 -85 53t-67.5 70.5t-45 87.5t-16.5 104q0 74 28 137.5t77 110.5t115.5 73.5t143.5 26.5q80 0 146 -16t106 -36q12 -6 17 -15t5 -20q0 -9 -4.5 -18.5t-11.5 -16
t-16 -9.5t-19 1q-72 24 -122 31.5t-83 7.5q-52 0 -92 -22.5t-67.5 -59t-42 -82.5t-14.5 -94q0 -46 14 -93.5t42 -86t68.5 -63t93.5 -24.5q38 0 54.5 -6.5t16.5 -38.5q0 -20 -5.5 -31t-15.5 -16t-22.5 -5.5t-27.5 -0.5q-71 0 -128 -37t-97 -94t-61.5 -125t-21.5 -129
q0 -87 19.5 -158t59.5 -122t101.5 -78.5t145.5 -27.5q42 0 81 7.5t72.5 26t62.5 49t51 76.5q8 15 14.5 30.5t12.5 30.5q8 19 26 24t35 -1t27 -20.5t2 -34.5q-29 -59 -55.5 -104.5t-61.5 -77.5q-20 -19 -47 -36.5t-61 -31t-76 -21.5t-93 -8z" />
    <glyph glyph-name="F" unicode="F" horiz-adv-x="803" 
d="M421 864v-804q0 -27 -16.5 -43.5t-43.5 -16.5h-46q-27 0 -43.5 16.5t-16.5 43.5v804h-52q-14 0 -22 8t-8 22v36q0 14 8 22t22 8h52v330q0 27 16.5 43.5t43.5 16.5h46q27 0 43.5 -16.5t16.5 -43.5v-330h244q14 0 22 -8t8 -22v-36q0 -14 -8 -22t-22 -8h-244zM321 1485
q43 0 88 -9.5t89.5 -21.5t86.5 -21.5t80 -9.5q32 0 67.5 3t70 12t64.5 25t52 42q9 11 16.5 24t7.5 25t-8.5 17t-20.5 5q-15 0 -35 -5.5t-37 -12.5q-37 -14 -70.5 -17t-71.5 -3q-45 0 -90.5 6t-91 13t-91.5 13t-93 6q-80 0 -146 -16t-106 -36q-12 -6 -17 -15t-5 -20
q0 -9 4.5 -18.5t11.5 -16t16 -9.5t19 1q72 24 124.5 31.5t85.5 7.5z" />
    <glyph glyph-name="G" unicode="G" horiz-adv-x="1092" 
d="M754 -109q-37 -29 -57.5 -61.5t-30 -68.5t-11 -75.5t-1.5 -80.5q0 -8 0.5 -26.5t2.5 -42t5.5 -48t10 -45t15 -33.5t21.5 -13q15 0 24 18.5t13.5 43t6 48.5t1.5 34v350zM920 69q61 35 101 78t71 103q8 15 14.5 30.5t12.5 30.5q8 19 26 24t35 -1t27 -20.5t2 -34.5
q-8 -19 -17.5 -36t-18.5 -34q-19 -35 -38.5 -65t-42.5 -55q-19 -20 -35 -35t-35 -28.5t-43 -28t-59 -33.5v-344q0 -51 -9 -106t-33 -101.5t-64.5 -76.5t-103.5 -30q-65 0 -106.5 32.5t-65 81.5t-32 107t-8.5 110q0 59 20.5 113t55.5 100t81.5 82.5t98.5 59.5l1 72
q-17 -13 -44 -24.5t-60 -20.5t-70 -14t-76 -5q-105 0 -182 35t-131 95t-87.5 139t-52.5 166.5t-25.5 178t-6.5 173.5q0 95 16.5 190t49.5 183t84 164t120.5 132t157.5 88t196 32q80 0 146 -16t106 -36q12 -6 17 -15t5 -20q0 -9 -4.5 -18.5t-11.5 -16t-16 -9.5t-19 1
q-72 24 -127 31.5t-88 7.5q-85 0 -152.5 -32.5t-119 -87t-88.5 -125.5t-60.5 -148.5t-34.5 -156.5t-11 -148q0 -48 4.5 -118t17.5 -147.5t36 -154.5t59.5 -138.5t88 -99.5t121.5 -38q47 0 90.5 19t77 51t53.5 75t20 91v933q0 27 16.5 43.5t43.5 16.5h46q27 0 43.5 -16.5
t16.5 -43.5v-1191z" />
    <glyph glyph-name="H" unicode="H" horiz-adv-x="1086" 
d="M360 640q-33 -29 -51 -66.5t-27 -79t-10.5 -84.5t-1.5 -84q0 -9 0.5 -30t2.5 -47t5.5 -54t9.5 -51t15 -38t22 -15t20 12t10.5 28.5t4 34t0.5 28.5v446zM780 1097q22 18 35 42.5t20 51.5t9 54.5t2 50.5v36q0 21 -1 47.5t-5 50t-11.5 39.5t-21.5 16q-10 0 -15.5 -8.5
t-8.5 -21.5t-3.5 -27.5t-0.5 -25.5v-13q0 -73 0.5 -144.5t0.5 -147.5zM888 0q-68 0 -119 21.5t-85.5 61.5t-52 96.5t-17.5 126.5v546l-88 -76v-380q0 -36 -1 -79.5t-6.5 -87.5t-17.5 -85.5t-34 -73t-57 -51t-85 -19.5q-59 0 -101 25.5t-68.5 67t-39 93t-12.5 102.5
q0 90 16 152t47.5 111.5t80 94t112.5 98.5v709q0 11 -6 17.5t-15.5 9.5t-20.5 4t-21 1q-16 0 -43.5 -1.5t-60.5 -6t-69.5 -12t-72.5 -19.5q-10 -4 -19 -1t-16 9.5t-11.5 16t-4.5 18.5q0 11 5 20t17 15q40 20 106 36t146 16h170q23 0 38.5 -2t25 -10t14 -22.5t4.5 -40.5v-618
l88 73v225q0 36 1 79.5t6 87.5t16.5 85t33.5 73t56 51t83 19q45 0 82 -16t64 -43.5t41.5 -65t14.5 -79.5q0 -73 -16.5 -125.5t-46.5 -94.5t-73 -79.5t-96 -82.5v-709q0 -34 4 -68t16 -61t34 -44t59 -17q38 0 67 13t52 35t41 51t33 60q8 15 14.5 30.5t12.5 30.5q8 19 26 24
t35 -1t27 -20.5t2 -34.5q-29 -59 -55.5 -108t-61.5 -86q-38 -41 -87 -63t-111 -22z" />
    <glyph glyph-name="J" unicode="J" horiz-adv-x="840" 
d="M420 91q53 0 82.5 17.5t44 48t17.5 71.5t3 88v1137q0 19 -11.5 25.5t-28.5 6.5q-33 0 -91 -7.5t-130 -31.5q-10 -4 -19 -1t-16 9.5t-11.5 16t-4.5 18.5q0 11 5 20t17 15q40 20 106 36t146 16h130q74 0 74 -75v-1140q0 -70 -12 -129q6 -2 11 -3t8 -2q5 -1 16 -1.5t25 3
t29.5 12t29.5 24.5q8 9 15 20.5t12 25.5q8 19 26 24t35 -1t27 -20.5t2 -34.5q-21 -50 -52 -73.5t-65 -31.5q-38 -9 -70.5 -4.5t-44.5 8.5q-4 2 -7.5 3t-8.5 3q-3 -11 -7 -21.5t-8 -19.5q-22 -49 -55.5 -77.5t-69.5 -43t-71 -18.5t-59 -4q-81 0 -134.5 21.5t-86 49
t-48.5 53.5t-22 36q-12 20 -6.5 35.5t18.5 24.5t27.5 9t20.5 -11q34 -60 86.5 -93.5t125.5 -33.5z" />
    <glyph glyph-name="K" unicode="K" horiz-adv-x="1049" 
d="M901 0q-35 0 -65 22.5t-55.5 58t-46 79t-36.5 85t-27 76t-17 52.5q-17 48 -34.5 95t-39.5 92q-13 27 -34.5 56.5t-49 55t-59 42t-64.5 16.5v-670q0 -27 -16.5 -43.5t-43.5 -16.5h-46q-27 0 -43.5 16.5t-16.5 43.5v1392q0 17 -4 24.5t-21 7.5q-12 0 -21.5 -1.5t-23.5 -6
t-35 -12t-57 -18.5q-13 -4 -24.5 5t-17 23t-3 28.5t15.5 21.5q40 20 106.5 36t146.5 16q21 0 39.5 -2t33 -9.5t23 -22.5t8.5 -42v-674q32 2 55 19.5t40 43.5t30 56t24 56q19 45 35.5 93t32.5 97q12 38 24 78.5t26 80.5t30.5 77.5t37.5 70.5q19 30 63 54t106 24q23 0 59.5 -6
t76.5 -26q12 -6 17 -15t5 -20q0 -9 -4.5 -18.5t-11.5 -16t-16 -9.5t-19 1q-30 12 -55.5 15.5t-38.5 3.5q-42 0 -70 -23.5t-47 -63.5t-32.5 -93t-26 -111.5t-27.5 -119t-37.5 -116t-55.5 -102.5t-82 -78q72 -40 117.5 -86.5t75.5 -100.5t49 -117t37 -135q2 -8 7.5 -29.5
t14 -49t19.5 -57.5t24.5 -55t28.5 -41t31 -16q14 0 31 13t34.5 35t35 51t32.5 60q8 15 14.5 30.5t12.5 30.5q8 19 26 24t35 -1t27 -20.5t2 -34.5q-10 -19 -18.5 -36.5t-17.5 -34.5q-20 -37 -39 -69t-42 -58q-35 -38 -75 -59.5t-73 -21.5z" />
    <glyph glyph-name="L" unicode="L" horiz-adv-x="1160" 
d="M490 269q-12 12 -29 23.5t-35 21.5t-36.5 16t-35.5 6q-21 0 -37 -13.5t-26.5 -33t-15.5 -41t-5 -37.5t5 -37t15.5 -39.5t26.5 -31t37 -12.5q26 0 48 20.5t39 49t29.5 59t19.5 49.5zM924 0q-61 0 -105 15t-79 39.5t-67 57t-69 67.5q-35 -81 -98.5 -130t-154.5 -49
q-42 0 -80.5 17.5t-67.5 47.5t-46 68.5t-17 80.5q0 100 53 156.5t156 56.5q48 0 90.5 -19.5t79.5 -45.5q29 100 37.5 197.5t8.5 194.5q0 107 -6 208t-6 202q0 78 14 152t48.5 131.5t92.5 93t147 35.5q34 0 59.5 -2t46 -5.5t38 -8.5t35.5 -11q17 -6 22 -21t1 -29
q-5 -20 -17.5 -31.5t-32.5 -5.5q-27 8 -46.5 12t-34.5 6.5t-26.5 3.5t-22.5 1q-40 2 -69 -17.5t-48.5 -50.5t-31.5 -71t-18 -80t-8 -76t-2 -60q0 -97 7 -195t7 -202q0 -55 -3 -113.5t-11 -118t-21.5 -118t-35.5 -112.5q25 -23 40.5 -40.5t34.5 -36.5q30 -30 54.5 -50
t47.5 -32t47.5 -16.5t54.5 -4.5q39 0 72.5 7.5t63 26t55 49t47.5 76.5q8 15 14.5 30.5t12.5 30.5q8 19 26 24t35 -1t27 -20.5t2 -34.5q-29 -59 -55.5 -104.5t-61.5 -77.5q-20 -19 -42.5 -36.5t-50.5 -31t-63 -21.5t-80 -8z" />
    <glyph glyph-name="M" unicode="M" horiz-adv-x="1765" 
d="M236 1485q-20 0 -66.5 -7.5t-118.5 -31.5q-10 -4 -19 -1t-16 9.5t-11.5 16t-4.5 18.5q0 11 5 20t17 15q40 20 94.5 36t123.5 16q49 0 85.5 -9.5t64 -28t48.5 -47.5t39 -68q32 77 94.5 115t144.5 38q81 0 143 -37.5t94 -115.5q32 77 95 115t149 38q89 0 149 -37.5
t97 -98.5t53 -137t16 -153v-878q0 -15 1.5 -45t10 -60.5t27 -53t53.5 -22.5q26 0 48.5 13t42.5 35t37.5 51t32.5 60q8 15 14.5 30.5t12.5 30.5q8 19 26 24t35 -1t27 -20.5t2 -34.5q-29 -59 -55.5 -108t-61.5 -86q-38 -41 -88.5 -63t-119.5 -22q-53 0 -92.5 24.5t-66 62
t-39.5 83t-13 88.5v881q0 22 -2.5 56.5t-9.5 73t-18 77t-28.5 69.5t-41 50.5t-55.5 19.5t-56 -19.5t-41 -50.5t-28.5 -69.5t-18 -77t-9 -73t-2.5 -57.5v-1078q0 -27 -16.5 -43.5t-43.5 -16.5h-46q-27 0 -43.5 16.5t-16.5 43.5v1078q0 23 -2.5 57.5t-9 73t-18 77t-28.5 69.5
t-41 50.5t-56 19.5t-56 -19.5t-41 -50.5t-28.5 -69.5t-18 -77t-9 -73t-2.5 -57.5v-1078q0 -27 -16.5 -43.5t-43.5 -16.5h-46q-27 0 -43.5 16.5t-16.5 43.5v1078q0 23 -1.5 57t-7 73t-16 77.5t-28 69.5t-43.5 50.5t-62 19.5z" />
    <glyph glyph-name="N" unicode="N" horiz-adv-x="1288" 
d="M477 1423q31 78 94 115.5t148 37.5q89 0 149.5 -38t97.5 -98.5t53 -136.5t16 -153v-878q0 -15 1.5 -45t10 -60.5t27 -53t53.5 -22.5q26 0 48.5 13t42.5 35t37.5 51t32.5 60q8 15 14.5 30.5t12.5 30.5q8 19 26 24t35 -1t27 -20.5t2 -34.5q-29 -59 -55.5 -108t-61.5 -86
q-38 -41 -87 -63t-111 -22q-59 0 -101 24.5t-68.5 62t-39 83t-12.5 88.5v881q0 22 -2.5 56t-9 72.5t-18 77.5t-28.5 70t-40.5 50.5t-55.5 19.5t-56 -19.5t-41 -50.5t-28.5 -69.5t-18 -77.5t-9 -73t-2.5 -57v-1078q0 -27 -16.5 -43.5t-43.5 -16.5h-46q-27 0 -43.5 16.5
t-16.5 43.5v1078q0 23 -1.5 57t-7 73t-16 77.5t-28 69.5t-43.5 50.5t-62 19.5q-20 0 -66.5 -7.5t-118.5 -31.5q-10 -4 -19 -1t-16 9.5t-11.5 16t-4.5 18.5q0 11 5 20t17 15q40 20 94.5 36t123.5 16q49 0 85.5 -9.5t64 -28t48.5 -47.5t39 -68z" />
    <glyph glyph-name="O" unicode="O" horiz-adv-x="1087" 
d="M516 1576q72 0 137 -16t105 -36q12 -6 17 -15t5 -20q0 -22 -15.5 -35t-36.5 -8q-72 23 -122 31t-83 8q-74 0 -129.5 -37t-95.5 -96.5t-65.5 -135t-40 -153.5t-20.5 -151t-6 -127q0 -53 8.5 -125.5t26 -149.5t45 -152t66.5 -134.5t89.5 -96t113.5 -36.5q64 0 114.5 37
t89.5 96.5t67 135t45.5 152.5t26 149.5t8.5 125.5q0 68 -7 145.5t-28 151.5t-61 136.5t-106 99.5q-32 17 -63 25.5t-65 14.5q-3 1 -11.5 2.5t-17.5 4.5t-16 8t-7 12q0 8 7.5 13t17.5 8t20 4t15 1q50 0 103.5 -14.5t104 -40.5t93.5 -60.5t71 -75.5q30 -44 52 -97t36.5 -110
t21 -114.5t6.5 -110.5q0 -63 -8 -131.5t-24 -137t-40.5 -135t-57.5 -125.5q9 -5 18.5 -10.5t17.5 -8.5q14 -6 28.5 -9.5t20.5 -5.5q5 -1 16 -1.5t25 3t29.5 12t29.5 24.5q8 9 15 20.5t12 25.5q8 19 26 24t35 -1t27 -20.5t2 -34.5q-21 -50 -52 -73.5t-65 -31.5
q-38 -9 -70.5 -4.5t-44.5 8.5t-26.5 11t-25.5 13l-39 25q-32 -50 -70.5 -91.5t-84.5 -71.5t-99 -47t-114 -17q-90 0 -163 37.5t-130 100.5t-98.5 144.5t-68.5 169.5t-40 175.5t-13 162.5t13 162.5t40 174.5t69 168.5t99.5 143.5t131 99.5t163.5 37.5z" />
    <glyph glyph-name="P" unicode="P" horiz-adv-x="856" 
d="M271 1485q-41 0 -94.5 -8.5t-125.5 -30.5q-20 -6 -35.5 8t-15.5 35q0 11 5 20t17 15q40 20 107 36t147 16q59 0 121.5 -9.5t121.5 -31.5t111 -57t91 -85t62 -116.5t23 -152.5q0 -112 -38 -186t-100 -118.5t-142.5 -62.5t-164.5 -18v-679q0 -27 -16.5 -43.5t-43.5 -16.5
h-46q-27 0 -43.5 16.5t-16.5 43.5v1200q0 27 16.5 43.5t43.5 16.5h46q27 0 43.5 -16.5t16.5 -43.5v-425q56 0 106.5 17.5t89 53.5t61 90t22.5 127q0 87 -32 154.5t-84 113.5t-118 70t-135 24z" />
    <glyph glyph-name="Q" unicode="Q" horiz-adv-x="1092" 
d="M646 1485q-85 0 -152.5 -32.5t-118.5 -87t-87 -125.5t-58.5 -148.5t-33 -156.5t-10.5 -148q0 -49 4.5 -120t17 -148.5t35.5 -154t59 -137t87 -98.5t121 -38q51 0 95.5 20t77.5 53.5t52 77t19 90.5v928q0 27 16.5 43.5t43.5 16.5h46q27 0 43.5 -16.5t16.5 -43.5v-1191
q61 35 101 78t71 103q8 15 14.5 30.5t12.5 30.5q8 19 26 24t35 -1t27 -20.5t2 -34.5q-8 -19 -17.5 -36t-18.5 -34q-19 -35 -38.5 -65t-42.5 -55q-19 -20 -35 -35t-35 -28.5t-43 -28t-59 -33.5v-598q0 -27 -16.5 -43.5t-43.5 -16.5h-46q-27 0 -43.5 16.5t-16.5 43.5v697
q-13 -11 -39 -22t-59.5 -20t-71.5 -15t-74 -6q-105 0 -182.5 35t-132 95t-88.5 139t-53.5 166.5t-26.5 178t-7 173.5q0 96 15.5 192t48.5 183.5t83.5 163t119.5 131t158 87.5t198 32q80 0 146 -16t106 -36q12 -6 17 -15t5 -20q0 -21 -15.5 -35t-35.5 -8q-72 22 -129.5 30.5
t-90.5 8.5z" />
    <glyph glyph-name="R" unicode="R" horiz-adv-x="984" 
d="M274 1576q58 0 119.5 -9.5t121 -31t112.5 -55.5t92.5 -82.5t63 -113t23.5 -146.5q0 -80 -16 -138t-41.5 -99.5t-58.5 -68t-66 -42.5t-63.5 -24t-52.5 -12q6 -18 19.5 -56t33 -88.5t43 -108t49 -115t52.5 -111t53 -94.5t50 -65.5t43 -24.5q14 0 31 13t34.5 35t35 51
t32.5 60q8 15 14.5 30.5t12.5 30.5q8 19 26 24t35 -1t27 -20.5t2 -34.5q-10 -19 -18.5 -36.5t-17.5 -34.5q-20 -37 -39 -69t-42 -58q-35 -38 -75 -59.5t-73 -21.5q-38 0 -76.5 25.5t-76 68.5t-73 99.5t-68 119t-61 126t-52 121t-41 104.5t-27.5 76v-666q0 -27 -5.5 -41.5
t-16.5 -22t-28 -9t-40 -1.5q-43 0 -59 14t-16 60v1172q0 25 4.5 40t14.5 22.5t25.5 9.5t37.5 2t37.5 -2t25.5 -9.5t15 -22.5t5 -40v-411q71 0 124 25t87.5 66t51.5 95t17 112q0 80 -30 145t-81 111t-117.5 71t-138.5 25q-33 0 -92 -7.5t-131 -31.5q-10 -4 -19 -1t-16 9.5
t-11.5 16t-4.5 18.5q0 11 5 20t17 15q40 20 106 36t146 16z" />
    <glyph glyph-name="S" unicode="S" horiz-adv-x="1019" 
d="M445 0q-64 0 -110.5 9t-81 23t-59 30t-43.5 30q-21 15 -21 35q0 8 5.5 17.5t14.5 16t20 8.5t23 -6q40 -25 70 -39.5t54 -21.5t43 -9t35 -2q102 0 174 33.5t117 88t65.5 123.5t20.5 139q0 71 -19.5 136.5t-58.5 118t-96.5 88t-133.5 46.5q-39 6 -76 15t-73 25
q-46 21 -89 52.5t-75 72t-51.5 88.5t-19.5 102q0 78 32 143.5t85 113t122.5 74t144.5 26.5q80 0 146 -16t106 -36q12 -6 17 -15t5 -20q0 -21 -15.5 -35t-35.5 -8q-72 22 -124 30.5t-85 8.5q-51 0 -93.5 -22.5t-73.5 -59.5t-48 -85t-17 -99q0 -49 16 -93t44.5 -78t68.5 -57
t89 -31q97 -16 183 -53t150.5 -95.5t102 -139.5t37.5 -185q0 -68 -14.5 -131t-42.5 -118q12 -5 23 -7t16 -4q5 -1 16 -1.5t25 3t29.5 12t29.5 24.5q8 9 15 20.5t12 25.5q8 19 26 24t35 -1t27 -20.5t2 -34.5q-21 -50 -52 -73.5t-65 -31.5q-38 -9 -70.5 -4.5t-44.5 8.5
q-11 3 -23 9t-23 12q-58 -90 -159 -144.5t-254 -54.5z" />
    <glyph glyph-name="T" unicode="T" horiz-adv-x="954" 
d="M677 0q-85 0 -147 31t-104 83t-68 120t-40 141t-18.5 147t-4.5 138q0 80 9.5 159.5t25 158t34 156.5t36.5 156q3 11 5 21.5t6.5 19t12.5 14t22 5.5q8 0 27.5 -2.5t39 -8.5t34.5 -16t15 -24q0 -7 -3 -18l-6 -22q-21 -80 -37.5 -152t-28.5 -144t-18.5 -147.5t-6.5 -162.5
q0 -35 2 -90t9.5 -117.5t21.5 -125.5t39 -114t62.5 -83t90.5 -32q42 0 81 7.5t72.5 26t62.5 49t51 76.5q8 15 14.5 30.5t12.5 30.5q8 19 26 24t35 -1t27 -20.5t2 -34.5q-29 -59 -55.5 -104.5t-61.5 -77.5q-20 -19 -47 -36.5t-61 -31t-76 -21.5t-93 -8zM261 1485
q43 0 94.5 -9.5t103 -21.5t100 -21.5t86.5 -9.5q32 0 67.5 3t70 12t64.5 25t52 42q9 11 16.5 24t7.5 25t-8.5 17t-20.5 5q-15 0 -35 -5.5t-37 -12.5q-37 -14 -70.5 -17t-71.5 -3q-45 0 -96.5 6t-105 13t-105.5 13t-99 6q-80 0 -146 -16t-106 -36q-12 -6 -17 -15t-5 -20
q0 -9 4.5 -18.5t11.5 -16t16 -9.5t19 1q72 24 124.5 31.5t85.5 7.5z" />
    <glyph glyph-name="U" unicode="U" horiz-adv-x="1159" 
d="M787 99q-29 -35 -63 -55t-71.5 -29.5t-78.5 -12t-84 -2.5q-105 0 -182 35.5t-131.5 95.5t-89 139t-54 166.5t-26.5 178t-7 172.5v729q0 27 16.5 43.5t43.5 16.5h46q27 0 43.5 -16.5t16.5 -43.5v-729q0 -37 2.5 -86.5t9 -105.5t17.5 -115t28 -115t41.5 -106t57 -87
t74.5 -59t95 -22q49 0 93 16.5t77.5 46.5t53 71.5t19.5 90.5v1200q0 27 16.5 43.5t43.5 16.5h46q27 0 43.5 -16.5t16.5 -43.5v-1314q0 -10 1.5 -28.5t8 -37t20 -32t36.5 -13.5q38 0 67 13t52 35t41 51t33 60q8 15 14.5 30.5t12.5 30.5q8 19 26 24t35 -1t27 -20.5t2 -34.5
q-29 -59 -55.5 -108t-61.5 -86q-38 -41 -87 -63t-111 -22q-70 0 -112 28t-62 71z" />
    <glyph glyph-name="V" unicode="V" horiz-adv-x="1008" 
d="M371 1500q1 -22 3 -61.5t4.5 -86.5t5.5 -98.5t6 -98t5.5 -84t3.5 -58.5q2 -35 6.5 -93.5t11.5 -130t17.5 -151t24 -157t31 -148.5t39 -124.5t48 -85.5t57.5 -32q23 0 43 37t37 99.5t30.5 146t23 177t15 190.5t6.5 188q1 62 -0.5 123.5t-4.5 131t-7 150.5t-9 182
q-2 27 15.5 43.5t44.5 16.5h46q21 0 32.5 -7.5t18.5 -36t11.5 -84t9.5 -151.5q2 -32 4 -75t3.5 -89.5t2 -94.5t-0.5 -91q-1 -104 -11 -204.5t-25 -192t-32.5 -170.5t-35.5 -139q14 -5 28.5 -8t28.5 -6q5 -1 16 -1t25 3t29.5 11.5t29.5 24.5q8 9 15 20.5t12 25.5q8 19 26 24
t35 -1t27 -20.5t2 -34.5q-21 -50 -52 -73.5t-65 -31.5q-38 -9 -70.5 -4.5t-44.5 8.5q-14 5 -28.5 9.5t-28.5 10.5q-13 -34 -30.5 -69.5t-41.5 -64t-56 -46.5t-74 -18q-66 0 -117.5 29.5t-92 80t-70 117t-50.5 141.5t-35 153t-22.5 151.5t-13 137t-6.5 109.5q-1 27 -3 69.5
t-4.5 93t-4.5 105t-4 105t-3 92.5t-1 68q0 17 -4 24.5t-21 7.5q-12 0 -21.5 -1.5t-23.5 -6t-35 -12t-57 -18.5q-13 -4 -24.5 5t-17 23t-3 28.5t15.5 21.5q40 20 106.5 36t146.5 16q21 0 39 -2t32 -9.5t22 -22.5t9 -42z" />
    <glyph glyph-name="W" unicode="W" horiz-adv-x="1525" 
d="M16 1524q40 20 106.5 36t146.5 16q21 0 39 -2t32 -9.5t22 -22.5t9 -42q1 -22 3 -61.5t4.5 -86.5t5.5 -98.5t6 -98t5.5 -84t3.5 -58.5q2 -35 6.5 -93.5t12 -130t17.5 -151t24 -157t31.5 -148.5t39 -124.5t48 -85.5t57.5 -32q29 0 50 33t35 88t23 127t13.5 149.5t6 156
t1.5 146.5l-1 725q0 27 16.5 43.5t43.5 16.5h46q27 0 43.5 -16.5t16.5 -43.5l-1 -725q0 -68 1.5 -146.5t6 -156t13.5 -149.5t23 -127t35 -88t50 -33q31 0 57.5 32t48 85.5t39 124.5t31.5 148.5t24 157t17.5 151t12 130t6.5 93.5q1 21 3.5 58.5t6 84t6.5 98t6 98.5t4.5 86
t1.5 62q0 14 4.5 27.5t12 24t19 17.5t24.5 7h46q27 0 43.5 -16.5t16.5 -43.5q0 -26 -1.5 -73t-3.5 -104.5t-4.5 -120.5t-5 -120.5t-4.5 -104.5t-3 -74q-3 -55 -9 -136t-18.5 -172.5t-34.5 -185.5t-56 -176q5 -2 10.5 -4t10.5 -4q14 -5 28.5 -8.5t28.5 -5.5q5 -1 16 -1t25 3
t29.5 11.5t29.5 24.5q8 9 15 20.5t12 25.5t16.5 20t24.5 6q19 0 35.5 -11.5t16.5 -30.5q0 -8 -3 -16q-37 -85 -117 -105q-23 -5 -46 -5q-34 0 -65 8t-61 21q-6 2 -12 5l-12 6q-22 -46 -49.5 -84t-61 -66t-73.5 -43.5t-87 -15.5q-39 0 -73.5 14t-62 37.5t-47 55t-29.5 65.5
q-10 -34 -29.5 -65.5t-47 -55t-62 -37.5t-73.5 -14q-66 0 -117.5 29.5t-92 80t-70 117t-50.5 141.5t-35 153t-22.5 151.5t-13 137t-6.5 109.5q-1 27 -3 69.5t-4.5 93t-4.5 105t-4 105t-3 92.5t-1 68q0 17 -4 24.5t-21 7.5q-12 0 -21.5 -1.5t-23.5 -6t-35 -12t-57 -18.5
q-2 -1 -7 -1q-16 0 -27 16.5t-11 33.5q0 9 3.5 16.5t12.5 12.5z" />
    <glyph glyph-name="X" unicode="X" horiz-adv-x="1092" 
d="M438 102q-12 -32 -33 -52t-48 -31t-57.5 -15t-60.5 -4q-27 0 -67.5 1.5t-84.5 11.5q-11 2 -17.5 11.5t-8.5 20.5q-3 23 10 38.5t35 13.5q33 -4 65.5 -6t65.5 0q12 1 19 2t12 6.5t10 17t13 33.5q59 161 115.5 318.5t115.5 318.5q-59 161 -115.5 319.5t-115.5 319.5
q-8 22 -13 33.5t-10 17t-12 6.5t-19 2q-33 2 -65.5 0t-65.5 -6q-22 -2 -35 13.5t-10 38.5q2 11 8.5 20.5t17.5 11.5q44 10 84.5 11.5t67.5 1.5q30 0 60.5 -4t57.5 -15t48 -31t33 -52l166 -459l166 459q12 32 33 52t48 31t57.5 15t60.5 4q27 0 67.5 -1.5t84.5 -11.5
q11 -2 17.5 -11.5t8.5 -20.5q3 -23 -10 -38.5t-35 -13.5q-33 4 -65.5 6t-65.5 0q-12 -1 -18.5 -2t-12 -6.5t-10.5 -17t-13 -33.5q-59 -161 -115 -319.5t-115 -319.5l244 -669q5 -14 10.5 -20.5t17.5 -6.5q14 0 31 13t34.5 35t35 51t32.5 60q8 15 14.5 30.5t12.5 30.5
q8 19 26 24t35 -1t27 -20.5t2 -34.5q-10 -19 -18.5 -36.5t-17.5 -34.5q-20 -37 -39 -69t-42 -58q-35 -38 -75 -59.5t-73 -21.5q-27 0 -53 5t-49 16t-40.5 29.5t-27.5 45.5l-170 463z" />
    <glyph glyph-name="Y" unicode="Y" horiz-adv-x="1247" 
d="M909 -110q-38 -31 -58.5 -64t-29.5 -69.5t-10.5 -77t-1.5 -85.5q0 -9 0.5 -28t2.5 -43t5.5 -49.5t10 -46.5t15.5 -34.5t21 -13.5q15 0 24 19.5t13.5 44.5t6 49.5t1.5 35.5v362zM674 0q-66 0 -119.5 29.5t-96.5 80t-76 117t-58 141.5t-42.5 153t-29 151.5t-17.5 137
t-8 109.5q-1 27 -3 69.5t-4.5 93t-4.5 105t-4 105t-3 92.5t-1 68q0 17 -4 24.5t-21 7.5q-12 0 -21.5 -1.5t-23.5 -6t-35 -12t-57 -18.5q-18 -5 -31.5 12t-13.5 37q0 9 3.5 16.5t12.5 12.5q40 20 106.5 36t146.5 16q21 0 39 -2t32 -9.5t22 -22.5t9 -42q1 -22 3 -61.5
t4.5 -86.5t5.5 -98.5t6 -98t5.5 -84t3.5 -58.5q2 -35 5 -93.5t8.5 -130t14 -151t22 -157t33 -148.5t47 -124.5t63.5 -85.5t82 -32q52 0 89.5 37t63.5 95t42 130t25 142t12 130.5t3 96.5v794q0 27 16.5 43.5t43.5 16.5h46q27 0 43.5 -16.5t16.5 -43.5v-1447q61 35 101 78
t71 103q8 15 14.5 30.5t12.5 30.5q8 19 26 24t35 -1t27 -20.5t2 -34.5q-8 -19 -17.5 -36t-18.5 -34q-19 -35 -38.5 -65t-42.5 -55q-19 -20 -35 -35t-35 -28.5t-43 -28t-59 -33.5v-344q0 -51 -9 -106.5t-32 -101.5t-63.5 -76t-103.5 -30q-65 0 -106.5 31.5t-65 79
t-32.5 104.5t-9 108q0 63 19 118t53 100.5t81 82t102 62.5v157q-19 -26 -45.5 -52.5t-57 -48t-64 -35t-68.5 -13.5z" />
    <glyph glyph-name="Z" unicode="Z" horiz-adv-x="983" 
d="M261 1485q-33 0 -85.5 -7.5t-124.5 -31.5q-10 -4 -19 -1t-16 9.5t-11.5 16t-4.5 18.5q0 11 5 20t17 15q40 20 106 36t146 16q46 0 90.5 -6t88 -13t86.5 -13t86 -6t79 2t73 16q17 6 42 13t36 7t29.5 -8.5t36.5 -20.5t31 -26.5t13 -26.5q0 -7 -4 -17.5t-9 -18.5l-753 -1333
q42 14 81 24t84 10q51 0 97 -10.5t89 -23.5t84.5 -23.5t81.5 -10.5q42 0 81 7.5t72.5 26t62.5 49t51 76.5q8 15 14.5 30.5t12.5 30.5q8 19 26 24t35 -1t27 -20.5t2 -34.5q-29 -59 -55.5 -104.5t-61.5 -77.5q-20 -19 -46 -36.5t-59 -31t-74 -21.5t-92 -8q-57 0 -100 8t-84 17
t-85 17t-102 8q-80 0 -155 -30q-19 -8 -37.5 -14t-32.5 -6q-13 0 -32.5 6.5t-38 17t-31.5 23.5t-13 27q0 8 5 18l10 20l757 1342q-42 -14 -81.5 -19.5t-78.5 -5.5q-45 0 -88.5 9t-87 19.5t-87.5 19t-89 8.5z" />
    <glyph glyph-name="backslash" unicode="\" horiz-adv-x="768" 
d="M701 -24q0 -20 -9.5 -32t-23.5 -18.5t-30 -10t-30 -7.5q-10 -3 -17 -3q-12 0 -21 5.5t-15 14t-10 19t-7 20.5l-467 1602q-5 18 -5 32q0 20 11.5 34t27 22.5t33 12t29.5 3.5q16 0 26.5 -5.5t17.5 -13.5t11.5 -18.5t7.5 -20.5l466 -1602q5 -20 5 -34z" />
    <glyph glyph-name="asciicircum" unicode="^" horiz-adv-x="1345" 
d="M409 1260q-21 -22 -36 -39.5t-31.5 -29.5t-39 -18.5t-57.5 -6.5q-6 0 -15 0.5t-17 3t-14 7.5t-6 14q0 20 26.5 47.5t62.5 52.5t72 43t55 18t55 -18t72 -43t62.5 -52.5t26.5 -47.5q0 -9 -6 -14t-14 -7.5t-17 -3t-15 -0.5q-35 0 -57.5 6.5t-39 18.5t-31.5 29.5t-36 39.5z
" />
    <glyph glyph-name="grave" unicode="`" horiz-adv-x="902" 
d="M499 1319q0 -7 -6 -12t-15 -8.5t-18.5 -5t-16.5 -1.5q-26 0 -61.5 19.5t-68 49.5t-55 66t-22.5 69t22 56.5t50 23.5q16 0 29 -7.5t22.5 -19t15 -25.5t5.5 -28q0 -9 -1.5 -16t-1.5 -17q0 -32 19 -53.5t42 -37.5t42 -28t19 -25z" />
    <glyph glyph-name="a" unicode="a" horiz-adv-x="909" 
d="M166 485q0 -25 3 -64t11 -82.5t20.5 -88t32 -80t46 -57.5t61.5 -22q34 0 60 21t45 55t32.5 76.5t21.5 85.5t11.5 83t3.5 68t-3.5 67.5t-11.5 83t-21.5 86t-32.5 76.5t-45 55t-60 21t-60 -21t-45.5 -55t-32.5 -76.5t-21 -85t-11.5 -81.5t-3.5 -65zM745 91q26 0 49 13
t43.5 35t38.5 51t33 60q8 15 14.5 30.5t12.5 30.5q8 19 26 24t35 -1t27 -20.5t2 -34.5q-10 -19 -18.5 -36.5t-17.5 -34.5q-19 -37 -38.5 -67t-42.5 -56q-34 -36 -80 -60.5t-115 -24.5q-25 0 -48.5 9.5t-43.5 25t-35.5 36.5t-24.5 45q-45 -50 -99 -83t-125 -33
q-57 0 -104.5 22t-85 59.5t-65.5 86t-46.5 102t-27.5 108t-9 102.5q0 52 7 102.5t23 98.5q17 52 46 102t68.5 89.5t88.5 63.5t107 24q50 0 93 -18t81 -50q0 24 5 37.5t15 20.5t25 8.5t34 1.5q23 0 39.5 -2t27 -9.5t15.5 -22t5 -40.5v-614q0 -17 1 -47.5t7 -60t19.5 -51.5
t37.5 -22z" />
    <glyph glyph-name="b" unicode="b" horiz-adv-x="785" 
d="M0 480v1021q0 24 5 39t14.5 23t24.5 10.5t36 2.5q45 0 65.5 -14t20.5 -61v-608q37 31 82.5 49t96.5 18q57 0 104 -22.5t84 -60t64.5 -86.5t46 -102.5t27.5 -108.5t9 -103q0 -55 -11 -118t-33 -117q14 -6 28.5 -9.5t20.5 -5.5q5 -1 16 -1.5t25 3t29.5 12t29.5 24.5
q8 9 15 20.5t12 25.5q8 19 26 24t35 -1t27 -20.5t2 -34.5q-21 -50 -52 -73.5t-65 -31.5q-38 -9 -70.5 -4.5t-44.5 8.5t-26.5 11t-25.5 13q-5 -8 -9 -15.5t-10 -17.5q-21 -35 -48 -65.5t-60 -53.5t-71.5 -36.5t-82.5 -13.5q-57 0 -104 22t-84.5 58.5t-65.5 85t-46.5 102
t-27.5 108.5t-9 104zM340 91q34 0 60 21t45 55t32.5 76.5t21.5 85.5t11.5 83t3.5 68t-3.5 67.5t-11.5 83t-21.5 86t-32.5 76.5t-45 55t-60 21t-60 -21t-45.5 -55t-32.5 -76.5t-21 -85t-11.5 -81.5t-3.5 -65q0 -25 3 -64t11 -82.5t20.5 -88t32 -80t46 -57.5t61.5 -22z" />
    <glyph glyph-name="c" unicode="c" horiz-adv-x="707" 
d="M566 908q16 -13 16 -32.5t-9 -34t-24.5 -20t-31.5 8.5q-10 6 -21.5 13t-28.5 12.5t-41 9.5t-59 4q-42 0 -73 -22t-53.5 -57t-37 -79.5t-23 -90t-11.5 -87.5t-3 -72q0 -41 9 -84.5t26 -84.5t42.5 -77.5t58.5 -64t73.5 -43.5t87.5 -16q50 0 88 11.5t67 32.5t51 50.5
t38 64.5q7 15 13.5 30t13.5 31q8 19 26 24t35 -1t27 -20.5t2 -34.5q-18 -40 -36 -75q-17 -33 -36 -61t-45 -54q-17 -17 -44 -33t-61 -28.5t-73.5 -20t-80.5 -7.5q-102 0 -184.5 35.5t-141 98t-90.5 146.5t-32 181q0 58 8 117.5t25.5 115t46 104t69 84.5t94 57t121.5 21
q24 0 52 -2t55.5 -8t52 -16t42.5 -26z" />
    <glyph glyph-name="d" unicode="d" horiz-adv-x="910" 
d="M0 480q0 52 7 102.5t23 98.5q17 52 46 102t68.5 89.5t88.5 63.5t107 24q50 0 93 -18t81 -50v609q0 45 21 60t66 15q39 0 59 -14t20 -61v-1229q0 -17 1 -47.5t7 -60t19.5 -51.5t37.5 -22q26 0 49.5 13t44 35t38.5 51t33 60q8 15 14.5 30.5t12.5 30.5q8 19 26 24t35 -1
t27 -20.5t2 -34.5q-10 -19 -18.5 -37t-17.5 -35q-20 -37 -39 -68.5t-42 -57.5q-35 -38 -81 -59.5t-115 -21.5q-25 0 -48.5 9.5t-43.5 25t-35.5 36.5t-24.5 45q-45 -50 -99 -83t-125 -33q-57 0 -104.5 22t-85 59.5t-65.5 86t-46.5 102t-27.5 108t-9 102.5zM340 91q34 0 60 21
t45 55t32.5 76.5t21.5 85.5t11.5 83t3.5 68t-3.5 67.5t-11.5 83t-21.5 86t-32.5 76.5t-45 55t-60 21t-60 -21t-45.5 -55t-32.5 -76.5t-21 -85t-11.5 -81.5t-3.5 -65q0 -25 3 -64t11 -82.5t20.5 -88t32 -80t46 -57.5t61.5 -22z" />
    <glyph glyph-name="e" unicode="e" horiz-adv-x="709" 
d="M318 869q-33 0 -57 -22.5t-41 -58.5t-27.5 -81t-16.5 -88.5t-8 -81.5t-2 -61q0 -8 0.5 -16t2.5 -16q48 26 97 43t102 29q23 6 41.5 11.5t31 15.5t19 25.5t6.5 41.5q0 19 -3.5 45.5t-11.5 55.5t-20 57t-28 50.5t-37.5 36.5t-47.5 14zM465 91q50 0 88 11.5t67 32.5t51 50.5
t38 64.5q7 15 13.5 30t13.5 31q8 19 26 24t35 -1t27 -20.5t2 -34.5q-18 -40 -36 -75q-17 -32 -36 -60.5t-45 -54.5q-17 -16 -44 -32t-61 -29t-73.5 -20.5t-80.5 -7.5q-107 0 -191 37t-141.5 100.5t-87.5 150t-30 185.5q0 49 8 104t24 109t41.5 104t61 87.5t81 60t102.5 22.5
q67 0 121 -30.5t92 -80t58.5 -110.5t20.5 -123q0 -64 -21 -102.5t-55.5 -60.5t-79 -32t-92 -18.5t-94.5 -19.5t-85 -35q8 -52 31 -98.5t59.5 -82t85 -56t106.5 -20.5z" />
    <glyph glyph-name="f" unicode="f" horiz-adv-x="566" 
d="M305 1166q0 11 -0.5 39t-3 63.5t-6.5 74t-11.5 70t-19 52t-27.5 20.5q-15 0 -24 -17.5t-13.5 -42.5t-5.5 -52t-1 -46v-766q23 86 43 159.5t35.5 144t24.5 143.5t9 158zM279 0q-26 3 -45.5 10.5t-40.5 23.5v-496q0 -15 1 -39t4.5 -46.5t11.5 -39t21 -16.5q18 0 29 32
t17 79.5t7.5 101.5t1.5 99q0 72 1.5 146t-8.5 145zM225 97q0 -10 5.5 -16t13.5 -9.5t16 -5t12 -1.5q0 4 -2 12.5t-6 17t-10 15t-14 6.5q-9 0 -12 -6.5t-3 -12.5zM407 0q7 -42 11.5 -77t7.5 -69.5t4 -70.5t1 -79q0 -38 -1.5 -82t-8.5 -88.5t-20.5 -85.5t-37.5 -72.5
t-59.5 -50.5t-86.5 -19q-47 0 -78.5 16t-51.5 43t-31 63t-17 76q-7 49 -9.5 97t-2.5 96v1606q0 47 8 95t30 88t59.5 65t96.5 25q51 0 86 -19t58.5 -51t36.5 -73t19.5 -85.5t8 -88.5t1.5 -82q0 -67 -6 -125.5t-19 -114.5t-32.5 -112.5t-45.5 -118.5l-135 -322v-214
q13 14 30 18t34 4q31 0 50.5 -9.5t33 -26t23 -38t20.5 -44.5q61 20 106 68t76 108q8 15 14.5 30.5t12.5 30.5q8 19 26 24t35 -1t27 -20.5t2 -34.5q-8 -19 -17.5 -36t-18.5 -34q-19 -35 -38.5 -65t-42.5 -55q-38 -41 -77 -61t-82 -28z" />
    <glyph glyph-name="g" unicode="g" horiz-adv-x="851" 
d="M166 486q0 -25 3 -64t11 -83t20.5 -88.5t32 -80t46 -57.5t61.5 -22q34 0 60 21t45 54.5t32.5 76t21.5 85.5t11.5 82.5t3.5 67.5t-3.5 68t-11.5 83.5t-21.5 86t-33 77t-45.5 55.5t-60 21t-60 -21t-45 -54.5t-32 -76t-21 -85t-11.5 -81t-3.5 -65.5zM513 -109
q-30 -23 -47 -49t-25 -55t-10 -60.5t-2 -64.5v-30q0 -10 0.5 -32.5t2 -50.5t4.5 -58.5t9 -55t15.5 -40.5t23.5 -16q10 0 16 8.5t9 21.5t3.5 27t0.5 25v430zM679 -380q0 -50 -6 -105t-26.5 -101.5t-58.5 -77t-102 -30.5q-66 0 -107 32.5t-64.5 81.5t-32 107.5t-8.5 109.5
q0 58 17.5 111.5t49.5 100t76 85t96 66.5v67q-21 -16 -40.5 -28.5t-39 -21t-41.5 -13t-48 -4.5q-59 0 -107.5 22t-86.5 59.5t-66.5 86.5t-47 102.5t-27.5 108.5t-9 104q0 48 9 102t27 107t45.5 101.5t65 85.5t84.5 59t105 22q54 0 97 -18.5t81 -49.5q-1 24 4 37.5t15.5 20
t26 8.5t35.5 2q22 0 38 -2t26.5 -9.5t15.5 -22t5 -40.5l-1 -817q61 35 101 78t71 103q8 15 14.5 30.5t12.5 30.5q8 19 26 24t35 -1t27 -20.5t2 -34.5q-8 -19 -17.5 -36t-18.5 -34q-19 -35 -38.5 -65t-42.5 -55q-19 -20 -35 -35t-35 -28.5t-43 -28t-59 -33.5v-344z" />
    <glyph glyph-name="h" unicode="h" horiz-adv-x="858" 
d="M677 0q-63 0 -100.5 23.5t-57.5 62t-26 87t-6 98.5q0 39 4 77.5t8.5 76t8 74t3.5 72.5q0 23 -2 54t-8 64t-16 65t-26 57.5t-38 41.5t-52 16q-35 0 -62 -22t-46.5 -57t-32.5 -79t-21 -87t-11 -81.5t-3 -62.5v-409q0 -26 -6 -40.5t-17 -21t-28 -8t-39 -1.5
q-41 0 -58.5 13.5t-17.5 58.5v1429q0 24 5 39t14.5 23t24.5 10.5t36 2.5q45 0 65.5 -14t20.5 -61v-588q38 26 84 36.5t97 10.5q82 0 140 -22.5t95 -65.5t54 -105.5t17 -143.5q0 -55 -6.5 -110t-14 -109.5t-14 -109.5t-6.5 -110q0 -13 3 -29.5t10.5 -30.5t19 -23.5t28.5 -9.5
q29 0 52.5 15t42.5 38.5t34.5 51.5t28.5 54q8 15 14.5 30.5t12.5 30.5q8 19 26 24t35 -1t27 -20.5t2 -34.5q-8 -19 -17.5 -36.5t-18.5 -34.5q-19 -36 -38.5 -67t-42.5 -56q-32 -35 -75.5 -60t-105.5 -25z" />
    <glyph glyph-name="i" unicode="i" horiz-adv-x="424" 
d="M27 1160q0 -35 23.5 -58t57.5 -23q35 0 58.5 23.5t23.5 57.5t-23.5 58t-57.5 24q-35 0 -58.5 -23.5t-23.5 -58.5zM243 0q-63 0 -104.5 25.5t-66 67t-35 92.5t-10.5 102v599q0 47 20 60.5t63 13.5q42 0 62.5 -13.5t20.5 -60.5v-601q0 -17 2.5 -49.5t10 -64.5t22 -56
t38.5 -24q29 0 52.5 15t42.5 38.5t34.5 51.5t28.5 54q8 15 14.5 30.5t12.5 30.5q8 19 26 24t35 -1t27 -20.5t2 -34.5q-8 -19 -17.5 -36.5t-18.5 -34.5q-19 -36 -38.5 -67t-42.5 -56q-32 -35 -75.5 -60t-105.5 -25z" />
    <glyph glyph-name="j" unicode="j" horiz-adv-x="490" 
d="M152 1160q0 34 24 58t58 24q35 0 59 -23.5t24 -58.5t-24.5 -58t-58.5 -23t-58 23.5t-24 57.5zM153 -524v415q-30 -23 -47 -48.5t-25 -53t-10 -57.5t-2 -63v-35t1.5 -54.5t4.5 -62.5t9 -59t16 -44t24 -17q10 0 16 8.5t9 20.5t3.5 25.5t0.5 24.5zM153 355
q-11 -25 -18.5 -40.5t-17.5 -35.5q-9 -18 -27 -22.5t-34.5 1t-26.5 20t-2 33.5t20.5 57.5t26.5 88.5t28 108t25.5 115.5t18.5 111t7 94.5q0 25 4.5 39.5t14.5 22t26 10t39 2.5q21 0 36.5 -2t25.5 -9.5t15 -22.5t5 -40l-1 -817q61 35 101 78t71 103q8 15 14.5 30.5t12.5 30.5
q8 19 26 24t35 -1t27 -20.5t2 -34.5q-8 -19 -17.5 -36t-18.5 -34q-19 -35 -38.5 -65t-42.5 -55q-19 -20 -35 -35t-35 -28.5t-43 -28t-59 -33.5l1 -344q0 -50 -6.5 -105t-26.5 -101.5t-58.5 -77t-101.5 -30.5q-65 0 -106.5 32.5t-65 81.5t-32 107.5t-8.5 109.5q0 58 17.5 113
t49.5 102.5t76 85.5t96 62v355z" />
    <glyph glyph-name="k" unicode="k" horiz-adv-x="840" 
d="M638 91q38 0 68.5 11.5t54.5 32.5t43.5 50.5t35.5 64.5q7 15 13.5 30t13.5 31q8 19 26 24t35 -1t27 -20.5t2 -34.5q-17 -38 -36 -73q-17 -33 -36.5 -61.5t-44.5 -54.5q-16 -17 -34 -33t-41 -29t-54 -20.5t-72 -7.5q-84 0 -154 38t-121.5 99.5t-82.5 139t-38 157.5
q48 15 95.5 30.5t85 40.5t61 63.5t23.5 97.5q0 27 -9.5 62t-28.5 66.5t-45.5 53t-61.5 21.5q-33 0 -59 -22t-45 -57.5t-31.5 -79t-20 -87t-11 -81.5t-3.5 -62v-406q0 -28 -6 -43t-18 -22t-30 -8t-41 -1q-42 0 -56.5 16.5t-14.5 59.5v1425q0 40 14 57.5t57 17.5h13
q20 0 35 -1.5t25.5 -9t16 -22.5t5.5 -42v-589q45 34 96 41t105 7q68 0 121.5 -21t90.5 -60t56 -93.5t19 -121.5q0 -58 -24.5 -107t-64.5 -87t-91 -63t-104 -35q8 -44 27 -93.5t48.5 -91t71 -69t94.5 -27.5z" />
    <glyph glyph-name="l" unicode="l" horiz-adv-x="518" 
d="M298 1165q0 12 -1 40.5t-4 64t-8 73.5t-13 69.5t-19 51.5t-26 20q-14 0 -22 -17.5t-12.5 -43t-5.5 -54t-1 -49.5v-755q23 85 43 157t35.5 142t24.5 142.5t9 158.5zM319 91q36 0 66 13t54.5 35t44 51t34.5 60q8 15 14.5 30.5t12.5 30.5q8 19 26 24t35 -1t27 -20.5t2 -34.5
q-8 -19 -17.5 -36.5t-18.5 -34.5q-19 -36 -38.5 -67t-42.5 -56q-38 -41 -89 -63t-125 -22q-63 0 -109 18t-77.5 49t-50.5 73t-29.5 90t-14 99.5t-3.5 102.5v846q0 50 5.5 102.5t25 96t56.5 71.5t101 28q52 0 87.5 -19t59 -51t36.5 -73t19 -85.5t7.5 -88.5t1.5 -82
q0 -81 -9.5 -148.5t-26.5 -130.5t-42 -126t-56 -137q-26 -63 -50 -125t-49 -125v-24q0 -39 2 -86t14.5 -88t39.5 -68.5t77 -27.5z" />
    <glyph glyph-name="m" unicode="m" horiz-adv-x="1110" 
d="M952 91q29 0 52.5 15t42.5 38.5t34.5 51.5t28.5 54q8 15 14.5 30.5t12.5 30.5q8 19 26 24t35 -1t27 -20.5t2 -34.5q-8 -19 -17.5 -36.5t-18.5 -34.5q-19 -36 -38.5 -67t-42.5 -56q-32 -35 -75.5 -60t-105.5 -25q-66 0 -105 25.5t-59.5 66t-26 90.5t-5.5 98q0 50 3 97
t7 93t7 91t3 90q0 26 -2.5 63t-12.5 71.5t-31 59t-59 24.5q-25 0 -42.5 -22.5t-29.5 -57t-19 -76.5t-10.5 -81.5t-4.5 -72t-1 -47.5v-438q0 -27 -5.5 -41.5t-16.5 -22t-28 -9t-40 -1.5q-21 0 -35.5 3t-23.5 11t-13 22.5t-4 37.5v532q0 20 -0.5 47.5t-3.5 56.5t-7.5 57.5
t-13.5 51t-21.5 36.5t-30.5 14q-22 0 -38.5 -21t-28 -53.5t-19 -71.5t-12 -76t-6 -67t-1.5 -44q0 -116 0.5 -230t0.5 -232q0 -25 -5 -39.5t-15.5 -22t-27.5 -10t-40 -2.5q-20 0 -35 2t-24.5 9.5t-14.5 22.5t-5 40v812q0 25 4.5 40t14.5 22.5t25.5 9.5t36.5 2q23 0 39 -2.5
t26.5 -10t15 -22t4.5 -39.5q22 38 49 56t69 18q28 0 55.5 -8t50 -23.5t38.5 -37.5t21 -50q6 32 22 54.5t39.5 36.5t51.5 21t57 7q68 0 118.5 -23t84 -63.5t50 -95t16.5 -118.5q0 -57 -5 -112.5t-11.5 -110t-11.5 -110.5t-5 -115q0 -15 1.5 -35.5t8 -39.5t21 -32.5
t39.5 -13.5z" />
    <glyph glyph-name="n" unicode="n" horiz-adv-x="780" 
d="M622 91q29 0 52.5 15t42.5 38.5t34.5 51.5t28.5 54q8 15 14.5 30.5t12.5 30.5q8 19 26 24t35 -1t27 -20.5t2 -34.5q-8 -19 -17.5 -36.5t-18.5 -34.5q-19 -36 -38.5 -67t-42.5 -56q-32 -35 -75.5 -60t-105.5 -25q-66 0 -105 25.5t-59.5 66t-26 90.5t-5.5 98q0 50 3 97
t7 93t7 91t3 90q0 26 -2 63t-12.5 71.5t-31 59t-58.5 24.5q-26 0 -45 -22t-33 -56t-23.5 -76t-15 -81.5t-7.5 -72.5t-2 -49v-438q0 -26 -5.5 -40.5t-17 -22t-28 -9.5t-38.5 -2q-42 0 -59.5 14.5t-17.5 59.5v812q0 27 6.5 42t19 22t30.5 8.5t40 1.5q42 0 56.5 -15t13.5 -59
q24 38 52.5 56t73.5 18q72 0 123 -25t83 -68t46.5 -101.5t14.5 -126.5q0 -33 -3 -70t-7 -75.5t-8.5 -75.5t-7.5 -70q-4 -38 -6 -71t-2 -70q0 -15 1.5 -35t8 -38t21 -30.5t39.5 -12.5z" />
    <glyph glyph-name="o" unicode="o" horiz-adv-x="764" 
d="M166 485q0 -25 3 -64t11 -82.5t20.5 -87.5t32 -79.5t46 -57.5t61.5 -22q34 0 60 21t45 54.5t32.5 76t21.5 85.5t11.5 83t3.5 68t-3.5 67.5t-11.5 83t-21.5 86t-32.5 76.5t-45 55t-60 21t-60 -21t-45.5 -55t-32.5 -76.5t-21 -85t-11.5 -81.5t-3.5 -65zM338 0
q-55 0 -102 22t-84.5 59t-66 86t-47.5 102.5t-28.5 109.5t-9.5 106t9.5 104t28 107t47 101t66 84t85 57.5t104.5 21.5q58 0 105.5 -22t85.5 -59.5t66 -87t46.5 -103.5t27.5 -109.5t9 -104.5v1q0 -57 -11.5 -120.5t-34.5 -119.5q10 -3 18 -5l12 -3q5 -1 16 -1.5t25 3t29.5 12
t29.5 24.5q8 9 15 20.5t12 25.5q8 19 26 24t35 -1t27 -20.5t2 -34.5q-20 -49 -51.5 -73t-65.5 -32q-38 -9 -70.5 -4.5t-44.5 8.5q-8 2 -17.5 6t-18.5 9q-3 -5 -6 -10.5t-8 -13.5q-21 -35 -48.5 -65.5t-59.5 -53.5t-70 -36.5t-80 -13.5h-3z" />
    <glyph glyph-name="p" unicode="p" horiz-adv-x="791" 
d="M27 886q0 47 20 60.5t63 13.5q21 0 36.5 -2t26 -9t15.5 -21t5 -38q37 34 78 52t92 18q58 0 106 -22t86 -59.5t66.5 -86.5t47.5 -103t28.5 -109.5t9.5 -104.5q0 -57 -11.5 -120.5t-34.5 -119.5q10 -3 18 -5l12 -3q5 -1 16 -1.5t25 3t29.5 12t29.5 24.5q8 9 15 20.5
t12 25.5q8 19 26 24t35 -1t27 -20.5t2 -34.5q-21 -50 -52 -73.5t-65 -31.5q-38 -9 -70.5 -4.5t-44.5 8.5q-8 2 -17.5 6t-18.5 9q-3 -5 -6 -10.5t-8 -13.5q-21 -35 -48.5 -65.5t-59.5 -53.5t-70 -36.5t-80 -13.5q-51 0 -94 18.5t-81 47.5v-686q0 -26 -6 -41t-17.5 -22.5
t-28.5 -9t-40 -1.5q-42 0 -58 15t-16 59v1506zM367 91q34 0 60 21t45 55t32.5 76.5t21.5 85.5t11.5 83t3.5 68t-3.5 67.5t-11.5 83t-21.5 86t-32.5 76.5t-45 55t-60 21t-60 -21t-45.5 -55t-32.5 -76.5t-21 -85t-11.5 -81.5t-3.5 -65q0 -25 3 -64t11 -82.5t20.5 -88t32 -80
t46 -57.5t61.5 -22z" />
    <glyph glyph-name="q" unicode="q" horiz-adv-x="852" 
d="M166 486q0 -25 3 -64t11 -83t20.5 -88.5t32 -80t46 -57.5t61.5 -22q34 0 60 21t45 54.5t32.5 76t21.5 85.5t11.5 82.5t3.5 67.5t-3.5 68t-11.5 83.5t-21.5 86t-33 77t-45.5 55.5t-60 21t-60 -21t-45 -54.5t-32 -76t-21 -85t-11.5 -81t-3.5 -65.5zM680 -620
q0 -24 -5 -38.5t-15.5 -22.5t-26.5 -10.5t-39 -2.5q-21 0 -36 2.5t-24.5 10t-14.5 22.5t-5 39v687q-39 -32 -83 -49.5t-95 -17.5q-58 0 -105.5 22t-85 59.5t-64.5 86t-45 101.5t-27 107t-9 101q0 48 9 102.5t27.5 108.5t46 103t64.5 86.5t84 60t103 22.5q52 0 96.5 -18.5
t83.5 -48.5q-1 39 14 53t53 14q23 0 41 -1t31 -8t20 -22t7 -43v-817q61 35 101 78t71 103q8 15 14.5 30.5t12.5 30.5q8 19 26 24t35 -1t27 -20.5t2 -34.5q-8 -19 -17.5 -36.5t-18.5 -34.5q-19 -35 -38.5 -64.5t-42.5 -54.5q-19 -20 -35 -35t-35 -28.5t-43 -28t-59 -33.5
v-584z" />
    <glyph glyph-name="r" unicode="r" horiz-adv-x="760" 
d="M117 279q-9 -18 -27 -22.5t-34.5 1t-26.5 20t-2 33.5q14 35 28 79q17 54 24.5 111.5t7.5 100.5q0 38 -12.5 109t-44.5 157q-4 10 -8 22t-4 20q0 16 17 25.5t39 15t43 7t29 1.5q15 0 23.5 -4.5t13 -12t6.5 -17.5t5 -21q4 -17 17 -29t31 -19.5t40 -11t44 -3.5q15 0 39.5 1
t50 7.5t46.5 21.5t30 42q2 5 4.5 13t7.5 15.5t12.5 13t19.5 5.5q8 0 29.5 -3t43.5 -9t39 -15.5t17 -22.5q0 -8 -4.5 -21t-7.5 -21q-32 -86 -65 -172.5t-58.5 -171t-39.5 -165t-8 -155.5q5 -52 20.5 -82.5t53.5 -30.5t69 13t55.5 35t44.5 51t35 60q8 15 14.5 30.5t12.5 30.5
q8 19 26 24t35 -1t27 -20.5t2 -34.5q-8 -19 -17.5 -36.5t-18.5 -34.5q-19 -36 -38.5 -67t-42.5 -56q-38 -41 -90.5 -63t-135.5 -22q-46 0 -85.5 14t-68 42.5t-44.5 71t-16 99.5q0 64 13.5 133t33 139t43 138t42.5 129q-31 -13 -63 -18t-65 -5q-20 0 -34 1t-25 3.5t-21.5 6.5
t-24.5 11q5 -22 6 -45t0.5 -44.5t-2.5 -40t-4 -32.5q-8 -57 -25.5 -118.5t-39.5 -117.5q-9 -24 -18.5 -46t-18.5 -42z" />
    <glyph glyph-name="s" unicode="s" horiz-adv-x="790" 
d="M120 823l-1 72q0 23 7 35.5t18.5 19.5t26 8.5t29.5 1.5q45 0 65 -13.5t20 -60.5q0 -23 14 -52.5t36.5 -61.5t50.5 -64.5t55.5 -62t52 -54l40.5 -40.5q27 -27 54.5 -57.5t49.5 -64.5t37 -71t17 -77q1 -14 0.5 -28t-2.5 -26q5 -1 16 -1.5t25 3t29.5 12t29.5 24.5
q8 9 15 20.5t12 25.5q8 19 26 24t35 -1t27 -20.5t2 -34.5q-21 -50 -52 -73.5t-65 -31.5q-38 -9 -70.5 -4.5t-44.5 8.5q-40 -82 -111 -130t-162 -48q-45 0 -86.5 12.5t-73 37.5t-50.5 61.5t-19 84.5q0 20 15.5 28.5t32.5 8.5t32.5 -8.5t15.5 -28.5q0 -27 10.5 -47t28.5 -32.5
t41 -19t48 -6.5q40 0 66 18t41.5 46t21.5 61t6 64q0 41 -14.5 76t-38 65.5t-52 58.5t-55.5 53q-24 22 -42.5 40t-35 36t-32 39.5t-32.5 49.5q-1 -18 -4 -42t-7 -53q-5 -40 -16 -84t-25 -86.5t-30 -82t-31 -71.5q-9 -18 -27 -22.5t-34.5 1t-26.5 20t-2 33.5q12 29 23.5 67
t21.5 77.5t17 78t11 68.5q4 32 7.5 67t6.5 66t4.5 54.5t1.5 33.5z" />
    <glyph glyph-name="t" unicode="t" horiz-adv-x="487" 
d="M295 91q33 0 61.5 13t52.5 35t43.5 51t34.5 60q8 15 14.5 30.5t12.5 30.5q8 19 26 24t35 -1t27 -20.5t2 -34.5q-8 -19 -17.5 -36.5t-18.5 -34.5q-19 -36 -38.5 -67t-42.5 -56q-38 -41 -89 -63t-125 -22q-66 0 -113 22t-76.5 61t-43 91.5t-13.5 113.5v1213q0 40 14 57.5
t57 17.5h13q20 0 35 -1.5t25.5 -9t16 -22.5t5.5 -42v-443h160q33 0 43 -8t10 -41q0 -16 -2 -25.5t-7.5 -15t-16 -7t-27.5 -1.5h-159l-1 -612q0 -35 2.5 -79.5t13 -84t30.5 -66.5t56 -27z" />
    <glyph glyph-name="u" unicode="u" horiz-adv-x="909" 
d="M562 116q-45 -53 -98 -84.5t-122 -31.5q-57 0 -105 21.5t-86 57.5t-66.5 83.5t-47 99.5t-28 105.5t-9.5 101.5v417q0 25 4.5 40t14.5 22.5t25.5 9.5t36.5 2q23 0 39 -2.5t26.5 -10t15 -22t4.5 -39.5v-417q0 -24 3.5 -61.5t11.5 -79.5t21 -84t32 -76t45.5 -55.5
t60.5 -21.5q35 0 61.5 22t46 57t32 78.5t20.5 87t11 81.5t3 63v406q0 25 4.5 40t14 22.5t25 9.5t36.5 2q23 0 39 -2.5t26.5 -10t15 -22t4.5 -39.5v-614q0 -17 1 -47.5t7.5 -60t20 -51.5t37.5 -22q26 0 49 13t43.5 35t38.5 51t33 60q8 15 14.5 30.5t12.5 30.5q8 19 26 24
t35 -1t27 -20.5t2 -34.5q-10 -19 -18.5 -36.5t-17.5 -34.5q-20 -37 -39 -69t-42 -58q-35 -38 -80.5 -59.5t-114.5 -21.5q-25 0 -48.5 9.5t-43.5 25t-35.5 36.5t-24.5 45z" />
    <glyph glyph-name="v" unicode="v" horiz-adv-x="661" 
d="M482 218q7 -3 17 -6.5t20 -6.5t18.5 -5t12.5 -2q5 -1 18 -0.5t28.5 5.5t33 16.5t31.5 32.5q8 11 15 28t12 31q8 19 26 24t35 -1t27 -20.5t2 -34.5q-10 -25 -23.5 -48.5t-28.5 -43.5t-31.5 -34t-33.5 -20q-19 -6 -40 -7t-40 1t-34 5.5t-22 6.5t-16 6.5t-19 8t-18.5 8.5
t-14.5 7q-16 -28 -34.5 -57.5t-42 -54.5t-54 -41t-72.5 -16q-62 0 -104 30.5t-68 77t-39 102.5t-17 107q-7 83 -12 153t-10 137.5t-8.5 137.5t-7.5 153q-1 22 5.5 34t17.5 18t26.5 7.5t33.5 1.5q42 0 61.5 -14t21.5 -59l28 -542q1 -10 3 -33t5.5 -51t9.5 -58t14.5 -54.5
t20 -40.5t25.5 -16q13 0 25.5 18t24.5 46.5t22 63t18.5 67.5t14 60t8.5 41q13 66 22 134t11 135q2 61 -2.5 117t-16.5 113q-3 12 -3 23q0 18 9.5 28t23 15.5t30 6.5t29.5 1q22 0 35 -2.5t21.5 -8t13 -15.5t8.5 -25q5 -16 8.5 -50.5t6.5 -74t4 -77t-1 -60.5
q-5 -72 -12.5 -131.5t-15.5 -96.5q-14 -69 -31.5 -122.5t-30.5 -78.5z" />
    <glyph glyph-name="w" unicode="w" horiz-adv-x="966" 
d="M-10 896q0 21 6.5 33.5t17.5 19.5t26 9t32 2q24 0 40 -3.5t25.5 -11.5t14 -22.5t5.5 -36.5l27 -542q1 -10 2.5 -32.5t5.5 -50.5t9.5 -58.5t14 -55t19.5 -40.5t25 -16q21 0 38.5 22.5t30 59t19 81.5t6.5 90v263v279q0 44 17.5 59t65.5 15t65.5 -15t17.5 -59v-279v-263
q0 -45 6.5 -90t19 -81.5t30 -59t38.5 -22.5q14 0 25 16t19.5 40.5t14 55t9.5 58.5t6 50.5t2 32.5l27 542q2 44 21.5 59t67.5 15q17 0 31.5 -2t25 -9t16 -19.5t5.5 -33.5l-36 -579q-3 -51 -16.5 -107t-41.5 -102.5t-71 -77t-105 -30.5q-60 0 -105 29t-72 74q-27 -45 -72 -74
t-105 -29q-62 0 -105 30.5t-71 77t-41.5 102.5t-16.5 107zM787 218q7 -3 17 -6.5t20 -6.5t18.5 -5t12.5 -2q5 -1 18 -0.5t28.5 5.5t33 16.5t31.5 32.5q8 11 15 28t12 31q8 19 26 24t35 -1t27 -20.5t2 -34.5q-10 -25 -23.5 -48.5t-28.5 -43.5t-31.5 -34t-33.5 -20
q-19 -6 -40 -7t-40 1t-34 5.5t-22 6.5t-16 6.5t-19 8t-18.5 8.5t-14.5 7z" />
    <glyph glyph-name="x" unicode="x" horiz-adv-x="976" 
d="M202 603q-5 -57 -15.5 -118.5t-32.5 -117.5q-9 -24 -18.5 -46t-18.5 -42q-9 -18 -27 -22.5t-34.5 1t-26.5 20t-2 33.5q14 35 28 79q17 54 26.5 111.5t11.5 100.5q2 45 2.5 82t2.5 76q2 37 11.5 72.5t28.5 64t49 46t72 17.5q44 0 79 -19t63 -50t48.5 -69t36.5 -76
q14 32 33.5 69t48 69.5t66.5 54t89 21.5q49 0 97.5 -10t84.5 -42q16 -13 16 -32.5t-9 -34t-24.5 -20t-31.5 8.5q-20 12 -45.5 25.5t-68.5 13.5q-30 0 -54.5 -21.5t-43.5 -55.5t-33 -77t-23.5 -86t-14 -82.5t-4.5 -66.5q0 -34 3 -76.5t10.5 -85.5t20.5 -84t33 -73t48.5 -51
t66.5 -19q77 0 134.5 44t90.5 115q7 15 13.5 30t13.5 31q8 19 26 24t35 -1t27 -20.5t2 -34.5q-9 -20 -18 -38.5t-18 -35.5q-17 -35 -36.5 -64.5t-44.5 -55.5q-16 -17 -36 -32.5t-45.5 -27t-58.5 -18.5t-74 -7q-53 0 -99 10.5t-81.5 34t-60 61t-35.5 91.5q-13 -31 -34 -65.5
t-48.5 -63.5t-61 -48t-73.5 -19q-49 0 -87.5 9.5t-74.5 41.5q-16 14 -16 33t9 33.5t24.5 20t31.5 -8.5q20 -12 43 -25.5t51 -13.5q30 0 53 23t40 59.5t28.5 81t18.5 86.5t10 77t3 52q0 21 -3.5 58.5t-11 81.5t-19 90t-27.5 83.5t-36 61.5t-45 24q-19 0 -29.5 -12
t-15.5 -29.5t-6.5 -36.5t-1.5 -34q-2 -39 -2 -77t-4 -77z" />
    <glyph glyph-name="y" unicode="y" horiz-adv-x="851" 
d="M513 -109q-30 -25 -47 -51t-25.5 -53t-10 -56.5t-1.5 -61.5v-25v-36.5t1.5 -54t5 -60.5t9.5 -56.5t16 -41.5t24 -16q9 0 14.5 8t8.5 19.5t4 25t1 24.5v435zM679 69q61 35 101 78t71 103q8 15 14.5 30.5t12.5 30.5q8 19 26 24t35 -1t27 -20.5t2 -34.5q-8 -19 -17.5 -36
t-18.5 -34q-19 -35 -38.5 -65t-42.5 -55q-19 -20 -35 -35t-35 -28.5t-43 -28t-59 -33.5v-344q0 -50 -6.5 -105.5t-26.5 -102t-58 -76.5t-101 -30q-66 0 -107.5 32.5t-65 81.5t-32 107.5t-8.5 109.5q0 58 17.5 111.5t49.5 100t76 85t96 67.5v66q-35 -32 -81 -49.5t-97 -17.5
q-57 0 -104 22t-84 59t-64.5 85.5t-46 102t-27.5 108t-9 103.5v406q0 25 4.5 40t14.5 22.5t26 9.5t38 2t37.5 -2t25.5 -9.5t15 -22.5t5 -40v-406q0 -24 3 -62.5t11 -82t20.5 -87t31.5 -78.5t45.5 -57t60.5 -22q35 0 61.5 22t46 57.5t32.5 79.5t21 87t11.5 81t3.5 62v412
q0 24 5 38t14.5 20.5t23 8t31.5 1.5q25 0 42.5 -2t28.5 -9.5t16 -22t5 -40.5z" />
    <glyph glyph-name="z" unicode="z" horiz-adv-x="837" 
d="M219 603q-7 -40 -18 -83.5t-24.5 -86.5t-29 -82.5t-30.5 -71.5q-9 -18 -27 -22.5t-34.5 1t-26.5 20t-2 33.5q12 29 24 67t21.5 77.5t15.5 78t6 68.5q0 71 -11 134t-36 132q-3 8 -7.5 21.5t-4.5 22.5q0 15 16 24.5t36 15t40 7t27 1.5q15 0 24.5 -4.5t15 -11.5t8.5 -16
l6 -18q5 -16 25.5 -29t46 -22t51 -14t41.5 -5q99 0 143 38q10 9 17 22.5t14.5 27t17 23t23.5 9.5q10 0 28.5 -6.5t36.5 -17t31 -24t13 -27.5q0 -8 -4 -18.5t-9 -20.5l-317 -696q13 2 40.5 -4t58.5 -14.5t58.5 -17t40.5 -11.5q27 -6 41.5 -9t28.5 -3q38 0 68.5 11.5t55 32.5
t44 50.5t35.5 64.5q7 15 13.5 30t13.5 31q8 19 26 24t35 -1t27 -20.5t2 -34.5q-17 -38 -36 -73q-17 -33 -36.5 -61.5t-44.5 -54.5q-16 -17 -32.5 -33t-38 -29t-51 -20.5t-70.5 -7.5q-42 0 -93 12t-97.5 25t-82.5 21.5t-48 0.5q-5 -3 -9.5 -12.5t-11 -20t-16.5 -18.5t-26 -8
q-12 0 -29.5 6t-34.5 16t-29 23t-12 27q0 9 5.5 22.5t10.5 24.5l296 650q-28 -8 -49 -13.5t-50 -5.5q-42 0 -74.5 10t-70.5 24q2 -11 3 -30.5t1 -44.5t-2 -52.5t-7 -53.5z" />
    <glyph glyph-name="bar" unicode="|" horiz-adv-x="474" 
d="M331 -620q0 -24 -4.5 -39t-14 -22.5t-25 -10t-37.5 -2.5q-24 0 -40 2.5t-26 11t-14 23.5t-4 39v2119q0 24 4.5 39t14 23t25.5 10.5t40 2.5q22 0 37.5 -2.5t25 -10.5t14 -22.5t4.5 -39.5v-2121z" />
    <glyph glyph-name="asciitilde" unicode="~" horiz-adv-x="1092" 
d="M373 1164q-24 0 -43.5 -7.5t-35.5 -16.5t-29 -16.5t-24 -7.5q-16 0 -21.5 16t-5.5 33q0 37 18 62.5t46 42t62.5 24t67.5 7.5q21 0 41.5 -8t41 -18t41 -19.5t40.5 -12.5q8 -2 15.5 -2h13.5h15q24 0 45.5 7.5t38.5 16t31 16t23 7.5q16 0 21 -16.5t5 -32.5q0 -37 -18.5 -63
t-46.5 -42t-62 -23t-66 -7q-28 0 -49.5 9.5t-44.5 20.5t-51 20.5t-69 9.5z" />
    <glyph glyph-name="exclamdown" unicode="&#xa1;" horiz-adv-x="504" 
d="M166 1264q0 24 4.5 39t14 22.5t25.5 10t38 2.5q23 0 38.5 -2.5t25.5 -10t14.5 -22.5t4.5 -39v-1190q0 -24 -4.5 -39t-14.5 -22.5t-25.5 -10t-38.5 -2.5t-38.5 2.5t-25.5 10t-14 22.5t-4 39v1190zM166 1493q0 34 24 58.5t58 24.5q35 0 59 -24t24 -59t-24 -59t-59 -24
t-58.5 24t-23.5 59z" />
    <glyph glyph-name="sterling" unicode="&#xa3;" horiz-adv-x="946" 
d="M127 96q39 0 68 27t50.5 74.5t36 112.5t24 141t14 159.5t5.5 168.5h-159q-8 0 -18 0.5t-18.5 3.5t-14 8.5t-5.5 14.5v42q0 9 5.5 14.5t14 8.5t18.5 3.5t18 0.5h159q-1 39 -2.5 74t-3 69.5t-3 70t-1.5 75.5q0 78 14 152t49 131.5t95 93t152 35.5q21 0 44.5 -2.5t46 -10
t41.5 -20t31 -33.5q9 -14 9 -25q0 -10 -7 -16.5t-17 -6.5t-23 6.5t-29 14t-36 13.5t-43 6h-18q-36 0 -62 -20.5t-44 -53t-29 -73.5t-17 -82.5t-8 -79t-2 -63.5q0 -36 1 -67.5t2.5 -61.5t3 -61t2.5 -65h188q8 0 18 -0.5t18.5 -3.5t14 -8.5t5.5 -14.5v-42q0 -9 -5.5 -14.5
t-14 -8.5t-18.5 -3.5t-18 -0.5h-187q-1 -56 -4.5 -120.5t-11.5 -130t-21 -130t-32.5 -121.5t-46.5 -104t-63 -77h512q27 0 39 -6.5t12 -38.5q0 -36 -13.5 -43.5t-37.5 -7.5h-680q-26 0 -30.5 9.5t-4.5 21.5v31q0 13 5.5 23.5t31.5 10.5z" />
    <glyph glyph-name="yen" unicode="&#xa5;" horiz-adv-x="874" 
d="M358 864l-250 599q-4 9 -11 25.5t-7 26.5q0 7 2 10q3 6 17.5 14.5t32.5 16.5t34.5 13.5t23.5 5.5q8 0 14.5 -6.5t11.5 -15.5t8.5 -18.5t6.5 -15.5l197 -474l195 473q3 6 6.5 16t8.5 19t11 15.5t14 6.5t26 -5.5t37 -14.5t33.5 -20t14.5 -22q0 -8 -7 -24.5t-11 -26.5
l-252 -598v-790q0 -27 -1.5 -41.5t-7.5 -22t-18.5 -9t-35.5 -1.5h-31q-23 0 -35.5 1.5t-18.5 9t-7 22t-1 41.5v790zM683 943h-493q-8 0 -18 0.5t-18.5 3.5t-14 8.5t-5.5 14.5v42q0 9 5.5 14.5t14 8.5t18.5 3.5t18 0.5h493q8 0 18 -0.5t18.5 -3.5t14 -8.5t5.5 -14.5v-42
q0 -9 -5.5 -14.5t-14 -8.5t-18.5 -3.5t-18 -0.5zM683 769h-493q-8 0 -18 0.5t-18.5 3.5t-14 8.5t-5.5 14.5v42q0 9 5.5 14.5t14 8.5t18.5 3.5t18 0.5h493q8 0 18 -0.5t18.5 -3.5t14 -8.5t5.5 -14.5v-42q0 -9 -5.5 -14.5t-14 -8.5t-18.5 -3.5t-18 -0.5z" />
    <glyph glyph-name="brokenbar" unicode="&#xa6;" horiz-adv-x="474" 
d="M331 649q0 -24 -4.5 -39t-14.5 -22.5t-25.5 -10t-37.5 -2.5q-23 0 -39 2.5t-25.5 10.5t-14 23t-4.5 39v851q0 24 4.5 39t14 23t25.5 10.5t40 2.5q22 0 37.5 -2.5t25 -10.5t14 -22.5t4.5 -39.5v-852zM331 -619q0 -25 -4.5 -39.5t-14 -22.5t-24.5 -10.5t-37 -2.5
q-24 0 -40.5 2.5t-26.5 11t-14 23.5t-4 39v851q0 24 4.5 39t14 22.5t25.5 10t38 2.5q23 0 38.5 -2.5t25.5 -10t14.5 -22.5t4.5 -39v-852z" />
    <glyph glyph-name="section" unicode="&#xa7;" horiz-adv-x="755" 
d="M334 972q-31 -6 -54 -24.5t-37.5 -44t-21.5 -55.5t-7 -59q0 -66 33 -112.5t101 -56.5q19 -3 37 -6.5t36 -8.5q31 8 53.5 26.5t37.5 43.5t22 54.5t7 58.5q0 66 -33.5 113t-100.5 57q-19 3 -36.5 6t-36.5 8zM349 91q50 0 86.5 19t60 50.5t34.5 72.5t11 86q0 91 -48 152
t-148 75q-49 7 -95 27.5t-81.5 52.5t-57 74t-21.5 92q0 37 12 70.5t34 61.5t51.5 49t63.5 34q-76 42 -118.5 102t-42.5 142q0 64 25.5 122.5t68.5 103.5t99.5 72t118.5 27q69 0 123.5 -16t94.5 -36q12 -6 17 -15t5 -20q0 -9 -4.5 -18.5t-11.5 -16t-16 -9t-19 0.5
q-72 25 -114 32t-62 7q-50 0 -88 -18.5t-63 -50t-37.5 -73t-12.5 -87.5q0 -91 45.5 -150t142.5 -72q49 -7 96.5 -28t84.5 -54t59.5 -75.5t22.5 -92.5q0 -36 -12.5 -69t-34 -61t-51 -49t-64.5 -34q74 -42 118 -103t44 -145q0 -63 -26 -121.5t-69 -103.5t-99.5 -71.5
t-117.5 -26.5q-69 0 -123.5 16t-94.5 36q-12 6 -17 15t-5 20q0 9 4.5 18.5t11.5 16t16 9t19 -0.5q72 -25 118.5 -32t66.5 -7z" />
    <glyph glyph-name="dieresis" unicode="&#xa8;" horiz-adv-x="540" 
d="M60 1170q0 38 26 64t64 26t64 -26t26 -64t-26 -64t-64 -26t-64 26t-26 64zM300 1170q0 38 26 64t64 26t64 -26t26 -64t-26 -64t-64 -26t-64 26t-26 64z" />
    <glyph glyph-name="acute" unicode="&#xb4;" horiz-adv-x="902" 
d="M359 1460q0 11 -2 19t-2 18q0 14 5.5 28t15 25t23 18.5t28.5 7.5q14 0 27 -6.5t23 -17t16 -23.5t6 -27q0 -36 -17 -67.5t-43.5 -57.5t-57.5 -45.5t-59 -30.5q-21 -9 -34 -9q-6 0 -14.5 1.5t-17 5t-14.5 8.5t-6 12q6 16 26 29.5t41.5 28.5t38.5 34.5t17 48.5z" />
    <glyph glyph-name="uni03BC" unicode="&#x3bc;" horiz-adv-x="1361" 
d="M138 -577q-25 11 -33 32t3 46q61 131 95.5 245t51.5 227.5t21 233.5t4 262v417q0 25 4.5 39.5t14.5 22t26 10t40 2.5q21 0 36 -2t25 -9.5t15 -22t5 -40.5v-417q0 -25 3.5 -64t11.5 -82.5t21 -88t32 -80t45.5 -58t60.5 -22.5q35 0 61.5 23t45.5 60t32 82.5t21 90.5t11 85
t3 65v406q0 26 4.5 40.5t14 22t24.5 9.5t35 2q25 0 41.5 -2.5t26.5 -10t14.5 -22.5t4.5 -39v-614q0 -12 1.5 -44.5t7 -66.5t17 -60.5t31.5 -26.5q14 0 30 13t32.5 33.5t33.5 46t32 50.5t27 46.5t20 34.5q5 8 16 8q8 0 19 -4t21 -10t17 -13.5t7 -15.5t-5 -16.5t-8 -13.5
q-25 -43 -50.5 -85t-57 -75t-73 -53t-98.5 -20q-28 0 -49 9t-37.5 24.5t-28.5 36.5t-23 44q-43 -51 -98 -82.5t-123 -31.5q-54 0 -103 21t-87 59q-3 -84 -18.5 -166t-39.5 -162t-55 -157.5t-66 -153.5l-1 -1q-11 -25 -33 -33.5t-47 2.5z" />
    <glyph glyph-name="paragraph" unicode="&#xb6;" horiz-adv-x="733" 
d="M660 43q0 -13 -1.5 -21.5t-7.5 -13t-18 -6.5t-32 -2t-32 2t-18 6.5t-7.5 13t-1.5 21.5v1242h-122v-1242q0 -13 -1.5 -21.5t-7.5 -13t-18 -6.5t-32 -2t-32 2t-18 6.5t-7.5 13t-1.5 21.5v864q-58 3 -112.5 16t-96.5 40.5t-67.5 72.5t-25.5 113q0 67 25 112.5t66.5 73
t96 39.5t114.5 12h358v-1343z" />
    <glyph glyph-name="cedilla" unicode="&#xb8;" horiz-adv-x="672" 
d="M212 23h150v-81q0 -16 12.5 -23t31.5 -12t41 -10.5t41 -19t31.5 -38.5t12.5 -68q0 -52 -29.5 -88t-73.5 -58.5t-94.5 -32.5t-92.5 -10q-13 0 -42.5 1t-59.5 6t-52.5 15.5t-22.5 29.5q0 8 0.5 17.5t3.5 18t8.5 14.5t15.5 6q12 0 27 -8.5t33 -18.5t39.5 -18.5t47.5 -8.5
q25 0 48 9t40.5 24.5t28 37t10.5 46.5q0 42 -11.5 60.5t-28.5 24.5t-37.5 5.5t-37.5 3t-28.5 18t-11.5 50.5v108z" />
    <glyph glyph-name="onequarter" unicode="&#xbc;" horiz-adv-x="1134" 
d="M628 1574q7 0 16.5 -1.5t18.5 -6t15 -11t6 -17.5v-9t-2 -9l-248 -846q-3 -11 -9 -21t-23 -10q-7 0 -16.5 2.5t-18 7t-14.5 12t-6 17.5q0 7 3 16l246 846q4 12 9.5 21t22.5 9zM727 1230q23 0 37.5 -5t14.5 -29q0 -50 -3.5 -103t-16.5 -99q-2 -5 -4 -10.5t-5 -5.5h161v218
q0 25 13 29.5t30 4.5q23 0 37.5 -5t14.5 -29v-520q0 -25 -13.5 -29t-33.5 -4t-34 4t-14 29v256h-202q-14 0 -24.5 4t-18.5 17h1q-4 5 -6.5 10.5t-2.5 14.5q0 8 2 20.5t5 27.5t6.5 30.5t5.5 30.5q3 23 4.5 51t1.5 58q0 25 13.5 29.5t30.5 4.5zM283 1576q20 0 34 -6.5
t14 -27.5v-520q0 -25 -14 -29t-34 -4h-4q-19 0 -32 4.5t-13 28.5v410q-11 -5 -23.5 -9t-24.5 -8h1q-8 -3 -20.5 -7.5t-17.5 -4.5q-4 0 -8 4.5t-7 10t-4.5 11t-1.5 7.5q0 4 2 8q2 2 10 5.5t18.5 7.5t21.5 8.5t18 8.5q14 8 20 19t8 22t2.5 22t5.5 19.5t16 14t33 5.5z" />
    <glyph glyph-name="onehalf" unicode="&#xbd;" horiz-adv-x="1134" 
d="M644 1574q7 0 16.5 -1.5t18.5 -6t15 -11.5t6 -18q0 -8 -3 -17l-247 -846q-3 -11 -10 -21t-21 -10q-6 0 -15.5 2t-19 6.5t-16 11.5t-6.5 16q0 4 1 9t3 10l246 846q4 12 9.5 21t22.5 9zM287 1576q20 0 34 -6.5t14 -27.5v-520q0 -25 -14 -29t-34 -4h-4q-19 0 -32 4.5
t-13 28.5v410q-11 -5 -23.5 -9t-24.5 -8h1q-8 -3 -20.5 -7.5t-17.5 -4.5q-4 0 -8 4.5t-7 10t-4.5 11t-1.5 7.5q0 4 2 8q2 2 10 5.5t18.5 7.5t21.5 8.5t18 8.5q14 8 20 19t8 22t2.5 22t5.5 19.5t16 14t33 5.5zM750 694l-5 -4h221q13 0 25 -3.5t12 -21.5q0 -15 -10 -18.5
t-23 -3.5h-276q-17 0 -33 9t-16 26q0 10 5 19t8 14h-1l149 232v-1q20 34 38 74.5t18 84.5q0 14 -3 28.5t-10.5 26t-21 19t-34.5 7.5q-16 0 -35 -4.5t-36 -12.5h1q-8 -3 -10.5 -4t-9.5 -1q-9 0 -19.5 3t-10.5 15q0 14 15.5 23.5t36 15.5t41.5 8.5t32 2.5q31 0 59.5 -8
t50.5 -23.5t35.5 -40t13.5 -57.5q0 -8 -0.5 -13.5t-0.5 -10.5q-2 -37 -18 -73.5t-36 -67.5q-38 -60 -77 -119t-75 -121z" />
    <glyph glyph-name="threequarters" unicode="&#xbe;" horiz-adv-x="1134" 
d="M679 1574q7 0 16.5 -1.5t18 -6t14.5 -12t6 -18.5q0 -8 -3 -16l-247 -846q-3 -11 -10 -21t-21 -10q-6 0 -15.5 2t-19 6.5t-16 11.5t-6.5 16q0 4 1 9t3 10l246 846q4 12 9.5 21t23.5 9zM750 1230q23 0 37.5 -5t14.5 -29q0 -56 -4 -111t-25 -107h161v218q0 25 13 29.5
t27 4.5q26 0 40 -5.5t14 -28.5v-520q0 -24 -13 -28.5t-33 -4.5t-34 4t-14 29v256h-202q-17 0 -34.5 10.5t-17.5 32.5q0 11 4 24.5t6 26.5q8 43 12 84.5t4 85.5q0 25 13.5 29.5t30.5 4.5zM242 1034q27 0 47 10.5t33 29t19.5 43.5t6.5 53q0 24 -10 47.5t-27 43t-39.5 31.5
t-47.5 12q-5 0 -20.5 1t-20.5 7q-3 5 -3 15q0 16 9.5 19.5t19.5 3.5h8q20 0 34.5 8.5t24 22t14.5 30.5t5 33q0 12 -3 27t-10 27.5t-18 21.5t-28 9q-11 0 -21.5 -3.5t-20.5 -8t-20 -8t-21 -3.5q-8 0 -18 3.5t-10 17.5t13 23.5t31 15t38 8t33 2.5q28 0 55 -9.5t48 -26.5
t34 -40.5t13 -52.5q0 -40 -22 -70t-51 -47q58 -14 92.5 -58t34.5 -111q0 -46 -16.5 -78.5t-45 -53.5t-67 -30.5t-83.5 -9.5q-11 0 -32 2.5t-42 8t-36.5 14.5t-15.5 22q0 12 11 16.5t21 4.5q11 0 22 -3.5t23.5 -8t27 -8t31.5 -3.5z" />
    <glyph glyph-name="questiondown" unicode="&#xbf;" horiz-adv-x="731" 
d="M600 377q22 0 37.5 -2.5t25 -10.5t13.5 -23t4 -39q0 -66 -27 -121.5t-72.5 -95.5t-104.5 -62.5t-123 -22.5t-123 22t-104.5 62t-72.5 96t-27 123q0 63 20.5 124.5t42.5 120.5q22 58 43.5 115.5t42.5 115.5q41 110 64.5 219t31.5 227q2 25 5 40t11 22.5t22.5 10t38.5 2.5
q21 0 37.5 -2t28 -9t17 -20.5t5.5 -36.5q0 -89 -21 -189t-51.5 -200t-66 -196t-65.5 -178q-17 -45 -28.5 -85t-11.5 -82q0 -35 9.5 -75t29.5 -74t50 -56.5t72 -22.5t72.5 22.5t50.5 57t29.5 74.5t9.5 75q0 26 5.5 41t16 22.5t26.5 9t37 1.5zM437 1493q0 -35 -24 -59t-59 -24
t-59 24t-24 59t24 59t59 24t59 -24t24 -59z" />
    <glyph glyph-name="Agrave" unicode="&#xc0;" horiz-adv-x="1179" 
d="M648 1485q-85 0 -152 -33t-118.5 -88t-87.5 -126.5t-59.5 -149.5t-34 -155.5t-10.5 -145.5q0 -37 2.5 -86.5t9 -105.5t17.5 -115t28 -115t41.5 -106t57 -87t74.5 -59t95 -22q49 0 93 19t77.5 51.5t53 76t19.5 92.5v930q0 27 16.5 43.5t43.5 16.5h46q27 0 43.5 -16.5
t16.5 -43.5v-1058q0 -10 1.5 -28.5t8 -37t20 -32t36.5 -13.5q38 0 67 13t52 35t41 51t33 60q8 15 14.5 30.5t12.5 30.5q8 19 26 24t35 -1t27 -20.5t2 -34.5q-29 -59 -55.5 -108t-61.5 -86q-38 -41 -87 -63t-111 -22q-74 0 -116.5 30.5t-60.5 76.5q-24 -30 -59.5 -50t-76 -33
t-82.5 -18.5t-81 -5.5q-104 0 -180 35.5t-130 95.5t-88 139t-53.5 166.5t-26.5 178t-7 172.5q0 96 16 192t48.5 183.5t83 163t120 131.5t158.5 87.5t198 31.5q80 0 146 -16t106 -36q12 -6 17 -15t5 -20q0 -21 -15.5 -34.5t-35.5 -8.5q-72 23 -129 31t-90 8zM782 1643
q0 -7 -6 -12t-15 -8.5t-18.5 -5t-16.5 -1.5q-26 0 -61.5 19.5t-68 49.5t-55 66t-22.5 69t22 56.5t50 23.5q16 0 29 -7.5t22.5 -19t15 -25.5t5.5 -28q0 -9 -1.5 -16t-1.5 -17q0 -32 19 -53.5t42 -37.5t42 -28t19 -25z" />
    <glyph glyph-name="Aacute" unicode="&#xc1;" horiz-adv-x="1179" 
d="M648 1485q-85 0 -152 -33t-118.5 -88t-87.5 -126.5t-59.5 -149.5t-34 -155.5t-10.5 -145.5q0 -37 2.5 -86.5t9 -105.5t17.5 -115t28 -115t41.5 -106t57 -87t74.5 -59t95 -22q49 0 93 19t77.5 51.5t53 76t19.5 92.5v930q0 27 16.5 43.5t43.5 16.5h46q27 0 43.5 -16.5
t16.5 -43.5v-1058q0 -10 1.5 -28.5t8 -37t20 -32t36.5 -13.5q46 0 80.5 20.5t60.5 52.5t45 71t34 76q8 19 26 24t35 -1t27 -20.5t2 -34.5q-29 -59 -55.5 -108t-61.5 -86q-38 -41 -87 -63t-111 -22q-74 0 -116.5 30.5t-60.5 76.5q-24 -30 -59.5 -50t-76 -33t-82.5 -18.5
t-81 -5.5q-104 0 -180 35.5t-130 95.5t-88 139t-53.5 166.5t-26.5 178t-7 172.5q0 96 16 192t48.5 183.5t83 163t120 131.5t158.5 87.5t198 31.5q80 0 146 -16t106 -36q12 -6 17 -15t5 -20q0 -21 -15.5 -35t-35.5 -8q-72 22 -129 30.5t-90 8.5zM666 1784q0 11 -2 19t-2 18
q0 14 5.5 28t15 25t23 18.5t28.5 7.5q14 0 27 -6.5t23 -17t16 -23.5t6 -27q0 -36 -17 -67.5t-43.5 -57.5t-57.5 -45.5t-59 -30.5q-21 -9 -34 -9q-6 0 -14.5 1.5t-17 5t-14.5 8.5t-6 12q6 16 26 29.5t41.5 28.5t38.5 34.5t17 48.5z" />
    <glyph glyph-name="Acircumflex" unicode="&#xc2;" horiz-adv-x="1179" 
d="M648 1485q-85 0 -152 -33t-118.5 -88t-87.5 -126.5t-59.5 -149.5t-34 -155.5t-10.5 -145.5q0 -37 2.5 -86.5t9 -105.5t17.5 -115t28 -115t41.5 -106t57 -87t74.5 -59t95 -22q49 0 93 19t77.5 51.5t53 76t19.5 92.5v930q0 27 16.5 43.5t43.5 16.5h46q27 0 43.5 -16.5
t16.5 -43.5v-1058q0 -10 1.5 -28.5t8 -37t20 -32t36.5 -13.5q46 0 80.5 20.5t60.5 52.5t45 71t34 76q8 19 26 24t35 -1t27 -20.5t2 -34.5q-29 -59 -55.5 -108t-61.5 -86q-38 -41 -87 -63t-111 -22q-74 0 -116.5 30.5t-60.5 76.5q-24 -30 -59.5 -50t-76 -33t-82.5 -18.5
t-81 -5.5q-104 0 -180 35.5t-130 95.5t-88 139t-53.5 166.5t-26.5 178t-7 172.5q0 96 16 192t48.5 183.5t83 163t120 131.5t158.5 87.5t198 31.5q80 0 146 -16t106 -36q12 -6 17 -15t5 -20q0 -21 -15.5 -35t-35.5 -8q-72 22 -129 30.5t-90 8.5zM668 1808q-21 -22 -36 -39.5
t-31.5 -29.5t-39 -18.5t-57.5 -6.5q-6 0 -15 0.5t-17 3t-14 7.5t-6 14q0 20 26.5 47.5t62.5 52.5t72 43t55 18t55 -18t72 -43t62.5 -52.5t26.5 -47.5q0 -9 -6 -14t-14 -7.5t-17 -3t-15 -0.5q-35 0 -57.5 6.5t-39 18.5t-31.5 29.5t-36 39.5z" />
    <glyph glyph-name="Atilde" unicode="&#xc3;" horiz-adv-x="1179" 
d="M648 1485q-85 0 -152 -33t-118.5 -88t-87.5 -126.5t-59.5 -149.5t-34 -155.5t-10.5 -145.5q0 -37 2.5 -86.5t9 -105.5t17.5 -115t28 -115t41.5 -106t57 -87t74.5 -59t95 -22q49 0 93 19t77.5 51.5t53 76t19.5 92.5v930q0 27 16.5 43.5t43.5 16.5h46q27 0 43.5 -16.5
t16.5 -43.5v-1058q0 -10 1.5 -28.5t8 -37t20 -32t36.5 -13.5q38 0 67 13t52 35t41 51t33 60q8 15 14.5 30.5t12.5 30.5q8 19 26 24t35 -1t27 -20.5t2 -34.5q-29 -59 -55.5 -108t-61.5 -86q-38 -41 -87 -63t-111 -22q-74 0 -116.5 30.5t-60.5 76.5q-24 -30 -59.5 -50t-76 -33
t-82.5 -18.5t-81 -5.5q-104 0 -180 35.5t-130 95.5t-88 139t-53.5 166.5t-26.5 178t-7 172.5q0 96 16 192t48.5 183.5t83 163t120 131.5t158.5 87.5t198 31.5q80 0 146 -16t106 -36q12 -6 17 -15t5 -20q0 -21 -15.5 -34.5t-35.5 -8.5q-72 23 -129 31t-90 8zM498 1763
q-24 0 -43.5 -7.5t-35.5 -16.5t-29 -16.5t-24 -7.5q-16 0 -21.5 16t-5.5 33q0 37 18 62.5t46 42t62.5 24t67.5 7.5q21 0 41.5 -8t41 -18t41 -19.5t40.5 -12.5q8 -2 15.5 -2h13.5h15q24 0 45.5 7.5t38.5 16t31 16t23 7.5q16 0 21 -16.5t5 -32.5q0 -37 -18.5 -63t-46.5 -42
t-62 -23t-66 -7q-28 0 -49.5 9.5t-44.5 20.5t-51 20.5t-69 9.5z" />
    <glyph glyph-name="Adieresis" unicode="&#xc4;" horiz-adv-x="1179" 
d="M644 1576q80 0 146 -16t106 -36q12 -6 17 -15t5 -20q0 -21 -15.5 -34.5t-35.5 -8.5q-72 23 -129 31t-90 8q-85 0 -152 -33t-118.5 -88t-87.5 -126.5t-59.5 -149.5t-34 -155.5t-10.5 -145.5q0 -37 2.5 -86.5t9 -105.5t17.5 -115t28 -115t41.5 -106t57 -87t74.5 -59t95 -22
q49 0 93 19t77.5 51.5t53 76t19.5 92.5v930q0 27 16.5 43.5t43.5 16.5h46q27 0 43.5 -16.5t16.5 -43.5v-1058q0 -10 1.5 -28.5t8 -37t20 -32t36.5 -13.5q46 0 80.5 20.5t60.5 52.5t45 71t34 76q6 14 17 20t24 6q20 0 36 -11.5t16 -30.5q0 -7 -3 -16q-29 -59 -55.5 -108
t-61.5 -86q-38 -41 -87 -63t-111 -22q-74 0 -116.5 30.5t-60.5 76.5q-24 -30 -59.5 -50t-76 -33t-82.5 -18.5t-81 -5.5q-104 0 -180 35.5t-130 95.5t-88 139t-53.5 166.5t-26.5 178t-7 172.5q0 96 16 192t48.5 183.5t83 163t120 131.5t158.5 87.5t198 31.5zM693 1810
q0 38 26 64t64 26t64 -26t26 -64t-26 -64t-64 -26t-64 26t-26 64zM468 1900q38 0 64 -26t26 -64t-26 -64t-64 -26t-64 26t-26 64t26 64t64 26z" />
    <glyph glyph-name="Aring" unicode="&#xc5;" horiz-adv-x="1179" 
d="M648 1485q-85 0 -152 -33t-118.5 -88t-87.5 -126.5t-59.5 -149.5t-34 -155.5t-10.5 -145.5q0 -37 2.5 -86.5t9 -105.5t17.5 -115t28 -115t41.5 -106t57 -87t74.5 -59t95 -22q49 0 93 19t77.5 51.5t53 76t19.5 92.5v930q0 27 16.5 43.5t43.5 16.5h46q27 0 43.5 -16.5
t16.5 -43.5v-1058q0 -10 1.5 -28.5t8 -37t20 -32t36.5 -13.5q38 0 67 13t52 35t41 51t33 60q8 15 14.5 30.5t12.5 30.5q8 19 26 24t35 -1t27 -20.5t2 -34.5q-29 -59 -55.5 -108t-61.5 -86q-38 -41 -87 -63t-111 -22q-74 0 -116.5 30.5t-60.5 76.5q-24 -30 -59.5 -50t-76 -33
t-82.5 -18.5t-81 -5.5q-104 0 -180 35.5t-130 95.5t-88 139t-53.5 166.5t-26.5 178t-7 172.5q0 96 16 192t48.5 183.5t83 163t120 131.5t158.5 87.5t198 31.5q80 0 146 -16t106 -36q12 -6 17 -15t5 -20q0 -21 -15.5 -34.5t-35.5 -8.5q-72 23 -129 31t-90 8zM603 1748
q0 -29 19 -49t48 -20t49 20t20 49t-19.5 48.5t-48.5 19.5t-48.5 -19.5t-19.5 -48.5zM519 1748q0 31 12 58.5t32 48.5t48 33t59 12t58.5 -12t48.5 -33t33 -48.5t12 -58.5t-12 -59t-33 -48t-48.5 -32t-58.5 -12t-59 12t-48 32t-32 48t-12 59z" />
    <glyph glyph-name="Egrave" unicode="&#xc8;" horiz-adv-x="819" 
d="M542 0q-95 0 -182 28t-154 86.5t-106.5 149.5t-39.5 216q0 73 22 140t62 124t96 100.5t124 68.5q-46 22 -85 53t-67.5 70.5t-45 87.5t-16.5 104q0 74 28 137.5t77 110.5t115.5 73.5t143.5 26.5q80 0 146 -16t106 -36q12 -6 17 -15t5 -20q0 -9 -4.5 -18.5t-11.5 -16
t-16 -9t-19 0.5q-72 25 -122 32t-83 7q-52 0 -92 -22.5t-67.5 -59t-42 -82.5t-14.5 -94q0 -46 14 -93.5t42 -86t68.5 -63t93.5 -24.5q38 0 54.5 -6.5t16.5 -38.5q0 -20 -5.5 -31t-15.5 -16t-22.5 -5.5t-27.5 -0.5q-71 0 -128 -37t-97 -94t-61.5 -125t-21.5 -129
q0 -87 19.5 -158t59.5 -122t101.5 -78.5t145.5 -27.5q42 0 81 7.5t72.5 26t62.5 49t51 76.5q8 15 14.5 30.5t12.5 30.5q8 19 26 24t35 -1t27 -20.5t2 -34.5q-29 -59 -55.5 -104.5t-61.5 -77.5q-20 -19 -47 -36.5t-61 -31t-76 -21.5t-93 -8zM651 1643q0 -7 -6 -12t-15 -8.5
t-18.5 -5t-16.5 -1.5q-26 0 -61.5 19.5t-68 49.5t-55 66t-22.5 69t22 56.5t50 23.5q16 0 29 -7.5t22.5 -19t15 -25.5t5.5 -28q0 -9 -1.5 -16t-1.5 -17q0 -32 19 -53.5t42 -37.5t42 -28t19 -25z" />
    <glyph glyph-name="Eacute" unicode="&#xc9;" horiz-adv-x="819" 
d="M542 0q-95 0 -182 28t-154 86.5t-106.5 149.5t-39.5 216q0 73 22 140t62 124t96 100.5t124 68.5q-46 22 -85 53t-67.5 70.5t-45 87.5t-16.5 104q0 74 28 137.5t77 110.5t115.5 73.5t143.5 26.5q80 0 146 -16t106 -36q12 -6 17 -15t5 -20q0 -9 -4.5 -18.5t-11.5 -16
t-16 -9t-19 0.5q-72 25 -122 32t-83 7q-52 0 -92 -22.5t-67.5 -59t-42 -82.5t-14.5 -94q0 -46 14 -93.5t42 -86t68.5 -63t93.5 -24.5q38 0 54.5 -6.5t16.5 -38.5q0 -20 -5.5 -31t-15.5 -16t-22.5 -5.5t-27.5 -0.5q-71 0 -128 -37t-97 -94t-61.5 -125t-21.5 -129
q0 -87 19.5 -158t59.5 -122t101.5 -78.5t145.5 -27.5q42 0 81 7.5t72.5 26t62.5 49t51 76.5q8 15 14.5 30.5t12.5 30.5q8 19 26 24t35 -1t27 -20.5t2 -34.5q-29 -59 -55.5 -104.5t-61.5 -77.5q-20 -19 -47 -36.5t-61 -31t-76 -21.5t-93 -8zM463 1784q0 11 -2 19t-2 18
q0 14 5.5 28t15 25t23 18.5t28.5 7.5q14 0 27 -6.5t23 -17t16 -23.5t6 -27q0 -36 -17 -67.5t-43.5 -57.5t-57.5 -45.5t-59 -30.5q-21 -9 -34 -9q-6 0 -14.5 1.5t-17 5t-14.5 8.5t-6 12q6 16 26 29.5t41.5 28.5t38.5 34.5t17 48.5z" />
    <glyph glyph-name="Ecircumflex" unicode="&#xca;" horiz-adv-x="819" 
d="M542 0q-95 0 -182 28t-154 86.5t-106.5 149.5t-39.5 216q0 73 22 140t62 124t96 100.5t124 68.5q-46 22 -85 53t-67.5 70.5t-45 87.5t-16.5 104q0 74 28 137.5t77 110.5t115.5 73.5t143.5 26.5q80 0 146 -16t106 -36q12 -6 17 -15t5 -20q0 -9 -4.5 -18.5t-11.5 -16
t-16 -9t-19 0.5q-72 25 -122 32t-83 7q-52 0 -92 -22.5t-67.5 -59t-42 -82.5t-14.5 -94q0 -46 14 -93.5t42 -86t68.5 -63t93.5 -24.5q38 0 54.5 -6.5t16.5 -38.5q0 -20 -5.5 -31t-15.5 -16t-22.5 -5.5t-27.5 -0.5q-71 0 -128 -37t-97 -94t-61.5 -125t-21.5 -129
q0 -87 19.5 -158t59.5 -122t101.5 -78.5t145.5 -27.5q42 0 81 7.5t72.5 26t62.5 49t51 76.5q8 15 14.5 30.5t12.5 30.5q8 19 26 24t35 -1t27 -20.5t2 -34.5q-29 -59 -55.5 -104.5t-61.5 -77.5q-20 -19 -47 -36.5t-61 -31t-76 -21.5t-93 -8zM514 1808q-21 -22 -36 -39.5
t-31.5 -29.5t-39 -18.5t-57.5 -6.5q-6 0 -15 0.5t-17 3t-14 7.5t-6 14q0 20 26.5 47.5t62.5 52.5t72 43t55 18t55 -18t72 -43t62.5 -52.5t26.5 -47.5q0 -9 -6 -14t-14 -7.5t-17 -3t-15 -0.5q-35 0 -57.5 6.5t-39 18.5t-31.5 29.5t-36 39.5z" />
    <glyph glyph-name="Edieresis" unicode="&#xcb;" horiz-adv-x="819" 
d="M290 1810q0 -38 26 -64t64 -26t64 26t26 64t-26 64t-64 26t-64 -26t-26 -64zM545 1810q0 -38 26 -64t64 -26t64 26t26 64t-26 64t-64 26t-64 -26t-26 -64zM542 0q-95 0 -182 28t-154 86.5t-106.5 149.5t-39.5 216q0 73 22 140t62 124t96 100.5t124 68.5q-46 22 -85 53
t-67.5 70.5t-45 87.5t-16.5 104q0 74 28 137.5t77 110.5t115.5 73.5t143.5 26.5q80 0 146 -16t106 -36q12 -6 17 -15t5 -20q0 -9 -4.5 -18.5t-11.5 -16t-16 -9t-19 0.5q-72 25 -122 32t-83 7q-52 0 -92 -22.5t-67.5 -59t-42 -82.5t-14.5 -94q0 -46 14 -93.5t42 -86t68.5 -63
t93.5 -24.5q38 0 54.5 -6.5t16.5 -38.5q0 -20 -5.5 -31t-15.5 -16t-22.5 -5.5t-27.5 -0.5q-71 0 -128 -37t-97 -94t-61.5 -125t-21.5 -129q0 -87 19.5 -158t59.5 -122t101.5 -78.5t145.5 -27.5q42 0 81 7.5t72.5 26t62.5 49t51 76.5q8 15 14.5 30.5t12.5 30.5q8 19 26 24
t35 -1t27 -20.5t2 -34.5q-29 -59 -55.5 -104.5t-61.5 -77.5q-20 -19 -47 -36.5t-61 -31t-76 -21.5t-93 -8z" />
    <glyph glyph-name="Igrave" unicode="&#xcc;" horiz-adv-x="480" 
d="M410 1643q0 -7 -6 -12t-15 -8.5t-18.5 -5t-16.5 -1.5q-26 0 -61.5 19.5t-68 49.5t-55 66t-22.5 69t22 56.5t50 23.5q16 0 29 -7.5t22.5 -19t15 -25.5t5.5 -28q0 -9 -1.5 -16t-1.5 -17q0 -32 19 -53.5t42 -37.5t42 -28t19 -25zM362 100q0 -11 3 -15q1 -3 12.5 -6t26 -6
t28.5 -5.5t20 -4.5q9 -3 18.5 -12t9.5 -29v-4q-1 -2 -1.5 -4t-2.5 -4q-4 -3 -16 -5.5t-29 -3.5t-37 -1.5t-40 -0.5h-148q-19 0 -39.5 0.5t-37.5 1.5t-29 3.5t-16 5.5q-3 4 -3.5 8.5t-0.5 9.5q0 16 9.5 24t18.5 11q6 2 20 4.5t28.5 5.5t26 6t12.5 6q3 4 3 15v1376q0 11 -3 15
q-1 3 -12.5 6t-26 6t-28.5 5.5t-20 4.5q-9 3 -18.5 12t-9.5 29q0 2 1 4q0 5 3 8q4 3 16 5.5t29 3.5t37.5 1.5t39.5 0.5h148q20 0 40 -0.5t37 -1.5t29 -3.5t16 -5.5q3 -4 3.5 -8.5t0.5 -9.5q0 -16 -9.5 -24t-18.5 -11q-6 -2 -20 -4.5t-28.5 -5.5t-26 -6t-12.5 -6
q-3 -4 -3 -15v-1376z" />
    <glyph glyph-name="Iacute" unicode="&#xcd;" horiz-adv-x="480" 
d="M271 1784q0 11 -2 19t-2 18q0 14 5.5 28t15 25t23 18.5t28.5 7.5q14 0 27 -6.5t23 -17t16 -23.5t6 -27q0 -36 -17 -67.5t-43.5 -57.5t-57.5 -45.5t-59 -30.5q-21 -9 -34 -9q-6 0 -14.5 1.5t-17 5t-14.5 8.5t-6 12q6 16 26 29.5t41.5 28.5t38.5 34.5t17 48.5zM362 100
q0 -11 3 -15q1 -3 12.5 -6t26 -6t28.5 -5.5t20 -4.5q9 -3 18.5 -12t9.5 -29v-4q-1 -2 -1.5 -4t-2.5 -4q-4 -3 -16 -5.5t-29 -3.5t-37 -1.5t-40 -0.5h-148q-19 0 -39.5 0.5t-37.5 1.5t-29 3.5t-16 5.5q-3 4 -3.5 8.5t-0.5 9.5q0 16 9.5 24t18.5 11q6 2 20 4.5t28.5 5.5t26 6
t12.5 6q3 4 3 15v1376q0 11 -3 15q-1 3 -12.5 6t-26 6t-28.5 5.5t-20 4.5q-9 3 -18.5 12t-9.5 29q0 2 1 4q0 5 3 8q4 3 16 5.5t29 3.5t37.5 1.5t39.5 0.5h148q20 0 40 -0.5t37 -1.5t29 -3.5t16 -5.5q3 -4 3.5 -8.5t0.5 -9.5q0 -16 -9.5 -24t-18.5 -11q-6 -2 -20 -4.5
t-28.5 -5.5t-26 -6t-12.5 -6q-3 -4 -3 -15v-1376z" />
    <glyph glyph-name="Icircumflex" unicode="&#xce;" horiz-adv-x="497" 
d="M296 1808q-21 -22 -36 -39.5t-31.5 -29.5t-39 -18.5t-57.5 -6.5q-6 0 -15 0.5t-17 3t-14 7.5t-6 14q0 20 26.5 47.5t62.5 52.5t72 43t55 18t55 -18t72 -43t62.5 -52.5t26.5 -47.5q0 -9 -6 -14t-14 -7.5t-17 -3t-15 -0.5q-35 0 -57.5 6.5t-39 18.5t-31.5 29.5t-36 39.5z
M379 100q0 -11 3 -15q1 -3 12.5 -6t26 -6t28.5 -5.5t20 -4.5q9 -3 18.5 -12t9.5 -29v-4q-1 -2 -1.5 -4t-2.5 -4q-4 -3 -16 -5.5t-29 -3.5t-37 -1.5t-40 -0.5h-148q-19 0 -39.5 0.5t-37.5 1.5t-29 3.5t-16 5.5q-3 4 -3.5 8.5t-0.5 9.5q0 16 9.5 24t18.5 11q6 2 20 4.5
t28.5 5.5t26 6t12.5 6q3 4 3 15v1376q0 11 -3 15q-1 3 -12.5 6t-26 6t-28.5 5.5t-20 4.5q-9 3 -18.5 12t-9.5 29q0 2 1 4q0 5 3 8q4 3 16 5.5t29 3.5t37.5 1.5t39.5 0.5h148q20 0 40 -0.5t37 -1.5t29 -3.5t16 -5.5q3 -4 3.5 -8.5t0.5 -9.5q0 -16 -9.5 -24t-18.5 -11
q-6 -2 -20 -4.5t-28.5 -5.5t-26 -6t-12.5 -6q-3 -4 -3 -15v-1376z" />
    <glyph glyph-name="Idieresis" unicode="&#xcf;" horiz-adv-x="480" 
d="M80 1810q0 38 26 64t64 26t64 -26t26 -64t-26 -64t-64 -26t-64 26t-26 64zM300 1810q0 38 26 64t64 26t64 -26t26 -64t-26 -64t-64 -26t-64 26t-26 64zM362 100q0 -11 3 -15q1 -3 12.5 -6t26 -6t28.5 -5.5t20 -4.5q9 -3 18.5 -11t9.5 -24q0 -5 -0.5 -9.5t-3.5 -8.5
q-4 -3 -16 -5.5t-29 -3.5t-37 -1.5t-40 -0.5h-148q-19 0 -39.5 0.5t-37.5 1.5t-29 3.5t-16 5.5q-3 5 -3 8q-1 2 -1 4q0 20 9.5 29t18.5 12q6 2 20 4.5t28.5 5.5t26 6t12.5 6q3 4 3 15v1376q0 11 -3 15q-1 3 -12.5 6t-26 6t-28.5 5.5t-20 4.5q-9 3 -18.5 11t-9.5 24
q0 5 0.5 9.5t3.5 8.5q4 3 16 5.5t29 3.5t37.5 1.5t39.5 0.5h148q20 0 40 -0.5t37 -1.5t29 -3.5t16 -5.5q2 -2 4 -8v-4q0 -20 -9.5 -29t-18.5 -12q-6 -2 -20 -4.5t-28.5 -5.5t-26 -6t-12.5 -6q-3 -4 -3 -15v-1376z" />
    <glyph glyph-name="Ntilde" unicode="&#xd1;" horiz-adv-x="1288" 
d="M477 1423q31 78 94 115.5t148 37.5q89 0 149.5 -38t97.5 -98.5t53 -136.5t16 -153v-878q0 -15 1.5 -45t10 -60.5t27 -53t53.5 -22.5q26 0 48.5 13t42.5 35t37.5 51t32.5 60q8 15 14.5 30.5t12.5 30.5q8 19 26 24t35 -1t27 -20.5t2 -34.5q-29 -59 -55.5 -108t-61.5 -86
q-38 -41 -87 -63t-111 -22q-59 0 -101 24.5t-68.5 62t-39 83t-12.5 88.5v881q0 22 -2.5 56t-9 72.5t-18 77.5t-28.5 70t-40.5 50.5t-55.5 19.5t-56 -19.5t-41 -50.5t-28.5 -69.5t-18 -77.5t-9 -73t-2.5 -57v-1078q0 -27 -16.5 -43.5t-43.5 -16.5h-46q-27 0 -43.5 16.5
t-16.5 43.5v1078q0 23 -1.5 57t-7 73t-16 77.5t-28 69.5t-43.5 50.5t-62 19.5q-20 0 -66.5 -7.5t-118.5 -31.5q-10 -4 -19 -1t-16 9.5t-11.5 16t-4.5 18.5q0 11 5 20t17 15q40 20 94.5 36t123.5 16q49 0 85.5 -9.5t64 -28t48.5 -47.5t39 -68zM571 1763q-24 0 -43.5 -7.5
t-35.5 -16.5t-29 -16.5t-24 -7.5q-16 0 -21.5 16t-5.5 33q0 37 18 62.5t46 42t62.5 24t67.5 7.5q21 0 41.5 -8t41 -18t41 -19.5t40.5 -12.5q8 -2 15.5 -2h13.5h15q24 0 45.5 7.5t38.5 16t31 16t23 7.5q16 0 21 -16.5t5 -32.5q0 -37 -18.5 -63t-46.5 -42t-62 -23t-66 -7
q-28 0 -49.5 9.5t-44.5 20.5t-51 20.5t-69 9.5z" />
    <glyph glyph-name="Ograve" unicode="&#xd2;" horiz-adv-x="1087" 
d="M0 790q0 75 13 162.5t40 174.5t69 168.5t99.5 143.5t131 99.5t163.5 37.5q34 0 72.5 -2t75.5 -11.5t69 -28t52 -51.5q3 -5 6 -10.5t3 -11.5q0 -10 -7 -17t-18 -7q-16 0 -37 12.5t-38 20.5q-41 17 -81.5 24t-84.5 7q-74 0 -130 -38t-96.5 -99.5t-66.5 -139t-41.5 -157
t-21.5 -154t-6 -128.5q0 -53 8.5 -125.5t26 -149.5t45 -152t66.5 -134.5t89.5 -96t113.5 -36.5q64 0 114.5 37t89.5 96.5t67 135t45.5 152.5t26 149.5t8.5 125.5q0 68 -7 145.5t-28 151.5t-61 136.5t-106 99.5q-32 17 -63 25.5t-65 14.5q-3 1 -11.5 2.5t-17.5 4.5t-16 8
t-7 12q0 8 7.5 13t17.5 8t20 4t15 1q50 0 103.5 -14.5t104 -40.5t93.5 -60.5t71 -75.5q30 -44 52 -97t36.5 -110t21 -114.5t6.5 -110.5q0 -63 -8 -131.5t-24 -137t-40.5 -135t-57.5 -125.5q9 -5 18.5 -10.5t17.5 -8.5q14 -6 28.5 -9.5t20.5 -5.5q5 -1 16 -1.5t25 3t29.5 12
t29.5 24.5q8 9 15 20.5t12 25.5q8 19 26 24t35 -1t27 -20.5t2 -34.5q-21 -50 -52 -73.5t-65 -31.5q-38 -9 -70.5 -4.5t-44.5 8.5t-26.5 11t-25.5 13l-39 25q-32 -50 -70.5 -91.5t-84.5 -71.5t-99 -47t-114 -17q-90 0 -163 37.5t-130 100.5t-98.5 144.5t-68.5 169.5
t-40 175.5t-13 162.5zM650 1643q0 -7 -6 -12t-15 -8.5t-18.5 -5t-16.5 -1.5q-26 0 -61.5 19.5t-68 49.5t-55 66t-22.5 69t22 56.5t50 23.5q16 0 29 -7.5t22.5 -19t15 -25.5t5.5 -28q0 -9 -1.5 -16t-1.5 -17q0 -32 19 -53.5t42 -37.5t42 -28t19 -25z" />
    <glyph glyph-name="Oacute" unicode="&#xd3;" horiz-adv-x="1087" 
d="M0 790q0 75 13 162.5t40 174.5t69 168.5t99.5 143.5t131 99.5t163.5 37.5q34 0 72.5 -2t75.5 -11.5t69 -28t52 -51.5q3 -5 6 -10.5t3 -11.5q0 -10 -7 -17t-18 -7q-16 0 -37 12.5t-38 20.5q-41 17 -81.5 24t-84.5 7q-74 0 -130 -38t-96.5 -99.5t-66.5 -139t-41.5 -157
t-21.5 -154t-6 -128.5q0 -53 8.5 -125.5t26 -149.5t45 -152t66.5 -134.5t89.5 -96t113.5 -36.5q64 0 114.5 37t89.5 96.5t67 135t45.5 152.5t26 149.5t8.5 125.5q0 68 -7 145.5t-28 151.5t-61 136.5t-106 99.5q-32 17 -63 25.5t-65 14.5q-3 1 -11.5 2.5t-17.5 4.5t-16 8
t-7 12q0 8 7.5 13t17.5 8t20 4t15 1q50 0 103.5 -14.5t104 -40.5t93.5 -60.5t71 -75.5q30 -44 52 -97t36.5 -110t21 -114.5t6.5 -110.5q0 -63 -8 -131.5t-24 -137t-40.5 -135t-57.5 -125.5q9 -5 18.5 -10.5t17.5 -8.5q14 -6 28.5 -9.5t20.5 -5.5q5 -1 16 -1.5t25 3t29.5 12
t29.5 24.5q8 9 15 20.5t12 25.5q8 19 26 24t35 -1t27 -20.5t2 -34.5q-21 -50 -52 -73.5t-65 -31.5q-38 -9 -70.5 -4.5t-44.5 8.5t-26.5 11t-25.5 13l-39 25q-32 -50 -70.5 -91.5t-84.5 -71.5t-99 -47t-114 -17q-90 0 -163 37.5t-130 100.5t-98.5 144.5t-68.5 169.5
t-40 175.5t-13 162.5zM509 1784q0 11 -2 19t-2 18q0 14 5.5 28t15 25t23 18.5t28.5 7.5q14 0 27 -6.5t23 -17t16 -23.5t6 -27q0 -36 -17 -67.5t-43.5 -57.5t-57.5 -45.5t-59 -30.5q-21 -9 -34 -9q-6 0 -14.5 1.5t-17 5t-14.5 8.5t-6 12q6 16 26 29.5t41.5 28.5t38.5 34.5
t17 48.5z" />
    <glyph glyph-name="Ocircumflex" unicode="&#xd4;" horiz-adv-x="1087" 
d="M516 1576q72 0 137 -16t105 -36q12 -6 17 -15t5 -20q0 -22 -15.5 -35t-36.5 -8q-72 23 -122 31t-83 8q-74 0 -129.5 -37t-95.5 -96.5t-65.5 -135t-40 -153.5t-20.5 -151t-6 -127q0 -53 8.5 -125.5t26 -149.5t45 -152t66.5 -134.5t89.5 -96t113.5 -36.5q64 0 114.5 37
t89.5 96.5t67 135t45.5 152.5t26 149.5t8.5 125.5q0 68 -7 145.5t-28 151.5t-61 136.5t-106 99.5q-32 17 -63 25.5t-65 14.5q-3 1 -11.5 2.5t-17.5 4.5t-16 8t-7 12q0 8 7.5 13t17.5 8t20 4t15 1q50 0 103.5 -14.5t104 -40.5t93.5 -60.5t71 -75.5q30 -44 52 -97t36.5 -110
t21 -114.5t6.5 -110.5q0 -63 -8 -131.5t-24 -137t-40.5 -135t-57.5 -125.5q9 -5 18.5 -10.5t17.5 -8.5q14 -6 28.5 -9.5t20.5 -5.5q5 -1 16 -1.5t25 3t29.5 12t29.5 24.5q8 9 15 20.5t12 25.5q8 19 26 24t35 -1t27 -20.5t2 -34.5q-21 -50 -52 -73.5t-65 -31.5
q-38 -9 -70.5 -4.5t-44.5 8.5t-26.5 11t-25.5 13l-39 25q-32 -50 -70.5 -91.5t-84.5 -71.5t-99 -47t-114 -17q-90 0 -163 37.5t-130 100.5t-98.5 144.5t-68.5 169.5t-40 175.5t-13 162.5t13 162.5t40 174.5t69 168.5t99.5 143.5t131 99.5t163.5 37.5zM517 1808
q-21 -22 -36 -39.5t-31.5 -29.5t-39 -18.5t-57.5 -6.5q-6 0 -15 0.5t-17 3t-14 7.5t-6 14q0 20 26.5 47.5t62.5 52.5t72 43t55 18t55 -18t72 -43t62.5 -52.5t26.5 -47.5q0 -9 -6 -14t-14 -7.5t-17 -3t-15 -0.5q-35 0 -57.5 6.5t-39 18.5t-31.5 29.5t-36 39.5z" />
    <glyph glyph-name="Otilde" unicode="&#xd5;" horiz-adv-x="1087" 
d="M516 1576q72 0 137 -16t105 -36q12 -6 17 -15t5 -20q0 -22 -15.5 -35t-36.5 -8q-72 23 -122 31t-83 8q-74 0 -129.5 -37t-95.5 -96.5t-65.5 -135t-40 -153.5t-20.5 -151t-6 -127q0 -53 8.5 -125.5t26 -149.5t45 -152t66.5 -134.5t89.5 -96t113.5 -36.5q64 0 114.5 37
t89.5 96.5t67 135t45.5 152.5t26 149.5t8.5 125.5q0 68 -7 145.5t-28 151.5t-61 136.5t-106 99.5q-32 17 -63 25.5t-65 14.5q-3 1 -11.5 2.5t-17.5 4.5t-16 8t-7 12q0 8 7.5 13t17.5 8t20 4t15 1q50 0 103.5 -14.5t104 -40.5t93.5 -60.5t71 -75.5q30 -44 52 -97t36.5 -110
t21 -114.5t6.5 -110.5q0 -63 -8 -131.5t-24 -137t-40.5 -135t-57.5 -125.5q9 -5 18.5 -10.5t17.5 -8.5q14 -6 28.5 -9.5t20.5 -5.5q5 -1 16 -1.5t25 3t29.5 12t29.5 24.5q8 9 15 20.5t12 25.5q8 19 26 24t35 -1t27 -20.5t2 -34.5q-21 -50 -52 -73.5t-65 -31.5
q-38 -9 -70.5 -4.5t-44.5 8.5t-26.5 11t-25.5 13l-39 25q-32 -50 -70.5 -91.5t-84.5 -71.5t-99 -47t-114 -17q-90 0 -163 37.5t-130 100.5t-98.5 144.5t-68.5 169.5t-40 175.5t-13 162.5t13 162.5t40 174.5t69 168.5t99.5 143.5t131 99.5t163.5 37.5zM393 1763
q-24 0 -43.5 -7.5t-35.5 -16.5t-29 -16.5t-24 -7.5q-16 0 -21.5 16t-5.5 33q0 37 18 62.5t46 42t62.5 24t67.5 7.5q21 0 41.5 -8t41 -18t41 -19.5t40.5 -12.5q8 -2 15.5 -2h13.5h15q24 0 45.5 7.5t38.5 16t31 16t23 7.5q16 0 21 -16.5t5 -32.5q0 -37 -18.5 -63t-46.5 -42
t-62 -23t-66 -7q-28 0 -49.5 9.5t-44.5 20.5t-51 20.5t-69 9.5z" />
    <glyph glyph-name="Odieresis" unicode="&#xd6;" horiz-adv-x="1087" 
d="M516 1576q72 0 137 -16t105 -36q12 -6 17 -15t5 -20q0 -22 -15.5 -35t-36.5 -8q-72 23 -122 31t-83 8q-74 0 -129.5 -37t-95.5 -96.5t-65.5 -135t-40 -153.5t-20.5 -151t-6 -127q0 -53 8.5 -125.5t26 -149.5t45 -152t66.5 -134.5t89.5 -96t113.5 -36.5q64 0 114.5 37
t89.5 96.5t67 135t45.5 152.5t26 149.5t8.5 125.5q0 68 -7 145.5t-28 151.5t-61 136.5t-106 99.5q-32 17 -63 25.5t-65 14.5q-3 1 -11.5 2.5t-17.5 4.5t-16 8t-7 12q0 8 7.5 13t17.5 8t20 4t15 1q50 0 103.5 -14.5t104 -40.5t93.5 -60.5t71 -75.5q30 -44 52 -97t36.5 -110
t21 -114.5t6.5 -110.5q0 -63 -8 -131.5t-24 -137t-40.5 -135t-57.5 -125.5q21 -12 41.5 -20t43.5 -14q5 -1 16 -1.5t25 3t29.5 12t29.5 24.5q8 9 15 20.5t12 25.5t16.5 20t24.5 6q19 0 35.5 -11.5t16.5 -30.5q0 -8 -3 -16q-47 -110 -165 -110q-37 0 -62 8t-57 25l-39 25
q-32 -50 -70.5 -91.5t-84.5 -71.5t-99 -47t-114 -17q-90 0 -163 37.5t-130 100.5t-98.5 144.5t-68.5 169.5t-40 175.5t-13 162.5t13 162.5t40 174.5t69 168.5t99.5 143.5t131 99.5t163.5 37.5zM626 1900q38 0 64 -26t26 -64t-26 -64t-64 -26t-64 26t-26 64t26 64t64 26z
M301 1810q0 38 26 64t64 26t64 -26t26 -64t-26 -64t-64 -26t-64 26t-26 64z" />
    <glyph glyph-name="Oslash" unicode="&#xd8;" horiz-adv-x="1087" 
d="M383 23l-17 -59q-3 -10 -7 -20.5t-10 -19t-14.5 -14t-20.5 -5.5q-15 0 -34.5 3.5t-37 12t-29 22t-11.5 33.5q0 16 6 34l31 108q-62 62 -107 145t-74.5 174.5t-43.5 183t-14 169.5q0 75 13 162.5t40 174.5t69 168.5t99.5 143.5t131 99.5t163.5 37.5q38 0 74 -4.5t69 -12.5
l15 53q6 21 17.5 39.5t41.5 18.5q12 0 30 -4t34.5 -12.5t28.5 -22t12 -33.5q0 -14 -5 -32l-63 -218q45 -25 82.5 -57t63.5 -69q30 -44 52 -97t36.5 -110t21 -114.5t6.5 -110.5q0 -63 -8 -131.5t-24 -137t-40.5 -135t-57.5 -125.5q21 -12 41.5 -20t43.5 -14q5 -1 16 -1.5
t25 3t29.5 12t29.5 24.5q8 9 15 20.5t12 25.5t16.5 20t24.5 6q19 0 35.5 -11.5t16.5 -30.5q0 -8 -3 -16q-47 -110 -165 -110q-37 0 -62 8t-57 25l-39 25q-32 -50 -70.5 -91.5t-84.5 -71.5t-99 -47t-114 -17q-69 0 -130 23zM166 785q0 -48 7 -112t21 -133.5t36.5 -139
t53.5 -129.5l313 1076q-15 4 -30 7t-31 6q-3 1 -11.5 2.5t-17.5 4.5t-16 8t-7 12q0 8 7.5 13t17.5 8t20 4t15 1q36 0 70 -7l19 65q-35 8 -62 11t-48 3q-74 0 -129.5 -37t-95.5 -96.5t-65.5 -135t-40 -153.5t-20.5 -151t-6 -127zM515 91q64 0 114.5 37t89.5 96.5t67 135
t45.5 152.5t26 149.5t8.5 125.5q0 56 -4.5 119.5t-17.5 126t-37.5 120.5t-63.5 103l-331 -1135q23 -14 48.5 -22t54.5 -8z" />
    <glyph glyph-name="Ugrave" unicode="&#xd9;" horiz-adv-x="1159" 
d="M787 99q-29 -35 -63 -55t-71.5 -29.5t-78.5 -12t-84 -2.5q-105 0 -182 35.5t-131.5 95.5t-89 139t-54 166.5t-26.5 178t-7 172.5v729q0 27 16.5 43.5t43.5 16.5h46q27 0 43.5 -16.5t16.5 -43.5v-729q0 -37 2.5 -86.5t9 -105.5t17.5 -115t28 -115t41.5 -106t57 -87
t74.5 -59t95 -22q49 0 93 16.5t77.5 46.5t53 71.5t19.5 90.5v1200q0 27 16.5 43.5t43.5 16.5h46q27 0 43.5 -16.5t16.5 -43.5v-1314q0 -10 1.5 -28.5t8 -37t20 -32t36.5 -13.5q38 0 67 13t52 35t41 51t33 60q8 15 14.5 30.5t12.5 30.5q8 19 26 24t35 -1t27 -20.5t2 -34.5
q-29 -59 -55.5 -108t-61.5 -86q-38 -41 -87 -63t-111 -22q-70 0 -112 28t-62 71zM591 1643q0 -7 -6 -12t-15 -8.5t-18.5 -5t-16.5 -1.5q-26 0 -61.5 19.5t-68 49.5t-55 66t-22.5 69t22 56.5t50 23.5q16 0 29 -7.5t22.5 -19t15 -25.5t5.5 -28q0 -9 -1.5 -16t-1.5 -17
q0 -32 19 -53.5t42 -37.5t42 -28t19 -25z" />
    <glyph glyph-name="Uacute" unicode="&#xda;" horiz-adv-x="1159" 
d="M787 99q-29 -35 -63 -55t-71.5 -29.5t-78.5 -12t-84 -2.5q-105 0 -182 35.5t-131.5 95.5t-89 139t-54 166.5t-26.5 178t-7 172.5v729q0 27 16.5 43.5t43.5 16.5h46q27 0 43.5 -16.5t16.5 -43.5v-729q0 -37 2.5 -86.5t9 -105.5t17.5 -115t28 -115t41.5 -106t57 -87
t74.5 -59t95 -22q49 0 93 16.5t77.5 46.5t53 71.5t19.5 90.5v1200q0 27 16.5 43.5t43.5 16.5h46q27 0 43.5 -16.5t16.5 -43.5v-1314q0 -10 1.5 -28.5t8 -37t20 -32t36.5 -13.5q38 0 67 13t52 35t41 51t33 60q8 15 14.5 30.5t12.5 30.5q8 19 26 24t35 -1t27 -20.5t2 -34.5
q-29 -59 -55.5 -108t-61.5 -86q-38 -41 -87 -63t-111 -22q-70 0 -112 28t-62 71zM450 1784q0 11 -2 19t-2 18q0 14 5.5 28t15 25t23 18.5t28.5 7.5q14 0 27 -6.5t23 -17t16 -23.5t6 -27q0 -36 -17 -67.5t-43.5 -57.5t-57.5 -45.5t-59 -30.5q-21 -9 -34 -9q-6 0 -14.5 1.5
t-17 5t-14.5 8.5t-6 12q6 16 26 29.5t41.5 28.5t38.5 34.5t17 48.5z" />
    <glyph glyph-name="Ucircumflex" unicode="&#xdb;" horiz-adv-x="1159" 
d="M787 99q-29 -35 -63 -55t-71.5 -29.5t-78.5 -12t-84 -2.5q-105 0 -182 35.5t-131.5 95.5t-89 139t-54 166.5t-26.5 178t-7 172.5v729q0 27 16.5 43.5t43.5 16.5h46q27 0 43.5 -16.5t16.5 -43.5v-729q0 -37 2.5 -86.5t9 -105.5t17.5 -115t28 -115t41.5 -106t57 -87
t74.5 -59t95 -22q49 0 93 16.5t77.5 46.5t53 71.5t19.5 90.5v1200q0 27 16.5 43.5t43.5 16.5h46q27 0 43.5 -16.5t16.5 -43.5v-1314q0 -10 1.5 -28.5t8 -37t20 -32t36.5 -13.5q38 0 67 13t52 35t41 51t33 60q8 15 14.5 30.5t12.5 30.5q8 19 26 24t35 -1t27 -20.5t2 -34.5
q-29 -59 -55.5 -108t-61.5 -86q-38 -41 -87 -63t-111 -22q-70 0 -112 28t-62 71zM462 1807q-21 -22 -36 -39.5t-31.5 -29.5t-39 -18.5t-57.5 -6.5q-6 0 -15 0.5t-17 3t-14 7.5t-6 14q0 20 26.5 47.5t62.5 52.5t72 43t55 18t55 -18t72 -43t62.5 -52.5t26.5 -47.5q0 -9 -6 -14
t-14 -7.5t-17 -3t-15 -0.5q-35 0 -57.5 6.5t-39 18.5t-31.5 29.5t-36 39.5z" />
    <glyph glyph-name="Udieresis" unicode="&#xdc;" horiz-adv-x="1159" 
d="M0 787v729q0 27 16.5 43.5t43.5 16.5h46q27 0 43.5 -16.5t16.5 -43.5v-729q0 -37 2.5 -86.5t9 -105.5t17.5 -115t28 -115t41.5 -106t57 -87t74.5 -59t95 -22q49 0 93 16.5t77.5 46.5t53 71.5t19.5 90.5v1200q0 27 16.5 43.5t43.5 16.5h46q27 0 43.5 -16.5t16.5 -43.5
v-1314q0 -10 1.5 -28.5t8 -37t20 -32t36.5 -13.5q46 0 80.5 20.5t60.5 52.5t45 71t34 76q6 14 17 20t24 6q20 0 36 -11.5t16 -30.5q0 -7 -3 -16q-29 -59 -55.5 -108t-61.5 -86q-38 -41 -87 -63t-111 -22q-70 0 -112 28t-62 71q-29 -35 -63 -55t-71.5 -29.5t-78.5 -12
t-84 -2.5q-105 0 -182 35.5t-131.5 95.5t-89 139t-54 166.5t-26.5 178t-7 172.5zM818 1794q38 0 64 -26t26 -64t-26 -64t-64 -26t-64 26t-26 64t26 64t64 26zM-8 1704q0 38 26 64t64 26t64 -26t26 -64t-26 -64t-64 -26t-64 26t-26 64z" />
    <glyph glyph-name="Yacute" unicode="&#xdd;" horiz-adv-x="1247" 
d="M909 -110q-38 -31 -58.5 -64t-29.5 -69.5t-10.5 -77t-1.5 -85.5q0 -9 0.5 -28t2.5 -43t5.5 -49.5t10 -46.5t15.5 -34.5t21 -13.5q15 0 24 19.5t13.5 44.5t6 49.5t1.5 35.5v362zM674 0q-66 0 -119.5 29.5t-96.5 80t-76 117t-58 141.5t-42.5 153t-29 151.5t-17.5 137
t-8 109.5q-1 27 -3 69.5t-4.5 93t-4.5 105t-4 105t-3 92.5t-1 68q0 17 -4 24.5t-21 7.5q-12 0 -21.5 -1.5t-23.5 -6t-35 -12t-57 -18.5q-18 -5 -31.5 12t-13.5 37q0 9 3.5 16.5t12.5 12.5q40 20 106.5 36t146.5 16q21 0 39 -2t32 -9.5t22 -22.5t9 -42q1 -22 3 -61.5
t4.5 -86.5t5.5 -98.5t6 -98t5.5 -84t3.5 -58.5q2 -35 5 -93.5t8.5 -130t14 -151t22 -157t33 -148.5t47 -124.5t63.5 -85.5t82 -32q52 0 89.5 37t63.5 95t42 130t25 142t12 130.5t3 96.5v794q0 27 16.5 43.5t43.5 16.5h46q27 0 43.5 -16.5t16.5 -43.5v-1447q61 35 101 78
t71 103q8 15 14.5 30.5t12.5 30.5q8 19 26 24t35 -1t27 -20.5t2 -34.5q-8 -19 -17.5 -36t-18.5 -34q-19 -35 -38.5 -65t-42.5 -55q-19 -20 -35 -35t-35 -28.5t-43 -28t-59 -33.5v-344q0 -51 -9 -106.5t-32 -101.5t-63.5 -76t-103.5 -30q-65 0 -106.5 31.5t-65 79
t-32.5 104.5t-9 108q0 63 19 118t53 100.5t81 82t102 62.5v157q-19 -26 -45.5 -52.5t-57 -48t-64 -35t-68.5 -13.5zM626 1784q0 11 -2 19t-2 18q0 14 5.5 28t15 25t23 18.5t28.5 7.5q14 0 27 -6.5t23 -17t16 -23.5t6 -27q0 -36 -17 -67.5t-43.5 -57.5t-57.5 -45.5t-59 -30.5
q-21 -9 -34 -9q-6 0 -14.5 1.5t-17 5t-14.5 8.5t-6 12q6 16 26 29.5t41.5 28.5t38.5 34.5t17 48.5z" />
    <glyph glyph-name="agrave" unicode="&#xe0;" horiz-adv-x="909" 
d="M166 485q0 -25 3 -64t11 -82.5t20.5 -88t32 -80t46 -57.5t61.5 -22q34 0 60 21t45 55t32.5 76.5t21.5 85.5t11.5 83t3.5 68t-3.5 67.5t-11.5 83t-21.5 86t-32.5 76.5t-45 55t-60 21t-60 -21t-45.5 -55t-32.5 -76.5t-21 -85t-11.5 -81.5t-3.5 -65zM745 91q26 0 49 13
t43.5 35t38.5 51t33 60q8 15 14.5 30.5t12.5 30.5q8 19 26 24t35 -1t27 -20.5t2 -34.5q-10 -19 -18.5 -36.5t-17.5 -34.5q-19 -37 -38.5 -67t-42.5 -56q-34 -36 -80 -60.5t-115 -24.5q-25 0 -48.5 9.5t-43.5 25t-35.5 36.5t-24.5 45q-45 -50 -99 -83t-125 -33
q-57 0 -104.5 22t-85 59.5t-65.5 86t-46.5 102t-27.5 108t-9 102.5q0 52 7 102.5t23 98.5q17 52 46 102t68.5 89.5t88.5 63.5t107 24q50 0 93 -18t81 -50q0 24 5 37.5t15 20.5t25 8.5t34 1.5q23 0 39.5 -2t27 -9.5t15.5 -22t5 -40.5v-614q0 -17 1 -47.5t7 -60t19.5 -51.5
t37.5 -22zM505 1093q0 -7 -6 -12t-15 -8.5t-18.5 -5t-16.5 -1.5q-26 0 -61.5 19.5t-68 49.5t-55 66t-22.5 69t22 56.5t50 23.5q16 0 29 -7.5t22.5 -19t15 -25.5t5.5 -28q0 -9 -1.5 -16t-1.5 -17q0 -32 19 -53.5t42 -37.5t42 -28t19 -25z" />
    <glyph glyph-name="aacute" unicode="&#xe1;" horiz-adv-x="909" 
d="M166 485q0 -25 3 -64t11 -82.5t20.5 -88t32 -80t46 -57.5t61.5 -22q34 0 60 21t45 55t32.5 76.5t21.5 85.5t11.5 83t3.5 68t-3.5 67.5t-11.5 83t-21.5 86t-32.5 76.5t-45 55t-60 21t-60 -21t-45.5 -55t-32.5 -76.5t-21 -85t-11.5 -81.5t-3.5 -65zM745 91q26 0 49 13
t43.5 35t38.5 51t33 60q8 15 14.5 30.5t12.5 30.5q8 19 26 24t35 -1t27 -20.5t2 -34.5q-10 -19 -18.5 -36.5t-17.5 -34.5q-19 -37 -38.5 -67t-42.5 -56q-34 -36 -80 -60.5t-115 -24.5q-25 0 -48.5 9.5t-43.5 25t-35.5 36.5t-24.5 45q-45 -50 -99 -83t-125 -33
q-57 0 -104.5 22t-85 59.5t-65.5 86t-46.5 102t-27.5 108t-9 102.5q0 52 7 102.5t23 98.5q17 52 46 102t68.5 89.5t88.5 63.5t107 24q50 0 93 -18t81 -50q0 24 5 37.5t15 20.5t25 8.5t34 1.5q23 0 39.5 -2t27 -9.5t15.5 -22t5 -40.5v-614q0 -17 1 -47.5t7 -60t19.5 -51.5
t37.5 -22zM344 1234q0 11 -2 19t-2 18q0 14 5.5 28t15 25t23 18.5t28.5 7.5q14 0 27 -6.5t23 -17t16 -23.5t6 -27q0 -36 -17 -67.5t-43.5 -57.5t-57.5 -45.5t-59 -30.5q-21 -9 -34 -9q-6 0 -14.5 1.5t-17 5t-14.5 8.5t-6 12q6 16 26 29.5t41.5 28.5t38.5 34.5t17 48.5z" />
    <glyph glyph-name="acircumflex" unicode="&#xe2;" horiz-adv-x="909" 
d="M166 485q0 -25 3 -64t11 -82.5t20.5 -88t32 -80t46 -57.5t61.5 -22q34 0 60 21t45 55t32.5 76.5t21.5 85.5t11.5 83t3.5 68t-3.5 67.5t-11.5 83t-21.5 86t-32.5 76.5t-45 55t-60 21t-60 -21t-45.5 -55t-32.5 -76.5t-21 -85t-11.5 -81.5t-3.5 -65zM745 91q26 0 49 13
t43.5 35t38.5 51t33 60q8 15 14.5 30.5t12.5 30.5q8 19 26 24t35 -1t27 -20.5t2 -34.5q-10 -19 -18.5 -36.5t-17.5 -34.5q-19 -37 -38.5 -67t-42.5 -56q-34 -36 -80 -60.5t-115 -24.5q-25 0 -48.5 9.5t-43.5 25t-35.5 36.5t-24.5 45q-45 -50 -99 -83t-125 -33
q-57 0 -104.5 22t-85 59.5t-65.5 86t-46.5 102t-27.5 108t-9 102.5q0 52 7 102.5t23 98.5q17 52 46 102t68.5 89.5t88.5 63.5t107 24q50 0 93 -18t81 -50q0 24 5 37.5t15 20.5t25 8.5t34 1.5q23 0 39.5 -2t27 -9.5t15.5 -22t5 -40.5v-614q0 -17 1 -47.5t7 -60t19.5 -51.5
t37.5 -22zM391 1208q-21 -22 -36 -39.5t-31.5 -29.5t-39 -18.5t-57.5 -6.5q-6 0 -15 0.5t-17 3t-14 7.5t-6 14q0 20 26.5 47.5t62.5 52.5t72 43t55 18t55 -18t72 -43t62.5 -52.5t26.5 -47.5q0 -9 -6 -14t-14 -7.5t-17 -3t-15 -0.5q-35 0 -57.5 6.5t-39 18.5t-31.5 29.5
t-36 39.5z" />
    <glyph glyph-name="atilde" unicode="&#xe3;" horiz-adv-x="909" 
d="M166 485q0 -25 3 -64t11 -82.5t20.5 -88t32 -80t46 -57.5t61.5 -22q34 0 60 21t45 55t32.5 76.5t21.5 85.5t11.5 83t3.5 68t-3.5 67.5t-11.5 83t-21.5 86t-32.5 76.5t-45 55t-60 21t-60 -21t-45.5 -55t-32.5 -76.5t-21 -85t-11.5 -81.5t-3.5 -65zM745 91q26 0 49 13
t43.5 35t38.5 51t33 60q8 15 14.5 30.5t12.5 30.5q8 19 26 24t35 -1t27 -20.5t2 -34.5q-10 -19 -18.5 -36.5t-17.5 -34.5q-19 -37 -38.5 -67t-42.5 -56q-34 -36 -80 -60.5t-115 -24.5q-25 0 -48.5 9.5t-43.5 25t-35.5 36.5t-24.5 45q-45 -50 -99 -83t-125 -33
q-57 0 -104.5 22t-85 59.5t-65.5 86t-46.5 102t-27.5 108t-9 102.5q0 52 7 102.5t23 98.5q17 52 46 102t68.5 89.5t88.5 63.5t107 24q50 0 93 -18t81 -50q0 24 5 37.5t15 20.5t25 8.5t34 1.5q23 0 39.5 -2t27 -9.5t15.5 -22t5 -40.5v-614q0 -17 1 -47.5t7 -60t19.5 -51.5
t37.5 -22zM254 1163q-24 0 -43.5 -7.5t-35.5 -16.5t-29 -16.5t-24 -7.5q-16 0 -21.5 16t-5.5 33q0 37 18 62.5t46 42t62.5 24t67.5 7.5q21 0 41.5 -8t41 -18t41 -19.5t40.5 -12.5q8 -2 15.5 -2h13.5h15q24 0 45.5 7.5t38.5 16t31 16t23 7.5q16 0 21 -16.5t5 -32.5
q0 -37 -18.5 -63t-46.5 -42t-62 -23t-66 -7q-28 0 -49.5 9.5t-44.5 20.5t-51 20.5t-69 9.5z" />
    <glyph glyph-name="adieresis" unicode="&#xe4;" horiz-adv-x="909" 
d="M0 480q0 52 7 102.5t23 98.5q17 52 46 102t68.5 89.5t88.5 63.5t107 24q50 0 93 -18t81 -50q0 24 5 37.5t15 20.5t25 8.5t34 1.5q23 0 39.5 -2t27 -9.5t15.5 -22t5 -40.5v-614q0 -17 1 -47.5t7 -60t19.5 -51.5t37.5 -22q35 0 65 23.5t54 57t42 71.5t30 68q6 14 17 20
t24 6q20 0 36 -11.5t16 -30.5q0 -7 -3 -16q-10 -19 -18.5 -36.5t-17.5 -34.5q-22 -43 -48 -81t-58.5 -66.5t-74 -44.5t-95.5 -16q-25 0 -48.5 9.5t-43.5 25t-35.5 36.5t-24.5 45q-45 -50 -99 -83t-125 -33q-57 0 -104.5 22t-85 59.5t-65.5 86t-46.5 102t-27.5 108t-9 102.5z
M166 485q0 -25 3 -64t11 -82.5t20.5 -88t32 -80t46 -57.5t61.5 -22q34 0 60 21t45 55t32.5 76.5t21.5 85.5t11.5 83t3.5 68t-3.5 67.5t-11.5 83t-21.5 86t-32.5 76.5t-45 55t-60 21t-60 -21t-45.5 -55t-32.5 -76.5t-21 -85t-11.5 -81.5t-3.5 -65zM414 1210q0 38 26 64t64 26
t64 -26t26 -64t-26 -64t-64 -26t-64 26t-26 64zM269 1300q38 0 64 -26t26 -64t-26 -64t-64 -26t-64 26t-26 64t26 64t64 26z" />
    <glyph glyph-name="aring" unicode="&#xe5;" horiz-adv-x="909" 
d="M166 485q0 -25 3 -64t11 -82.5t20.5 -88t32 -80t46 -57.5t61.5 -22q34 0 60 21t45 55t32.5 76.5t21.5 85.5t11.5 83t3.5 68t-3.5 67.5t-11.5 83t-21.5 86t-32.5 76.5t-45 55t-60 21t-60 -21t-45.5 -55t-32.5 -76.5t-21 -85t-11.5 -81.5t-3.5 -65zM745 91q26 0 49 13
t43.5 35t38.5 51t33 60q8 15 14.5 30.5t12.5 30.5q8 19 26 24t35 -1t27 -20.5t2 -34.5q-10 -19 -18.5 -36.5t-17.5 -34.5q-19 -37 -38.5 -67t-42.5 -56q-34 -36 -80 -60.5t-115 -24.5q-25 0 -48.5 9.5t-43.5 25t-35.5 36.5t-24.5 45q-45 -50 -99 -83t-125 -33
q-57 0 -104.5 22t-85 59.5t-65.5 86t-46.5 102t-27.5 108t-9 102.5q0 52 7 102.5t23 98.5q17 52 46 102t68.5 89.5t88.5 63.5t107 24q50 0 93 -18t81 -50q0 24 5 37.5t15 20.5t25 8.5t34 1.5q23 0 39.5 -2t27 -9.5t15.5 -22t5 -40.5v-614q0 -17 1 -47.5t7 -60t19.5 -51.5
t37.5 -22zM304 1152q0 -29 19 -49t48 -20t49 20t20 49t-19.5 48.5t-48.5 19.5t-48.5 -19.5t-19.5 -48.5zM220 1152q0 31 12 58.5t32 48.5t48 33t59 12t58.5 -12t48.5 -33t33 -48.5t12 -58.5t-12 -59t-33 -48t-48.5 -32t-58.5 -12t-59 12t-48 32t-32 48t-12 59z" />
    <glyph glyph-name="ccedilla" unicode="&#xe7;" horiz-adv-x="707" 
d="M566 908q16 -13 16 -32.5t-9 -34t-24.5 -20t-31.5 8.5q-10 6 -21.5 13t-28.5 12.5t-41 9.5t-59 4q-42 0 -73 -22t-53.5 -57t-37 -79.5t-23 -90t-11.5 -87.5t-3 -72q0 -41 9 -84.5t26 -84.5t42.5 -77.5t58.5 -64t73.5 -43.5t87.5 -16q50 0 88 11.5t67 32.5t51 50.5
t38 64.5q7 15 13.5 30t13.5 31q8 19 26 24t35 -1t27 -20.5t2 -34.5q-18 -40 -36 -75q-17 -33 -36 -61t-45 -54q-17 -17 -44 -33t-61 -28.5t-73.5 -20t-80.5 -7.5q-102 0 -184.5 35.5t-141 98t-90.5 146.5t-32 181q0 58 8 117.5t25.5 115t46 104t69 84.5t94 57t121.5 21
q24 0 52 -2t55.5 -8t52 -16t42.5 -26zM376 23h150v-81q0 -16 12.5 -23t31.5 -12t41 -10.5t41 -19t31.5 -38.5t12.5 -68q0 -52 -29.5 -88t-73.5 -58.5t-94.5 -32.5t-92.5 -10q-13 0 -42.5 1t-59.5 6t-52.5 15.5t-22.5 29.5q0 8 0.5 17.5t3.5 18t8.5 14.5t15.5 6q12 0 27 -8.5
t33 -18.5t39.5 -18.5t47.5 -8.5q25 0 48 9t40.5 24.5t28 37t10.5 46.5q0 42 -11.5 60.5t-28.5 24.5t-37.5 5.5t-37.5 3t-28.5 18t-11.5 50.5v108z" />
    <glyph glyph-name="egrave" unicode="&#xe8;" horiz-adv-x="709" 
d="M481 1104q0 -7 -6 -12t-15 -8.5t-18.5 -5t-16.5 -1.5q-26 0 -61.5 19.5t-68 49.5t-55 66t-22.5 69t22 56.5t50 23.5q16 0 29 -7.5t22.5 -19t15 -25.5t5.5 -28q0 -9 -1.5 -16t-1.5 -17q0 -32 19 -53.5t42 -37.5t42 -28t19 -25zM318 869q-33 0 -57 -22.5t-41 -58.5
t-27.5 -81t-16.5 -88.5t-8 -81.5t-2 -61q0 -8 0.5 -16t2.5 -16q48 26 97 43t102 29q23 6 41.5 11.5t31 15.5t19 25.5t6.5 41.5q0 19 -3.5 45.5t-11.5 55.5t-20 57t-28 50.5t-37.5 36.5t-47.5 14zM465 91q50 0 88 11.5t67 32.5t51 50.5t38 64.5q7 15 13.5 30t13.5 31
q8 19 26 24t35 -1t27 -20.5t2 -34.5q-18 -40 -36 -75q-17 -32 -36 -60.5t-45 -54.5q-17 -16 -44 -32t-61 -29t-73.5 -20.5t-80.5 -7.5q-107 0 -191 37t-141.5 100.5t-87.5 150t-30 185.5q0 49 8 104t24 109t41.5 104t61 87.5t81 60t102.5 22.5q67 0 121 -30.5t92 -80
t58.5 -110.5t20.5 -123q0 -64 -21 -102.5t-55.5 -60.5t-79 -32t-92 -18.5t-94.5 -19.5t-85 -35q8 -52 31 -98.5t59.5 -82t85 -56t106.5 -20.5z" />
    <glyph glyph-name="eacute" unicode="&#xe9;" horiz-adv-x="709" 
d="M318 869q-33 0 -57 -22.5t-41 -58.5t-27.5 -81t-16.5 -88.5t-8 -81.5t-2 -61q0 -8 0.5 -16t2.5 -16q48 26 97 43t102 29q23 6 41.5 11.5t31 15.5t19 25.5t6.5 41.5q0 19 -3.5 45.5t-11.5 55.5t-20 57t-28 50.5t-37.5 36.5t-47.5 14zM465 91q50 0 88 11.5t67 32.5t51 50.5
t38 64.5q7 15 13.5 30t13.5 31q8 19 26 24t35 -1t27 -20.5t2 -34.5q-18 -40 -36 -75q-17 -32 -36 -60.5t-45 -54.5q-17 -16 -44 -32t-61 -29t-73.5 -20.5t-80.5 -7.5q-107 0 -191 37t-141.5 100.5t-87.5 150t-30 185.5q0 49 8 104t24 109t41.5 104t61 87.5t81 60t102.5 22.5
q67 0 121 -30.5t92 -80t58.5 -110.5t20.5 -123q0 -64 -21 -102.5t-55.5 -60.5t-79 -32t-92 -18.5t-94.5 -19.5t-85 -35q8 -52 31 -98.5t59.5 -82t85 -56t106.5 -20.5zM342 1234q0 11 -2 19t-2 18q0 14 5.5 28t15 25t23 18.5t28.5 7.5q14 0 27 -6.5t23 -17t16 -23.5t6 -27
q0 -36 -17 -67.5t-43.5 -57.5t-57.5 -45.5t-59 -30.5q-21 -9 -34 -9q-6 0 -14.5 1.5t-17 5t-14.5 8.5t-6 12q6 16 26 29.5t41.5 28.5t38.5 34.5t17 48.5z" />
    <glyph glyph-name="ecircumflex" unicode="&#xea;" horiz-adv-x="709" 
d="M318 869q-33 0 -57 -22.5t-41 -58.5t-27.5 -81t-16.5 -88.5t-8 -81.5t-2 -61q0 -8 0.5 -16t2.5 -16q48 26 97 43t102 29q23 6 41.5 11.5t31 15.5t19 25.5t6.5 41.5q0 19 -3.5 45.5t-11.5 55.5t-20 57t-28 50.5t-37.5 36.5t-47.5 14zM465 91q50 0 88 11.5t67 32.5t51 50.5
t38 64.5q7 15 13.5 30t13.5 31q8 19 26 24t35 -1t27 -20.5t2 -34.5q-18 -40 -36 -75q-17 -32 -36 -60.5t-45 -54.5q-17 -16 -44 -32t-61 -29t-73.5 -20.5t-80.5 -7.5q-107 0 -191 37t-141.5 100.5t-87.5 150t-30 185.5q0 49 8 104t24 109t41.5 104t61 87.5t81 60t102.5 22.5
q67 0 121 -30.5t92 -80t58.5 -110.5t20.5 -123q0 -64 -21 -102.5t-55.5 -60.5t-79 -32t-92 -18.5t-94.5 -19.5t-85 -35q8 -52 31 -98.5t59.5 -82t85 -56t106.5 -20.5zM362 1208q-21 -22 -36 -39.5t-31.5 -29.5t-39 -18.5t-57.5 -6.5q-6 0 -15 0.5t-17 3t-14 7.5t-6 14
q0 20 26.5 47.5t62.5 52.5t72 43t55 18t55 -18t72 -43t62.5 -52.5t26.5 -47.5q0 -9 -6 -14t-14 -7.5t-17 -3t-15 -0.5q-35 0 -57.5 6.5t-39 18.5t-31.5 29.5t-36 39.5z" />
    <glyph glyph-name="edieresis" unicode="&#xeb;" horiz-adv-x="709" 
d="M0 473q0 49 8 104t24 109t41.5 104t61 87.5t81 60t102.5 22.5q67 0 121 -30.5t92 -80t58.5 -110.5t20.5 -123q0 -64 -21 -102.5t-55.5 -60.5t-79 -32t-92 -18.5t-94.5 -19.5t-85 -35q8 -52 31 -98.5t59.5 -82t85 -56t106.5 -20.5q50 0 88 11.5t67 32.5t51 50.5t38 64.5
q7 15 13.5 30t13.5 31q6 14 17 20t24 6q20 0 36 -11.5t16 -30.5q0 -7 -3 -16q-23 -51 -50 -100.5t-67 -89.5q-17 -16 -44 -32t-61 -29t-73.5 -20.5t-80.5 -7.5q-107 0 -191 37t-141.5 100.5t-87.5 150t-30 185.5zM169 444q48 26 97 43t102 29q23 6 41.5 11.5t31 15.5
t19 25.5t6.5 41.5q0 19 -3.5 45.5t-11.5 55.5t-20 57t-28 50.5t-37.5 36.5t-47.5 14q-33 0 -57 -22.5t-41 -58.5t-27.5 -81t-16.5 -88.5t-8 -81.5t-2 -61q0 -8 0.5 -16t2.5 -16zM453 1300q38 0 64 -26t26 -64t-26 -64t-64 -26t-64 26t-26 64t26 64t64 26zM128 1210
q0 38 26 64t64 26t64 -26t26 -64t-26 -64t-64 -26t-64 26t-26 64z" />
    <glyph glyph-name="igrave" unicode="&#xec;" horiz-adv-x="424" 
d="M27 287v599q0 47 20 60.5t63 13.5q42 0 62.5 -13.5t20.5 -60.5v-601q0 -17 2.5 -49.5t10 -64.5t22 -56t38.5 -24q35 0 63.5 23.5t52 57.5t40.5 72t29 67q6 14 17 20t24 6q20 0 36 -11.5t16 -30.5q0 -7 -3 -16q-10 -22 -23.5 -49t-29 -53.5t-32 -50.5t-32.5 -41
q-32 -35 -75.5 -60t-105.5 -25q-63 0 -104.5 25.5t-66 67t-35 92.5t-10.5 102zM74 1350q16 0 29 -7t22.5 -18.5t14.5 -25t5 -27.5q0 -11 -2 -18.5t-2 -18.5q0 -31 19 -52.5t42 -37t42 -28t19 -24.5q0 -7 -6 -12t-14.5 -8.5t-17 -5t-14.5 -1.5q-11 0 -26.5 5.5t-26.5 11.5
q-26 15 -54 34.5t-51 44t-38 53.5t-15 62q0 14 6 27t16.5 23.5t23.5 16.5t28 6z" />
    <glyph glyph-name="iacute" unicode="&#xed;" horiz-adv-x="424" 
d="M63 1234q0 11 -2 19t-2 18q0 14 5.5 28t15 25t23 18.5t28.5 7.5q14 0 27 -6.5t23 -17t16 -23.5t6 -27q0 -36 -17 -67.5t-43.5 -57.5t-57.5 -45.5t-59 -30.5q-21 -9 -34 -9q-6 0 -14.5 1.5t-17 5t-14.5 8.5t-6 12q6 16 26 29.5t41.5 28.5t38.5 34.5t17 48.5zM243 0
q-63 0 -104.5 25.5t-66 67t-35 92.5t-10.5 102v599q0 47 20 60.5t63 13.5q42 0 62.5 -13.5t20.5 -60.5v-601q0 -17 2.5 -49.5t10 -64.5t22 -56t38.5 -24q29 0 52.5 15t42.5 38.5t34.5 51.5t28.5 54q8 15 14.5 30.5t12.5 30.5q8 19 26 24t35 -1t27 -20.5t2 -34.5
q-8 -19 -17.5 -36.5t-18.5 -34.5q-19 -36 -38.5 -67t-42.5 -56q-32 -35 -75.5 -60t-105.5 -25z" />
    <glyph glyph-name="icircumflex" unicode="&#xee;" horiz-adv-x="424" 
d="M110 1350q19 0 54.5 -17.5t71 -43t61.5 -53t26 -47.5q0 -10 -6.5 -15t-15.5 -7t-18.5 -2.5t-16.5 -0.5q-56 0 -90 25t-66 68q-22 -23 -37.5 -40.5t-31.5 -29t-37.5 -17.5t-56.5 -6q-7 0 -15.5 0.5t-16.5 2.5t-13.5 7.5t-5.5 14.5q0 14 12.5 31t32 35t43.5 35t48 30.5
t44.5 21.5t33.5 8zM243 0q-63 0 -104.5 25.5t-66 67t-35 92.5t-10.5 102v599q0 47 20 60.5t63 13.5q42 0 62.5 -13.5t20.5 -60.5v-601q0 -17 2.5 -49.5t10 -64.5t22 -56t38.5 -24q29 0 52.5 15t42.5 38.5t34.5 51.5t28.5 54q8 15 14.5 30.5t12.5 30.5q8 19 26 24t35 -1
t27 -20.5t2 -34.5q-8 -19 -17.5 -36.5t-18.5 -34.5q-19 -36 -38.5 -67t-42.5 -56q-32 -35 -75.5 -60t-105.5 -25z" />
    <glyph glyph-name="ntilde" unicode="&#xf1;" horiz-adv-x="753" 
d="M169 1163q-24 0 -43.5 -7.5t-35.5 -16.5t-29 -16.5t-24 -7.5q-16 0 -21.5 16t-5.5 33q0 37 18 62.5t46 42t62.5 24t67.5 7.5q21 0 41.5 -8t41 -18t41 -19.5t40.5 -12.5q8 -2 15.5 -2h13.5h15q24 0 45.5 7.5t38.5 16t31 16t23 7.5q16 0 21 -16.5t5 -32.5q0 -37 -18.5 -63
t-46.5 -42t-62 -23t-66 -7q-28 0 -49.5 9.5t-44.5 20.5t-51 20.5t-69 9.5zM595 91q29 0 52.5 15t42.5 38.5t34.5 51.5t28.5 54q8 15 14.5 30.5t12.5 30.5q8 19 26 24t35 -1t27 -20.5t2 -34.5q-8 -19 -17.5 -36.5t-18.5 -34.5q-19 -36 -38.5 -67t-42.5 -56q-32 -35 -75.5 -60
t-105.5 -25q-66 0 -105 25.5t-59.5 66t-26 90.5t-5.5 98q0 50 3 97t7 93t7 91t3 90q0 26 -2 63t-12.5 71.5t-31 59t-58.5 24.5q-26 0 -45 -22t-33 -56t-23.5 -76t-15 -81.5t-7.5 -72.5t-2 -49v-438q0 -26 -5.5 -40.5t-17 -22t-28 -9.5t-38.5 -2q-42 0 -59.5 14.5t-17.5 59.5
v812q0 27 6.5 42t19 22t30.5 8.5t40 1.5q42 0 56.5 -15t13.5 -59q24 38 52.5 56t73.5 18q72 0 123 -25t83 -68t46.5 -101.5t14.5 -126.5q0 -33 -3 -70t-7 -75.5t-8.5 -75.5t-7.5 -70q-4 -38 -6 -71t-2 -70q0 -15 1.5 -35t8 -38t21 -30.5t39.5 -12.5z" />
    <glyph glyph-name="ograve" unicode="&#xf2;" horiz-adv-x="764" 
d="M166 485q0 -25 3 -64t11 -82.5t20.5 -87.5t32 -79.5t46 -57.5t61.5 -22q34 0 60 21t45 54.5t32.5 76t21.5 85.5t11.5 83t3.5 68t-3.5 67.5t-11.5 83t-21.5 86t-32.5 76.5t-45 55t-60 21t-60 -21t-45.5 -55t-32.5 -76.5t-21 -85t-11.5 -81.5t-3.5 -65zM338 0
q-55 0 -102 22t-84.5 59t-66 86t-47.5 102.5t-28.5 109.5t-9.5 106t9.5 104t28 107t47 101t66 84t85 57.5t104.5 21.5q58 0 105.5 -22t85.5 -59.5t66 -87t46.5 -103.5t27.5 -109.5t9 -104.5v1q0 -57 -11.5 -120.5t-34.5 -119.5q10 -3 18 -5l12 -3q5 -1 16 -1.5t25 3t29.5 12
t29.5 24.5q8 9 15 20.5t12 25.5q8 19 26 24t35 -1t27 -20.5t2 -34.5q-20 -49 -51.5 -73t-65.5 -32q-38 -9 -70.5 -4.5t-44.5 8.5q-8 2 -17.5 6t-18.5 9q-3 -5 -6 -10.5t-8 -13.5q-21 -35 -48.5 -65.5t-59.5 -53.5t-70 -36.5t-80 -13.5h-3zM494 1093q0 -7 -6 -12t-15 -8.5
t-18.5 -5t-16.5 -1.5q-26 0 -61.5 19.5t-68 49.5t-55 66t-22.5 69t22 56.5t50 23.5q16 0 29 -7.5t22.5 -19t15 -25.5t5.5 -28q0 -9 -1.5 -16t-1.5 -17q0 -32 19 -53.5t42 -37.5t42 -28t19 -25z" />
    <glyph glyph-name="oacute" unicode="&#xf3;" horiz-adv-x="764" 
d="M166 485q0 -25 3 -64t11 -82.5t20.5 -87.5t32 -79.5t46 -57.5t61.5 -22q34 0 60 21t45 54.5t32.5 76t21.5 85.5t11.5 83t3.5 68t-3.5 67.5t-11.5 83t-21.5 86t-32.5 76.5t-45 55t-60 21t-60 -21t-45.5 -55t-32.5 -76.5t-21 -85t-11.5 -81.5t-3.5 -65zM338 0
q-55 0 -102 22t-84.5 59t-66 86t-47.5 102.5t-28.5 109.5t-9.5 106t9.5 104t28 107t47 101t66 84t85 57.5t104.5 21.5q58 0 105.5 -22t85.5 -59.5t66 -87t46.5 -103.5t27.5 -109.5t9 -104.5v1q0 -57 -11.5 -120.5t-34.5 -119.5q10 -3 18 -5l12 -3q5 -1 16 -1.5t25 3t29.5 12
t29.5 24.5q8 9 15 20.5t12 25.5q8 19 26 24t35 -1t27 -20.5t2 -34.5q-20 -49 -51.5 -73t-65.5 -32q-38 -9 -70.5 -4.5t-44.5 8.5q-8 2 -17.5 6t-18.5 9q-3 -5 -6 -10.5t-8 -13.5q-21 -35 -48.5 -65.5t-59.5 -53.5t-70 -36.5t-80 -13.5h-3zM317 1234q0 11 -2 19t-2 18
q0 14 5.5 28t15 25t23 18.5t28.5 7.5q14 0 27 -6.5t23 -17t16 -23.5t6 -27q0 -36 -17 -67.5t-43.5 -57.5t-57.5 -45.5t-59 -30.5q-21 -9 -34 -9q-6 0 -14.5 1.5t-17 5t-14.5 8.5t-6 12q6 16 26 29.5t41.5 28.5t38.5 34.5t17 48.5z" />
    <glyph glyph-name="ocircumflex" unicode="&#xf4;" horiz-adv-x="764" 
d="M166 485q0 -25 3 -64t11 -82.5t20.5 -87.5t32 -79.5t46 -57.5t61.5 -22q34 0 60 21t45 54.5t32.5 76t21.5 85.5t11.5 83t3.5 68t-3.5 67.5t-11.5 83t-21.5 86t-32.5 76.5t-45 55t-60 21t-60 -21t-45.5 -55t-32.5 -76.5t-21 -85t-11.5 -81.5t-3.5 -65zM338 0
q-55 0 -102 22t-84.5 59t-66 86t-47.5 102.5t-28.5 109.5t-9.5 106t9.5 104t28 107t47 101t66 84t85 57.5t104.5 21.5q58 0 105.5 -22t85.5 -59.5t66 -87t46.5 -103.5t27.5 -109.5t9 -104.5v1q0 -57 -11.5 -120.5t-34.5 -119.5q10 -3 18 -5l12 -3q5 -1 16 -1.5t25 3t29.5 12
t29.5 24.5q8 9 15 20.5t12 25.5q8 19 26 24t35 -1t27 -20.5t2 -34.5q-20 -49 -51.5 -73t-65.5 -32q-38 -9 -70.5 -4.5t-44.5 8.5q-8 2 -17.5 6t-18.5 9q-3 -5 -6 -10.5t-8 -13.5q-21 -35 -48.5 -65.5t-59.5 -53.5t-70 -36.5t-80 -13.5h-3zM333 1258q-21 -22 -36 -39.5
t-31.5 -29.5t-39 -18.5t-57.5 -6.5q-6 0 -15 0.5t-17 3t-14 7.5t-6 14q0 20 26.5 47.5t62.5 52.5t72 43t55 18t55 -18t72 -43t62.5 -52.5t26.5 -47.5q0 -9 -6 -14t-14 -7.5t-17 -3t-15 -0.5q-35 0 -57.5 6.5t-39 18.5t-31.5 29.5t-36 39.5z" />
    <glyph glyph-name="otilde" unicode="&#xf5;" horiz-adv-x="764" 
d="M166 485q0 -25 3 -64t11 -82.5t20.5 -87.5t32 -79.5t46 -57.5t61.5 -22q34 0 60 21t45 54.5t32.5 76t21.5 85.5t11.5 83t3.5 68t-3.5 67.5t-11.5 83t-21.5 86t-32.5 76.5t-45 55t-60 21t-60 -21t-45.5 -55t-32.5 -76.5t-21 -85t-11.5 -81.5t-3.5 -65zM338 0
q-55 0 -102 22t-84.5 59t-66 86t-47.5 102.5t-28.5 109.5t-9.5 106t9.5 104t28 107t47 101t66 84t85 57.5t104.5 21.5q58 0 105.5 -22t85.5 -59.5t66 -87t46.5 -103.5t27.5 -109.5t9 -104.5v1q0 -57 -11.5 -120.5t-34.5 -119.5q10 -3 18 -5l12 -3q5 -1 16 -1.5t25 3t29.5 12
t29.5 24.5q8 9 15 20.5t12 25.5q8 19 26 24t35 -1t27 -20.5t2 -34.5q-20 -49 -51.5 -73t-65.5 -32q-38 -9 -70.5 -4.5t-44.5 8.5q-8 2 -17.5 6t-18.5 9q-3 -5 -6 -10.5t-8 -13.5q-21 -35 -48.5 -65.5t-59.5 -53.5t-70 -36.5t-80 -13.5h-3zM217 1163q-24 0 -43.5 -7.5
t-35.5 -16.5t-29 -16.5t-24 -7.5q-16 0 -21.5 16t-5.5 33q0 37 18 62.5t46 42t62.5 24t67.5 7.5q21 0 41.5 -8t41 -18t41 -19.5t40.5 -12.5q8 -2 15.5 -2h13.5h15q24 0 45.5 7.5t38.5 16t31 16t23 7.5q16 0 21 -16.5t5 -32.5q0 -37 -18.5 -63t-46.5 -42t-62 -23t-66 -7
q-28 0 -49.5 9.5t-44.5 20.5t-51 20.5t-69 9.5z" />
    <glyph glyph-name="odieresis" unicode="&#xf6;" horiz-adv-x="764" 
d="M0 485q0 50 9.5 104t28 107t47 101t66 84t85 57.5t104.5 21.5q58 0 105.5 -22t85.5 -59.5t66 -87t46.5 -103.5t27.5 -109t9 -104v-1q0 -56 -11.5 -119.5t-34.5 -119.5q10 -3 18 -5l12 -3q5 -1 16 -1.5t25 3t29.5 12t29.5 24.5q8 9 15 20.5t12 25.5t16.5 20t24.5 6
q19 0 35.5 -11.5t16.5 -30.5q0 -8 -3 -16q-23 -55 -65 -82.5t-100 -27.5q-29 0 -53 5.5t-50 18.5q-22 -38 -49.5 -73t-61 -61.5t-74 -42.5t-87.5 -16h-3q-55 0 -102 22t-84.5 59t-66 86t-47.5 102.5t-28.5 109.5t-9.5 106zM340 92q34 0 60 21t45 54.5t32.5 76t21.5 85.5
t11.5 83t3.5 68t-3.5 67.5t-11.5 83t-21.5 86t-32.5 76.5t-45 55t-60 21t-60 -21t-45.5 -55t-32.5 -76.5t-21 -85t-11.5 -81.5t-3.5 -65q0 -25 3 -64t11 -82.5t20.5 -87.5t32 -79.5t46 -57.5t61.5 -22zM450 1300q38 0 64 -26t26 -64t-26 -64t-64 -26t-64 26t-26 64t26 64
t64 26zM124 1210q0 38 26 64t64 26t64 -26t26 -64t-26 -64t-64 -26t-64 26t-26 64z" />
    <glyph glyph-name="oslash" unicode="&#xf8;" horiz-adv-x="764" 
d="M196 -142q-6 -17 -16.5 -32.5t-31.5 -15.5q-9 0 -26.5 4t-34.5 12t-29.5 19t-12.5 26q0 12 9.5 43t22 66t25 66.5t17.5 46.5l365 1032q6 17 16 33t31 16q10 0 27.5 -4t35 -11.5t30 -18.5t12.5 -25q0 -9 -6 -30.5t-15 -48.5t-19.5 -57.5t-21 -58t-19 -50t-12.5 -33.5z
M166 485q0 -25 3 -64t11 -82.5t20.5 -87.5t32 -79.5t46 -57.5t61.5 -22q34 0 60 21t45 54.5t32.5 76t21.5 85.5t11.5 83t3.5 68t-3.5 67.5t-11.5 83t-21.5 86t-32.5 76.5t-45 55t-60 21t-60 -21t-45.5 -55t-32.5 -76.5t-21 -85t-11.5 -81.5t-3.5 -65zM338 0q-55 0 -102 22
t-84.5 59t-66 86t-47.5 102.5t-28.5 109.5t-9.5 106t9.5 104t28 107t47 101t66 84t85 57.5t104.5 21.5q58 0 105.5 -22t85.5 -59.5t66 -87t46.5 -103.5t27.5 -109.5t9 -104.5v1q0 -57 -11.5 -120.5t-34.5 -119.5q10 -3 18 -5l12 -3q5 -1 16 -1.5t25 3t29.5 12t29.5 24.5
q8 9 15 20.5t12 25.5q8 19 26 24t35 -1t27 -20.5t2 -34.5q-20 -49 -51.5 -73t-65.5 -32q-38 -9 -70.5 -4.5t-44.5 8.5q-8 2 -17.5 6t-18.5 9q-3 -5 -6 -10.5t-8 -13.5q-21 -35 -48.5 -65.5t-59.5 -53.5t-70 -36.5t-80 -13.5h-3z" />
    <glyph glyph-name="ugrave" unicode="&#xf9;" horiz-adv-x="909" 
d="M562 116q-45 -53 -98 -84.5t-122 -31.5q-57 0 -105 21.5t-86 57.5t-66.5 83.5t-47 99.5t-28 105.5t-9.5 101.5v417q0 25 4.5 40t14.5 22.5t25.5 9.5t36.5 2q23 0 39 -2.5t26.5 -10t15 -22t4.5 -39.5v-417q0 -24 3.5 -61.5t11.5 -79.5t21 -84t32 -76t45.5 -55.5
t60.5 -21.5q35 0 61.5 22t46 57t32 78.5t20.5 87t11 81.5t3 63v406q0 25 4.5 40t14 22.5t25 9.5t36.5 2q23 0 39 -2.5t26.5 -10t15 -22t4.5 -39.5v-614q0 -17 1 -47.5t7.5 -60t20 -51.5t37.5 -22q26 0 49 13t43.5 35t38.5 51t33 60q8 15 14.5 30.5t12.5 30.5q8 19 26 24
t35 -1t27 -20.5t2 -34.5q-10 -19 -18.5 -36.5t-17.5 -34.5q-20 -37 -39 -69t-42 -58q-35 -38 -80.5 -59.5t-114.5 -21.5q-25 0 -48.5 9.5t-43.5 25t-35.5 36.5t-24.5 45zM473 1093q0 -7 -6 -12t-15 -8.5t-18.5 -5t-16.5 -1.5q-26 0 -61.5 19.5t-68 49.5t-55 66t-22.5 69
t22 56.5t50 23.5q16 0 29 -7.5t22.5 -19t15 -25.5t5.5 -28q0 -9 -1.5 -16t-1.5 -17q0 -32 19 -53.5t42 -37.5t42 -28t19 -25z" />
    <glyph glyph-name="uacute" unicode="&#xfa;" horiz-adv-x="909" 
d="M562 116q-45 -53 -98 -84.5t-122 -31.5q-57 0 -105 21.5t-86 57.5t-66.5 83.5t-47 99.5t-28 105.5t-9.5 101.5v417q0 25 4.5 40t14.5 22.5t25.5 9.5t36.5 2q23 0 39 -2.5t26.5 -10t15 -22t4.5 -39.5v-417q0 -24 3.5 -61.5t11.5 -79.5t21 -84t32 -76t45.5 -55.5
t60.5 -21.5q35 0 61.5 22t46 57t32 78.5t20.5 87t11 81.5t3 63v406q0 25 4.5 40t14 22.5t25 9.5t36.5 2q23 0 39 -2.5t26.5 -10t15 -22t4.5 -39.5v-614q0 -17 1 -47.5t7.5 -60t20 -51.5t37.5 -22q26 0 49 13t43.5 35t38.5 51t33 60q8 15 14.5 30.5t12.5 30.5q8 19 26 24
t35 -1t27 -20.5t2 -34.5q-10 -19 -18.5 -36.5t-17.5 -34.5q-20 -37 -39 -69t-42 -58q-35 -38 -80.5 -59.5t-114.5 -21.5q-25 0 -48.5 9.5t-43.5 25t-35.5 36.5t-24.5 45zM342 1234q0 11 -2 19t-2 18q0 14 5.5 28t15 25t23 18.5t28.5 7.5q14 0 27 -6.5t23 -17t16 -23.5t6 -27
q0 -36 -17 -67.5t-43.5 -57.5t-57.5 -45.5t-59 -30.5q-21 -9 -34 -9q-6 0 -14.5 1.5t-17 5t-14.5 8.5t-6 12q6 16 26 29.5t41.5 28.5t38.5 34.5t17 48.5z" />
    <glyph glyph-name="ucircumflex" unicode="&#xfb;" horiz-adv-x="909" 
d="M562 116q-45 -53 -98 -84.5t-122 -31.5q-57 0 -105 21.5t-86 57.5t-66.5 83.5t-47 99.5t-28 105.5t-9.5 101.5v417q0 25 4.5 40t14.5 22.5t25.5 9.5t36.5 2q23 0 39 -2.5t26.5 -10t15 -22t4.5 -39.5v-417q0 -24 3.5 -61.5t11.5 -79.5t21 -84t32 -76t45.5 -55.5
t60.5 -21.5q35 0 61.5 22t46 57t32 78.5t20.5 87t11 81.5t3 63v406q0 25 4.5 40t14 22.5t25 9.5t36.5 2q23 0 39 -2.5t26.5 -10t15 -22t4.5 -39.5v-614q0 -17 1 -47.5t7.5 -60t20 -51.5t37.5 -22q26 0 49 13t43.5 35t38.5 51t33 60q8 15 14.5 30.5t12.5 30.5q8 19 26 24
t35 -1t27 -20.5t2 -34.5q-10 -19 -18.5 -36.5t-17.5 -34.5q-20 -37 -39 -69t-42 -58q-35 -38 -80.5 -59.5t-114.5 -21.5q-25 0 -48.5 9.5t-43.5 25t-35.5 36.5t-24.5 45zM337 1258q-21 -22 -36 -39.5t-31.5 -29.5t-39 -18.5t-57.5 -6.5q-6 0 -15 0.5t-17 3t-14 7.5t-6 14
q0 20 26.5 47.5t62.5 52.5t72 43t55 18t55 -18t72 -43t62.5 -52.5t26.5 -47.5q0 -9 -6 -14t-14 -7.5t-17 -3t-15 -0.5q-35 0 -57.5 6.5t-39 18.5t-31.5 29.5t-36 39.5z" />
    <glyph glyph-name="udieresis" unicode="&#xfc;" horiz-adv-x="909" 
d="M81 960q23 0 39 -2.5t26.5 -10t15 -22t4.5 -39.5v-417q0 -24 3.5 -61.5t11.5 -79.5t21 -84t32 -76t45.5 -55.5t60.5 -21.5q35 0 61.5 22t46 57t32 78.5t20.5 87t11 81.5t3 63v406q0 25 4.5 40t14 22.5t25 9.5t36.5 2q23 0 39 -2.5t26.5 -10t15 -22t4.5 -39.5v-614
q0 -17 1 -47.5t7.5 -60t20 -51.5t37.5 -22q35 0 65 23.5t54 57t42 71.5t30 68q6 14 17 20t24 6q20 0 36 -11.5t16 -30.5q0 -7 -3 -16q-10 -19 -18.5 -36.5t-17.5 -34.5q-24 -46 -48.5 -84t-55.5 -65.5t-72.5 -43t-99.5 -15.5q-25 0 -48.5 9.5t-43.5 25t-35.5 36.5t-24.5 45
q-45 -53 -98 -84.5t-122 -31.5q-57 0 -105 21.5t-86 57.5t-66.5 83.5t-47 99.5t-28 105.5t-9.5 101.5v417q0 25 4.5 40t14.5 22.5t25.5 9.5t36.5 2zM602 1300q38 0 64 -26t26 -64t-26 -64t-64 -26t-64 26t-26 64t26 64t64 26zM0 1210q0 38 26 64t64 26t64 -26t26 -64
t-26 -64t-64 -26t-64 26t-26 64z" />
    <glyph glyph-name="yacute" unicode="&#xfd;" horiz-adv-x="851" 
d="M513 -109q-30 -25 -47 -51t-25.5 -53t-10 -56.5t-1.5 -61.5v-25v-36.5t1.5 -54t5 -60.5t9.5 -56.5t16 -41.5t24 -16q9 0 14.5 8t8.5 19.5t4 25t1 24.5v435zM679 69q61 35 101 78t71 103q8 15 14.5 30.5t12.5 30.5q8 19 26 24t35 -1t27 -20.5t2 -34.5q-8 -19 -17.5 -36
t-18.5 -34q-19 -35 -38.5 -65t-42.5 -55q-19 -20 -35 -35t-35 -28.5t-43 -28t-59 -33.5v-344q0 -50 -6.5 -105.5t-26.5 -102t-58 -76.5t-101 -30q-66 0 -107.5 32.5t-65 81.5t-32 107.5t-8.5 109.5q0 58 17.5 111.5t49.5 100t76 85t96 67.5v66q-35 -32 -81 -49.5t-97 -17.5
q-57 0 -104 22t-84 59t-64.5 85.5t-46 102t-27.5 108t-9 103.5v406q0 25 4.5 40t14.5 22.5t26 9.5t38 2t37.5 -2t25.5 -9.5t15 -22.5t5 -40v-406q0 -24 3 -62.5t11 -82t20.5 -87t31.5 -78.5t45.5 -57t60.5 -22q35 0 61.5 22t46 57.5t32.5 79.5t21 87t11.5 81t3.5 62v412
q0 24 5 38t14.5 20.5t23 8t31.5 1.5q25 0 42.5 -2t28.5 -9.5t16 -22t5 -40.5zM339 1234q0 11 -2 19t-2 18q0 14 5.5 28t15 25t23 18.5t28.5 7.5q14 0 27 -6.5t23 -17t16 -23.5t6 -27q0 -36 -17 -67.5t-43.5 -57.5t-57.5 -45.5t-59 -30.5q-21 -9 -34 -9q-6 0 -14.5 1.5t-17 5
t-14.5 8.5t-6 12q6 16 26 29.5t41.5 28.5t38.5 34.5t17 48.5z" />
    <glyph glyph-name="ydieresis" unicode="&#xff;" horiz-adv-x="851" 
d="M0 480v406q0 25 4.5 40t14.5 22.5t26 9.5t38 2t37.5 -2t25.5 -9.5t15 -22.5t5 -40v-406q0 -24 3 -62.5t11 -82t20.5 -87t31.5 -78.5t45.5 -57t60.5 -22q35 0 61.5 22t46 57.5t32.5 79.5t21 87t11.5 81t3.5 62v412q0 24 5 38t14.5 20.5t23 8t31.5 1.5q25 0 42.5 -2
t28.5 -9.5t16 -22t5 -40.5l-1 -817q39 22 69 47.5t53.5 55t42 64.5t34.5 75q6 14 17 20t24 6q20 0 36 -11.5t16 -30.5q0 -7 -3 -16q-10 -22 -23.5 -48.5t-29 -52t-32 -49t-32.5 -40.5q-19 -20 -35 -35t-35 -28.5t-43 -28t-59 -33.5v-344q0 -50 -6.5 -105.5t-26.5 -102
t-58 -76.5t-101 -30q-66 0 -107.5 32.5t-65 81.5t-32 107.5t-8.5 109.5q0 58 17.5 111.5t49.5 100t76 85t96 67.5v66q-35 -32 -81 -49.5t-97 -17.5q-57 0 -104 22t-84 59t-64.5 85.5t-46 102t-27.5 108t-9 103.5zM485 -621q9 0 14.5 8t8.5 19.5t4 25t1 24.5v435
q-30 -25 -47 -51t-25.5 -53t-10 -56.5t-1.5 -61.5v-25v-36.5t1.5 -54t5 -60.5t9.5 -56.5t16 -41.5t24 -16zM584 1300q38 0 64 -26t26 -64t-26 -64t-64 -26t-64 26t-26 64t26 64t64 26zM0 1210q0 38 26 64t64 26t64 -26t26 -64t-26 -64t-64 -26t-64 26t-26 64z" />
    <glyph glyph-name="oe" unicode="&#x153;" horiz-adv-x="1189" 
d="M166 485q0 -25 3 -64t11 -82.5t20.5 -88t32 -80t46 -57.5t61.5 -22q34 0 60 21t45 55t32.5 76.5t21.5 85.5t11.5 83t3.5 68t-3.5 69t-11.5 86t-21.5 90t-32.5 80.5t-45 58t-60 22.5t-60 -22.5t-45.5 -58t-32.5 -80t-21 -89t-11.5 -85t-3.5 -66.5zM831 886
q-33 0 -57.5 -24.5t-41.5 -63.5t-27.5 -87t-16 -94.5t-7.5 -87.5t-2 -65q0 -5 0.5 -10t2.5 -10q66 37 142 58q28 8 55.5 12.5t49.5 14.5t35.5 30t13.5 57q0 19 -3.5 46t-11.5 57t-19.5 60t-28 53.5t-37.5 38.5t-47 15zM930 0q-105 0 -187.5 44.5t-141.5 130.5
q-22 -37 -49 -69.5t-59 -55.5t-70 -36.5t-82 -13.5q-56 0 -103.5 21.5t-85.5 57.5t-66.5 84t-47.5 101.5t-28.5 108.5t-9.5 106q0 49 9 104t27.5 108.5t46 102t65 85.5t84.5 59t103 22q43 0 80.5 -13t70 -34.5t59.5 -51t48 -62.5q19 34 44 63.5t55.5 51t66.5 34t76 12.5
q66 0 119 -31.5t90.5 -81t58 -111.5t20.5 -122q0 -64 -21.5 -100.5t-57 -56t-81 -27t-93.5 -14t-95 -16t-86 -33.5q6 -44 28 -93t56 -89.5t77.5 -67t94.5 -26.5q50 0 88 11.5t67 32.5t51 50.5t38 64.5q7 15 13.5 30t13.5 31q8 19 26 24t35 -1t27 -20.5t2 -34.5
q-18 -40 -36 -75q-17 -32 -36 -60.5t-45 -54.5q-17 -16 -44 -32t-61 -29t-73.5 -20.5t-80.5 -7.5z" />
    <glyph glyph-name="Ydieresis" unicode="&#x178;" horiz-adv-x="1245" 
d="M0 1495q0 9 3.5 16.5t12.5 12.5q40 20 106.5 36t146.5 16q21 0 39 -2t32 -9.5t22 -22.5t9 -42q1 -22 3 -61.5t4.5 -86.5t5.5 -98.5t6 -98t5.5 -84t3.5 -58.5q2 -35 5 -93.5t8.5 -130t14 -151t22 -157t33 -148.5t47 -124.5t63.5 -85.5t82 -32q52 0 89.5 37t63.5 95t42 130
t25 142t12 130.5t3 96.5v794q0 27 16.5 43.5t43.5 16.5h46q27 0 43.5 -16.5t16.5 -43.5v-1447q39 22 69 47.5t53.5 55t42 64.5t34.5 75q6 14 17 20t24 6q20 0 36 -11.5t16 -30.5q0 -7 -3 -16q-10 -22 -23.5 -48.5t-29 -52t-32 -49t-32.5 -40.5q-19 -20 -35 -35t-35 -28.5
t-43 -28t-59 -33.5v-344q0 -51 -9 -106.5t-32 -101.5t-63.5 -76t-103.5 -30q-65 0 -106.5 31.5t-65 79t-32.5 104.5t-9 108q0 63 19 118t53 100.5t81 82t102 62.5v157q-19 -26 -45.5 -52.5t-57 -48t-64 -35t-68.5 -13.5q-66 0 -119.5 29.5t-96.5 80t-76 117t-58 141.5
t-42.5 153t-29 151.5t-17.5 137t-8 109.5q-1 27 -3 69.5t-4.5 93t-4.5 105t-4 105t-3 92.5t-1 68q0 17 -4 24.5t-21 7.5q-12 0 -21.5 -1.5t-23.5 -6t-35 -12t-57 -18.5q-18 -5 -31.5 12t-13.5 37zM809 -406q0 -9 0.5 -28t2.5 -43t5.5 -49.5t10 -46.5t15.5 -34.5t21 -13.5
q15 0 24 19.5t13.5 44.5t6 49.5t1.5 35.5v362q-38 -31 -58.5 -64t-29.5 -69.5t-10.5 -77t-1.5 -85.5zM891 1810q0 38 26 64t64 26t64 -26t26 -64t-26 -64t-64 -26t-64 26t-26 64zM246 1900q38 0 64 -26t26 -64t-26 -64t-64 -26t-64 26t-26 64t26 64t64 26z" />
    <glyph glyph-name="florin" unicode="&#x192;" horiz-adv-x="965" 
d="M565 887v-493q0 -108 -24 -183t-73 -122t-123.5 -68.5t-174.5 -21.5q-20 0 -30 0.5t-17 1.5q-23 3 -28 8.5t-5 17.5q0 18 4.5 27.5t12 14t18 5t22.5 0.5h17q83 0 130 24.5t70.5 67t29.5 101t6 127.5v493q-3 0 -23.5 -0.5t-46.5 -0.5q-22 0 -45.5 0.5t-44 2.5t-34.5 5
t-19 7q-3 3 -3.5 8.5t-0.5 11.5v28q0 7 1 13t4 10q4 5 11.5 7t16.5 3.5t17 1.5h14h153v197q0 108 24 183.5t73 122.5t124 68t176 21h34q20 0 32 -6t12 -32q0 -25 -12 -31.5t-29 -6.5q-8 0 -16.5 0.5t-22.5 0.5q-81 0 -127 -23.5t-69 -66t-28.5 -101t-5.5 -128.5v-198h159
q15 0 28 -0.5t22.5 -5t15 -14.5t5.5 -28q0 -16 -3.5 -28t-22.5 -16q-8 -1 -23 -2t-34.5 -2t-40.5 -1h-41h-65z" />
    <glyph glyph-name="ring" unicode="&#x2da;" horiz-adv-x="1087" 
d="M250 1349q0 -29 19 -49t48 -20t49 20t20 49t-19.5 48.5t-48.5 19.5t-48.5 -19.5t-19.5 -48.5zM166 1349q0 31 12 58.5t32 48.5t48 33t59 12t58.5 -12t48.5 -33t33 -48.5t12 -58.5t-12 -59t-33 -48t-48.5 -32t-58.5 -12t-59 12t-48 32t-32 48t-12 59z" />
    <glyph glyph-name="endash" unicode="&#x2013;" horiz-adv-x="882" 
d="M57 368q-8 0 -18 0.5t-18.5 3.5t-14.5 8.5t-6 14.5v42q0 9 6 14.5t14.5 8.5t18.5 3.5t18 0.5h754q16 0 29 -0.5t22.5 -5t14.5 -14.5t5 -28q0 -17 -4.5 -27t-12.5 -14.5t-19.5 -5.5t-25.5 -1h-763z" />
    <glyph glyph-name="emdash" unicode="&#x2014;" horiz-adv-x="1512" 
d="M57 368q-8 0 -18 0.5t-18.5 3.5t-14.5 8.5t-6 14.5v42q0 9 6 14.5t14.5 8.5t18.5 3.5t18 0.5h1384q16 0 29 -0.5t22.5 -5t14.5 -14.5t5 -28q0 -17 -4.5 -27t-12.5 -14.5t-19.5 -5.5t-25.5 -1h-1393z" />
    <glyph glyph-name="quoteleft" unicode="&#x2018;" horiz-adv-x="353" 
d="M195.009 1414q0 -21.998 6.49902 -33.4971q6.5 -11.5 14.999 -20.499q8.5 -9 15 -18.999q6.49902 -10 6.49902 -30.998q0 -34.998 -19.499 -55.4971q-19.498 -20.498 -51.4961 -20.498q-22.999 0 -38.998 10.499t-26.498 26.998q-10.5 16.499 -14.999 37.998
q-4.5 21.498 -4.5 42.4971q0 50.9971 23.498 101.994q23.499 50.9971 63.4961 95.9941q8 8.99902 23.999 17.999q15.999 8.99902 27.998 8.99902q5 0 12.499 -2.5q7.5 -2.49902 7.5 -9.49902q0 -19.999 -7 -37.498q-6.99902 -17.499 -15.999 -34.998
q-8.99902 -17.498 -15.999 -36.4971q-6.99902 -18.999 -6.99902 -41.998z" />
    <glyph glyph-name="quoteright" unicode="&#x2019;" horiz-adv-x="353" 
d="M141 1397q0 22 -6.5 33.5t-15 20.5t-15 19t-6.5 31q0 35 19.5 55.5t51.5 20.5q23 0 39 -10.5t26.5 -27t15 -38t4.5 -42.5q0 -51 -23.5 -102t-63.5 -96q-8 -9 -24 -18t-28 -9q-5 0 -12.5 2.5t-7.5 9.5q0 20 7 37.5t16 35t16 36.5t7 42z" />
    <glyph glyph-name="quotesinglbase" unicode="&#x201a;" horiz-adv-x="353" 
d="M141 -42q0 22 -6.5 33.5t-15 20.5t-15 19t-6.5 31q0 35 19.5 55.5t51.5 20.5q23 0 39 -10.5t26.5 -27t15 -38t4.5 -42.5q0 -51 -23.5 -102t-63.5 -96q-8 -9 -24 -18t-28 -9q-5 0 -12.5 2.5t-7.5 9.5q0 20 7 37.5t16 35t16 36.5t7 42z" />
    <glyph glyph-name="quotedblleft" unicode="&#x201c;" horiz-adv-x="554" 
d="M212.009 1414q0 -21.998 6.49902 -33.4971q6.5 -11.5 14.999 -20.499q8.5 -9 15 -18.999q6.49902 -10 6.49902 -30.998q0 -34.998 -19.499 -55.4971q-19.498 -20.498 -51.4961 -20.498q-22.999 0 -38.998 10.499t-26.498 26.998q-10.5 16.499 -14.999 37.998
q-4.5 21.498 -4.5 42.4971q0 50.9971 23.498 101.994q23.499 50.9971 63.4961 95.9941q8 8.99902 23.999 17.999q15.999 8.99902 27.998 8.99902q5 0 12.499 -2.5q7.5 -2.49902 7.5 -9.49902q0 -19.999 -7 -37.498q-6.99902 -17.499 -15.999 -34.998
q-8.99902 -17.498 -15.999 -36.4971q-6.99902 -18.999 -6.99902 -41.998zM413.009 1414q0 -21.998 6.49902 -33.4971q6.5 -11.5 14.999 -20.499q8.5 -9 15 -18.999q6.49902 -10 6.49902 -30.998q0 -34.998 -19.499 -55.4971q-19.498 -20.498 -51.4961 -20.498
q-22.999 0 -38.998 10.499t-26.498 26.998q-10.5 16.499 -14.999 37.998q-4.5 21.498 -4.5 42.4971q0 50.9971 23.498 101.994q23.499 50.9971 63.4961 95.9941q8 8.99902 23.999 17.999q15.999 8.99902 27.998 8.99902q5 0 12.499 -2.5q7.5 -2.49902 7.5 -9.49902
q0 -19.999 -7 -37.498q-6.99902 -17.499 -15.999 -34.998q-8.99902 -17.498 -15.999 -36.4971q-6.99902 -18.999 -6.99902 -41.998z" />
    <glyph glyph-name="quotedblright" unicode="&#x201d;" horiz-adv-x="554" 
d="M141 1397q0 22 -6.5 33.5t-15 20.5t-15 19t-6.5 31q0 35 19.5 55.5t51.5 20.5q23 0 39 -10.5t26.5 -27t15 -38t4.5 -42.5q0 -51 -23.5 -102t-63.5 -96q-8 -9 -24 -18t-28 -9q-5 0 -12.5 2.5t-7.5 9.5q0 20 7 37.5t16 35t16 36.5t7 42zM343 1397q0 22 -6.5 33.5t-15 20.5
t-15 19t-6.5 31q0 35 19.5 55.5t51.5 20.5q23 0 39 -10.5t26.5 -27t15 -38t4.5 -42.5q0 -51 -23.5 -102t-63.5 -96q-8 -9 -24 -18t-28 -9q-5 0 -12.5 2.5t-7.5 9.5q0 20 7 37.5t16 35t16 36.5t7 42z" />
    <glyph glyph-name="quotedblbase" unicode="&#x201e;" horiz-adv-x="554" 
d="M141 -42q0 22 -6.5 33.5t-15 20.5t-15 19t-6.5 31q0 35 19.5 55.5t51.5 20.5q23 0 39 -10.5t26.5 -27t15 -38t4.5 -42.5q0 -51 -23.5 -102t-63.5 -96q-8 -9 -24 -18t-28 -9q-5 0 -12.5 2.5t-7.5 9.5q0 20 7 37.5t16 35t16 36.5t7 42zM343 -42q0 22 -6.5 33.5t-15 20.5
t-15 19t-6.5 31q0 35 19.5 55.5t51.5 20.5q23 0 39 -10.5t26.5 -27t15 -38t4.5 -42.5q0 -51 -23.5 -102t-63.5 -96q-8 -9 -24 -18t-28 -9q-5 0 -12.5 2.5t-7.5 9.5q0 20 7 37.5t16 35t16 36.5t7 42z" />
    <glyph glyph-name="perthousand" unicode="&#x2030;" horiz-adv-x="1770" 
d="M198 1274q0 44 12 96t37 97.5t63.5 76t91.5 30.5t91.5 -30.5t63.5 -75.5t37 -97.5t12 -96.5t-12 -96.5t-36.5 -98t-63 -76t-92.5 -30.5q-53 0 -91.5 30.5t-63.5 76t-37 98t-12 96.5zM349 1274q0 -8 0.5 -28.5t2.5 -46t5.5 -53t9.5 -50.5t14.5 -37.5t20.5 -14.5
q11 0 19.5 14.5t14.5 37.5t10 50.5t6 53t3 45.5t1 29t-1 29t-3.5 45.5t-6.5 53t-10 50.5t-14.5 37.5t-19.5 14.5t-19.5 -14.5t-14 -37t-9 -50t-6 -53t-3 -46t-0.5 -29.5zM745 301q0 44 12 96t37 97.5t63.5 76t91.5 30.5t91.5 -30.5t63.5 -75.5t37 -97.5t12 -96.5t-12 -96.5
t-36.5 -98t-63 -76t-92.5 -30.5q-53 0 -91.5 30.5t-63.5 76t-37 98t-12 96.5zM896 301q0 -8 0.5 -28.5t2.5 -46t5.5 -53t9.5 -50.5t14.5 -37.5t20.5 -14.5q11 0 19.5 14.5t14.5 37.5t10 50.5t6 53t3 46t1 28.5q0 9 -1 29t-3.5 45.5t-6.5 53t-10 50t-14.5 37t-19.5 14.5
t-19.5 -14.5t-14.5 -37t-9.5 -50t-5.5 -53t-2.5 -45.5t-0.5 -29zM1225 301q0 44 12 96t37 97.5t63.5 76t91.5 30.5t91.5 -30.5t63.5 -75.5t37 -97.5t12 -96.5t-12 -96.5t-36.5 -98t-63 -76t-92.5 -30.5q-53 0 -91.5 30.5t-63.5 76t-37 98t-12 96.5zM1376 301q0 -8 0.5 -28.5
t2.5 -46t5.5 -53t9.5 -50.5t14.5 -37.5t20.5 -14.5q11 0 19.5 14.5t14.5 37.5t10 50.5t6 53t3 46t1 28.5q0 9 -1 29t-3.5 45.5t-6.5 53t-10 50t-14.5 37t-19.5 14.5t-19.5 -14.5t-14.5 -37t-9.5 -50t-5.5 -53t-2.5 -45.5t-0.5 -29zM890 1690q8 0 12 -2q16 -4 33.5 -7.5
t32 -10.5t24 -19t9.5 -32q0 -15 -5 -33l-467 -1602q-3 -10 -7 -20.5t-10 -19t-15 -14t-22 -5.5q-11 0 -22.5 4t-22.5 7q-12 3 -23.5 6.5t-21 9.5t-15 16t-5.5 26q0 18 6 36l466 1602q6 21 16.5 39.5t36.5 18.5z" />
    <glyph glyph-name="guilsinglleft" unicode="&#x2039;" horiz-adv-x="660" 
d="M150 514l234 340q4 5 9.5 14t11.5 17t13 14t13 6q7 0 20 -7t26 -17t22.5 -21t9.5 -18q0 -4 -3.5 -12.5t-9 -17t-10.5 -16.5t-8 -12l-185 -270l185 -270q3 -4 8 -12t10.5 -16.5t9 -16.5t3.5 -13q0 -7 -10 -18t-23 -21t-26 -17.5t-20 -7.5q-6 0 -12.5 6.5t-13 14.5t-12 17
t-8.5 13z" />
    <glyph glyph-name="guilsinglright" unicode="&#x203a;" horiz-adv-x="660" 
d="M230 122q-7 0 -20 7.5t-26 18t-23 21.5t-10 19q0 5 3.5 12t8.5 15.5t10.5 16t8.5 12.5l185 270l-185 270q-3 5 -8.5 12.5t-10.5 16t-8.5 16t-3.5 11.5q0 8 10 19t23 21.5t26 17.5t20 7q6 0 12.5 -6t12.5 -14t11.5 -17t9.5 -14l234 -340l-234 -341q-3 -4 -8.5 -13t-12 -17
t-13 -14.5t-12.5 -6.5z" />
    <glyph glyph-name="trademark" unicode="&#x2122;" horiz-adv-x="2016" 
d="M549 925h-12q-21 0 -32.5 1.5t-17 7.5t-6.5 19t-1 37l1 466h-211q-12 0 -25 1t-18 6q-3 3 -4 8.5t-1 9.5v69q0 17 12 22t27 5q6 0 12 -0.5t11 -0.5h552q15 0 28 -4.5t13 -21.5v-69q0 -17 -13 -21.5t-28 -4.5q-7 0 -13 0.5t-11 0.5h-196v-466q0 -25 -1.5 -38t-8 -19
t-20 -7t-37.5 -1zM967 1542q0 19 11.5 26.5t28.5 7.5h94q21 0 34 -1t23 -5.5t18 -15t19 -28.5l171 -290l168 290q11 19 19 29t17.5 14.5t23 5.5t34.5 1h88q17 0 28.5 -8t11.5 -26v-590q0 -18 -12 -23t-28 -5q-7 0 -13.5 0.5t-12.5 0.5h-12q-16 0 -25 1t-13.5 6t-5.5 14.5
t-1 27.5v473l-206 -372q-9 -17 -26.5 -22t-34.5 -5t-34 5t-26 22l-216 381v-467q0 -23 -0.5 -36t-4.5 -19t-13 -7.5t-26 -1.5h-14q-8 0 -14.5 -0.5t-12.5 -0.5q-14 0 -26 5t-12 23v590z" />
    <glyph glyph-name="periodcentered" unicode="&#xb7;" horiz-adv-x="378" 
d="M151 454q0 38 26 64t64 26t64 -26t26 -64t-26 -64t-64 -26t-64 26t-26 64z" />
    <glyph glyph-name="Euro" unicode="&#x20ac;" horiz-adv-x="1055" 
d="M215 650q-6 0 -17.5 -0.5t-26.5 -0.5q-22 0 -45 2.5t-31 10.5q-3 4 -4 10t-1 13v26q0 7 1 13t4 10q8 8 30 10.5t43 2.5q14 0 25 -0.5t17 -0.5v86q-6 0 -17 -0.5t-25 -0.5q-21 0 -43 2.5t-30 10.5q-3 4 -4 10t-1 13v26q0 7 1 13t4 10q8 8 31 10.5t45 2.5q15 0 26.5 -0.5
t17.5 -0.5q6 76 18.5 153.5t36.5 149.5t60 135t88 109.5t122 73.5t161 27q80 0 141 -16t101 -36q12 -6 17 -15t5 -20q0 -9 -4.5 -18.5t-11.5 -16t-16 -9t-19 0.5q-72 25 -122 32t-83 7q-64 0 -112.5 -28t-84 -73.5t-59 -104t-38.5 -120.5t-22.5 -122t-11.5 -109h472
q16 0 29 -0.5t22.5 -5t14.5 -14.5t5 -28q0 -20 -4 -30t-24 -15q-15 -3 -42.5 -4t-59.5 -1t-64 0.5t-52 0.5q-76 0 -151 0.5t-151 0.5v-86h477q16 0 29 -0.5t22.5 -5t14.5 -14.5t5 -28q0 -20 -4 -30t-26 -15q-10 -2 -20 -2.5t-21 -0.5h-472v-2q4 -48 11.5 -108.5t22.5 -122.5
t38.5 -120.5t59 -104t84 -73.5t112.5 -28q33 0 83 7t122 32q10 3 19 0.5t16 -9t11.5 -16t4.5 -18.5q0 -11 -5 -20t-17 -15q-40 -20 -101 -36t-141 -16q-91 0 -161 27t-122 73.5t-88 109.5t-60 135t-37 149.5t-18 153.5v2z" />
    <glyph glyph-name="germandbls" unicode="&#xdf;" horiz-adv-x="1036" 
d="M0 -386v1764q0 57 33 95.5t81 61t102 32t95 9.5q76 0 143.5 -26.5t118.5 -74t80.5 -112.5t29.5 -143q0 -45 -15 -79.5t-37 -62t-48 -48.5t-48 -37.5t-37 -30.5t-15 -28q0 -12 10.5 -22.5t24 -18.5t27 -14t19.5 -9q78 -32 144.5 -73.5t115 -95.5t76 -124t27.5 -159
q0 -103 -28 -181q12 -4 22 -6t15 -4q5 -1 16 -1.5t25 3t29.5 12t29.5 24.5q8 9 15 20.5t12 25.5q8 19 26 24t35 -1t27 -20.5t2 -34.5q-21 -50 -52 -73.5t-65 -31.5q-38 -9 -70.5 -4.5t-44.5 8.5q-9 2 -19 7l-20 10q-46 -95 -136.5 -145t-224.5 -50q-36 0 -75 4t-75.5 13.5
t-69 25.5t-56.5 39q-11 10 -20 23t-9 25q0 11 8 18.5t19 7.5q15 0 37 -11.5t41 -19.5q40 -17 91.5 -23t98.5 -6q75 0 123.5 28t76.5 74.5t39 106.5t11 124q0 90 -31 154t-82 111.5t-117.5 81.5t-137.5 64q-13 5 -26.5 14.5t-25 21.5t-18.5 26.5t-7 29.5q0 33 15 52.5t37 34
t48.5 28.5t48.5 35.5t37 54t15 85.5q0 45 -12.5 91t-38 83t-64.5 60.5t-91 23.5q-27 0 -53.5 -4t-46.5 -15t-32.5 -31t-12.5 -52v-1766q0 -28 -6 -43t-18 -22t-30 -8t-41 -1q-42 0 -56.5 16.5t-14.5 59.5z" />
    <glyph glyph-name="parenright" unicode=")" horiz-adv-x="522" 
d="M65 -328l10 22q48 105 90 213.5t72.5 220t48.5 226t18 231.5t-18 231t-49 225.5t-72.5 220t-89.5 213.5l-10 22q-4 9 -4 19q0 23 23 34l50 22q9 4 19 4q23 0 34 -23l13 -29q46 -103 94 -219.5t87.5 -238.5t64.5 -244.5t25 -237.5t-24 -238t-62 -244.5t-86.5 -237.5
t-98.5 -219l-14 -29q-11 -23 -34 -23q-10 0 -19 4l-48 22q-24 10 -24 35q0 10 4 18z" />
    <glyph glyph-name="comma" unicode="," horiz-adv-x="525" 
d="M226 -40q0 19 -5.5 33.5t-12.5 28t-12.5 27.5t-5.5 33q0 17 5.5 33.5t16 29.5t27 21t37.5 8q24 0 42.5 -10t30.5 -26t18.5 -36.5t6.5 -42.5q0 -23 -7 -54t-19 -63.5t-29.5 -64.5t-38.5 -56.5t-45 -40t-49 -15.5q-10 0 -23 3t-13 14q0 20 12 40t26 41t26 45t12 52z" />
    <glyph glyph-name="period" unicode="." horiz-adv-x="480" 
d="M150 90q0 38 26 64t64 26t64 -26t26 -64t-26 -64t-64 -26t-64 26t-26 64z" />
    <glyph glyph-name="slash" unicode="/" horiz-adv-x="768" 
d="M704 1615q2 -13 -4 -37t-17 -60l-460 -1577q-7 -22 -23.5 -31t-38.5 -3l-62 18q-22 6 -31 23t-3 39l480 1648q6 22 23 31t39 3l62 -18q15 -4 24 -13.5t11 -22.5z" />
    <glyph glyph-name="quotedbl" unicode="&#x22;" horiz-adv-x="680" 
d="M178.682 1357.21q0 26.6025 -7.86816 40.5088t-18.1572 24.7891q-10.29 10.8828 -18.1582 22.9756q-7.86816 12.0918 -7.86816 37.4863q0 42.3223 23.6055 67.1113q23.6045 24.7891 62.3408 24.7891q27.8418 0 47.21 -12.6963q19.3682 -12.6973 32.0781 -32.6494
q12.7109 -19.9521 18.1582 -45.9502q5.44727 -25.999 5.44727 -51.3926q0 -61.6709 -28.4473 -123.341q-28.4473 -61.6709 -76.8672 -116.086q-9.68457 -10.8838 -29.0527 -21.7666t-33.8936 -10.8828q-6.05273 0 -15.1318 3.02246q-9.0791 3.02344 -9.0791 11.4883
q0 24.1846 8.47363 45.3457q8.47363 21.1621 19.3682 42.3232t19.3682 44.1367t8.47363 50.7881zM456.682 1357.21q0 26.6025 -7.86816 40.5088t-18.1572 24.7891q-10.29 10.8828 -18.1582 22.9756q-7.86816 12.0918 -7.86816 37.4863q0 42.3223 23.6055 67.1113
q23.6045 24.7891 62.3408 24.7891q27.8418 0 47.21 -12.6963q19.3682 -12.6973 32.0781 -32.6494q12.7109 -19.9521 18.1582 -45.9502q5.44727 -25.999 5.44727 -51.3926q0 -61.6709 -28.4473 -123.341q-28.4473 -61.6709 -76.8672 -116.086
q-9.68457 -10.8838 -29.0527 -21.7666t-33.8936 -10.8828q-6.05273 0 -15.1318 3.02246q-9.0791 3.02344 -9.0791 11.4883q0 24.1846 8.47363 45.3457q8.47363 21.1621 19.3682 42.3232t19.3682 44.1367t8.47363 50.7881z" />
    <glyph glyph-name="numbersign" unicode="#" horiz-adv-x="1224" 
d="M50 449q-23 0 -36.5 13.5t-13.5 36.5v34q0 23 13.5 36.5t36.5 13.5h207l44 152h-35.5t-44 0.5t-47.5 0.5h-46q-23 0 -36.5 13.5t-13.5 36.5v34q0 23 13.5 36.5t36.5 13.5h211l118 411q13 44 54 44q10 0 20 -3l44 -12q21 -6 32.5 -20.5t11.5 -33.5q0 -9 -3 -20l-105 -366
h233l118 412q6 20 20.5 32t34.5 12q10 0 20 -3l42 -13q44 -14 44 -54q0 -8 -3 -19l-105 -367h169q23 0 36.5 -13.5t13.5 -36.5v-34q0 -23 -13.5 -36.5t-36.5 -13.5h-207l-44 -153h173q23 0 36.5 -13.5t13.5 -36.5v-34q0 -23 -13.5 -36.5t-36.5 -13.5h-211l-120 -419
q-6 -21 -20.5 -33t-34.5 -12q-8 0 -19 3l-42 13q-21 7 -33 21t-12 34q0 9 3 19l107 374h-233l-120 -419q-6 -21 -20.5 -32.5t-33.5 -11.5q-10 0 -19 3l-45 12q-20 5 -32 20t-12 35q0 10 3 20l107 373h-169zM473 735l-43 -152h232l44 152h-233z" />
    <glyph glyph-name="colon" unicode=":" horiz-adv-x="480" 
d="M150 90q0 38 26 64t64 26t64 -26t26 -64t-26 -64t-64 -26t-64 26t-26 64zM150 568q0 38 26 64t64 26t64 -26t26 -64t-26 -64t-64 -26t-64 26t-26 64z" />
    <glyph glyph-name="semicolon" unicode=";" horiz-adv-x="525" 
d="M226 -40q0 19 -5.5 33.5t-12.5 28t-12.5 27.5t-5.5 33q0 17 5.5 33.5t16 29.5t27 21t37.5 8q24 0 42.5 -10t30.5 -26t18.5 -36.5t6.5 -42.5q0 -23 -7 -54t-19 -63.5t-29.5 -64.5t-38.5 -56.5t-45 -40t-49 -15.5q-10 0 -23 3t-13 14q0 20 12 40t26 41t26 45t12 52z
M191 568q0 38 26 64t64 26t64 -26t26 -64t-26 -64t-64 -26t-64 26t-26 64z" />
    <glyph glyph-name="bracketleft" unicode="[" horiz-adv-x="720" 
d="M335 -365q0 -19 11 -26t28 -7h101q10 0 18.5 0.5t16.5 0.5q18 0 29 -7t11 -33v-9q0 -32 -7.5 -40.5t-27.5 -8.5q-8 0 -18 0.5t-22 0.5h-231q-75 0 -75 75v1920q0 75 75 75h231q11 0 20 0.5t17 0.5q20 0 29 -8.5t9 -40.5v-10q0 -26 -10.5 -32.5t-27.5 -6.5q-8 0 -17 0.5
t-20 0.5h-101q-17 0 -28 -7t-11 -26v-1812z" />
    <glyph glyph-name="bracketright" unicode="]" horiz-adv-x="720" 
d="M384 1447q0 19 -11.5 26t-28.5 7h-132q-16 0 -24.5 1.5t-12.5 7t-5 15t-1 24.5q0 17 2 26.5t6.5 14.5t12.5 6t21 1h264q75 0 75 -75v-1920q0 -75 -75 -75h-263q-16 0 -24.5 1.5t-12.5 7t-5 15t-1 24.5q0 32 8.5 40.5t28.5 8.5q8 0 17.5 -0.5t20.5 -0.5h100q17 0 28.5 7
t11.5 26v1812z" />
    <glyph glyph-name="underscore" unicode="_" horiz-adv-x="1024" 
d="M1024 -281h-1024v135h1024v-135z" />
    <glyph glyph-name="braceleft" unicode="{" horiz-adv-x="720" 
d="M613 -453q0 -27 -9.5 -34.5t-27.5 -7.5q-8 0 -17 0.5t-20 0.5h-232q-74 0 -74 75v868q0 15 -11.5 22t-27.5 9.5t-32.5 2t-26.5 0.5q-19 2 -23.5 13.5t-4.5 30.5v24q0 18 2 28.5t8 15.5t16.5 6t28.5 1h12q9 0 19.5 1.5t19 5.5t14.5 10t6 15v867q0 75 74 75h264
q13 0 21 -1.5t12.5 -7t6.5 -16.5t2 -30q0 -27 -9.5 -34.5t-27.5 -7.5q-8 0 -17 0.5t-20 0.5h-101q-27 0 -33.5 -12t-6.5 -32v-820q0 -74 -74 -74q74 0 74 -75v-832q0 -19 11.5 -26t28.5 -7h101q11 0 19 0.5t16 0.5q20 0 29.5 -8.5t9.5 -40.5v-7z" />
    <glyph glyph-name="braceright" unicode="}" horiz-adv-x="720" 
d="M396 542q-74 0 -74 74v831q0 19 -11.5 26t-28.5 7h-126q-17 0 -27 1t-15 5.5t-6 14.5t-1 27q0 33 8.5 40.5t30.5 7.5h267q74 0 74 -75v-867q0 -14 11.5 -21t27.5 -9.5t32 -2.5t26 -1q20 -2 24.5 -14t4.5 -30v-19q0 -19 -2 -30.5t-8 -16.5t-16 -6.5t-26 -1.5h-15
q-9 0 -19.5 -2t-19 -5.5t-14.5 -10t-6 -15.5v-868q0 -75 -74 -75h-257q-17 0 -27 1t-15 5.5t-6 14.5t-1 27q0 32 8.5 40.5t28.5 8.5q8 0 16.5 -0.5t17.5 -0.5h104q17 0 28.5 7t11.5 26v832q0 75 74 75z" />
    <glyph glyph-name="copyright" unicode="&#xa9;" horiz-adv-x="1500" 
d="M1115 1208q0 -76 -28.5 -142t-78 -115.5t-116 -78t-143.5 -28.5t-143.5 28.5t-116 77.5t-77.5 115.5t-28 142.5q0 77 28.5 144t78 116.5t116 78.5t142.5 29t142.5 -29t116 -78.5t78.5 -116.5t29 -144zM1029 1210q0 58 -22 109t-60 88.5t-89 59.5t-109 22t-109 -22
t-89 -59.5t-60 -88.5t-22 -109t22 -109.5t59.5 -89t89 -59.5t109.5 -22q59 0 110 22t88.5 59.5t59.5 89t22 109.5zM912 1364l-68 -64q-36 37 -88 37q-27 0 -50 -10t-40 -27t-26.5 -39.5t-9.5 -48.5t9.5 -49t26 -40t39.5 -26.5t49 -9.5q49 0 86 34l67 -66q-64 -61 -151 -61
q-46 0 -86.5 17t-70.5 46.5t-47 69.5t-17 85t17 85t47 70t70.5 47.5t86.5 17.5q91 0 156 -68z" />
    <glyph glyph-name="guillemotleft" unicode="&#xab;" horiz-adv-x="972" 
d="M150 480l234 340q3 5 8.5 13.5t11.5 17t13 14.5t13 6q7 0 20.5 -7.5t26.5 -18t22.5 -22t9.5 -18.5q0 -4 -3.5 -11.5t-8.5 -15.5t-10.5 -15.5t-8.5 -12.5l-185 -270l185 -270q3 -5 8.5 -12.5t10.5 -15.5t8.5 -15.5t3.5 -12.5q0 -8 -10 -19.5t-23 -22t-26 -17.5t-20 -7
q-6 0 -13 6.5t-13 15t-11.5 17t-8.5 12.5zM462 480l234 340q3 5 8.5 13.5t11.5 17t13 14.5t13 6q7 0 20.5 -7.5t26.5 -18t22.5 -22t9.5 -18.5q0 -4 -3.5 -11.5t-8.5 -15.5t-10.5 -15.5t-8.5 -12.5l-185 -270l185 -270q3 -5 8.5 -12.5t10.5 -15.5t8.5 -15.5t3.5 -12.5
q0 -8 -10 -19.5t-23 -22t-26 -17.5t-20 -7q-6 0 -13 6.5t-13 15t-11.5 17t-8.5 12.5z" />
    <glyph glyph-name="guillemotright" unicode="&#xbb;" horiz-adv-x="972" 
d="M542 88q-6 0 -19.5 7.5t-26.5 18t-23 22t-10 19.5q0 5 3.5 12t8.5 15t10.5 15.5t8.5 12.5l185 270l-185 270q-3 5 -8.5 12.5t-10.5 15.5t-8.5 15.5t-3.5 12.5q0 8 9.5 19.5t22.5 21.5t26 17t20 7t14 -6t13 -14.5t11.5 -17t8.5 -13.5l234 -340l-234 -341q-3 -4 -8.5 -13
t-11.5 -17t-13 -14.5t-13 -6.5zM230 88q-6 0 -19.5 7.5t-26.5 18t-23 22t-10 19.5q0 5 3.5 12t8.5 15t10.5 15.5t8.5 12.5l185 270l-185 270q-3 5 -8.5 12.5t-10.5 15.5t-8.5 15.5t-3.5 12.5q0 8 9.5 19.5t22.5 21.5t26 17t20 7t14 -6t13 -14.5t11.5 -17t8.5 -13.5l234 -340
l-234 -341q-3 -4 -8.5 -13t-11.5 -17t-13 -14.5t-13 -6.5z" />
    <glyph glyph-name="multiply" unicode="&#xd7;" 
d="M124 866q0 9 9 22.5t21.5 27t26.5 23t23 9.5q6 0 13.5 -4.5t15 -10.5t14 -12.5t10.5 -11.5l265 -266l265 266l24.5 24.5t26.5 14.5q9 0 23 -9t26.5 -22.5t22 -27.5t9.5 -25q0 -13 -13 -26l-24 -24l-266 -266l248 -247q5 -4 11 -11l12 -14t10 -14t4 -13q0 -9 -9.5 -22.5
t-22 -27t-26.5 -23t-23 -9.5q-12 0 -26.5 14.5l-24.5 24.5l-247 246l-247 -246q-4 -4 -10.5 -11t-14 -13t-15 -10.5t-13.5 -4.5q-9 0 -22.5 9.5t-26.5 22.5t-22 26.5t-9 22.5q0 6 4.5 13.5t10.5 15t12.5 14l10.5 10.5l248 247l-266 266q-4 4 -10.5 10t-12.5 13.5t-10.5 15
t-4.5 13.5z" />
    <glyph glyph-name="macron" unicode="&#xaf;" horiz-adv-x="1024" 
d="M1024 1670h-1024v134h1024v-134z" />
    <glyph glyph-name="ellipsis" unicode="&#x2026;" horiz-adv-x="750" 
d="M35 90q0 38 26 64t64 26t64 -26t26 -64t-26 -64t-64 -26t-64 26t-26 64zM285 90q0 38 26 64t64 26t64 -26t26 -64t-26 -64t-64 -26t-64 26t-26 64zM535 90q0 38 26 64t64 26t64 -26t26 -64t-26 -64t-64 -26t-64 26t-26 64z" />
    <glyph glyph-name="plus" unicode="+" 
d="M880 626q23 0 36.5 -13.5t13.5 -36.5v-48q0 -23 -13.5 -36.5t-36.5 -13.5h-284v-284q0 -23 -13.5 -36.5t-36.5 -13.5h-48q-23 0 -36.5 13.5t-13.5 36.5v284h-284q-23 0 -36.5 13.5t-13.5 36.5v48q0 23 13.5 36.5t36.5 13.5h284v284q0 23 13.5 36.5t36.5 13.5h48
q23 0 36.5 -13.5t13.5 -36.5v-284h284z" />
    <glyph glyph-name="hyphen" unicode="-" 
d="M880 626q23 0 36.5 -13.5t13.5 -36.5v-48q0 -23 -13.5 -36.5t-36.5 -13.5h-716q-23 0 -36.5 13.5t-13.5 36.5v48q0 23 13.5 36.5t36.5 13.5h716z" />
    <glyph glyph-name="less" unicode="&#x3c;" 
d="M139 498q-19 7 -19 26v27v27q0 19 19 26l701 240q21 8 38 -1t25 -30l14 -39q8 -21 -1 -38t-30 -25l-466 -160l466 -160q21 -8 30 -25t1 -38l-14 -39q-8 -21 -25 -30t-38 -1z" />
    <glyph glyph-name="equal" unicode="=" 
d="M880 753q23 0 36.5 -13.5t13.5 -36.5v-48q0 -23 -13.5 -36.5t-36.5 -13.5h-716q-23 0 -36.5 13.5t-13.5 36.5v48q0 23 13.5 36.5t36.5 13.5h716zM880 494q23 0 36.5 -13.5t13.5 -36.5v-48q0 -23 -13.5 -36.5t-36.5 -13.5h-716q-23 0 -36.5 13.5t-13.5 36.5v48
q0 23 13.5 36.5t36.5 13.5h716z" />
    <glyph glyph-name="greater" unicode="&#x3e;" 
d="M207 258q-21 -8 -38 1t-25 30l-14 39q-8 21 1 38t30 25l466 160l-466 160q-21 8 -30 25t-1 38l14 39q8 21 25 30t38 1l701 -240q19 -7 19 -26v-27v-27q0 -19 -19 -26z" />
    <glyph glyph-name="currency" unicode="&#xa4;" 
d="M167 876q10 0 23 -12.5t23 -22.5l139 -140q37 23 78.5 35.5t85.5 12.5q43 0 85 -12t78 -35l140 140l22 22t22 12q9 0 24 -11t29.5 -25.5t25 -30t10.5 -24.5q0 -6 -4 -12.5t-10 -13.5t-12.5 -13.5l-11.5 -11.5l-133 -133q23 -36 34.5 -77.5t11.5 -84.5q0 -45 -12 -87
t-36 -79l136 -135q11 -11 24.5 -25t13.5 -25q0 -9 -10.5 -24.5t-24.5 -30.5t-29.5 -26t-24.5 -11q-10 0 -20.5 10.5l-20.5 20.5l-146 145q-36 -23 -77.5 -33.5t-83.5 -10.5q-43 0 -84 11.5t-77 34.5l-143 -143q-10 -10 -23 -22.5t-23 -12.5q-9 0 -24 11t-29.5 25.5t-25 30
t-10.5 24.5q0 6 4 12.5t10 13.5t13 13.5t12 11.5l136 137q-23 37 -35 78.5t-12 85.5q0 87 46 161l-133 134l-25.5 25.5t-14.5 25.5q0 9 10.5 24.5t25 30.5t29.5 25.5t24 10.5zM324 438q0 -39 15 -74t41.5 -61t61.5 -41t74 -15t74 15t61 41t41 61t15 74t-15 74t-41 61t-61 41
t-74 15t-74 -15t-61.5 -41t-41.5 -61t-15 -74z" />
    <glyph glyph-name="ordfeminine" unicode="&#xaa;" horiz-adv-x="939" 
d="M599 955q-37 0 -59 15t-36 41q-27 -26 -60 -41t-72 -15q-56 0 -97.5 30.5t-69.5 76.5t-41.5 100t-13.5 102t14 102t41.5 100.5t69.5 77t97 30.5q26 0 49 -7t44 -18q7 18 22.5 21.5t32.5 3.5h9q18 0 31.5 -2.5t22 -9.5t12.5 -19.5t4 -32.5v-372q0 -37 3 -73q0 -1 1 -5.5
t2.5 -9t4 -8t6.5 -3.5q8 0 20 16t24.5 37t24.5 41.5t19 29.5q5 15 24 15q9 0 19 -4t19 -10.5t15 -15.5t6 -18q0 -8 -3 -13.5t-7 -11.5q-17 -29 -34 -56t-37.5 -48t-46 -33.5t-60.5 -12.5zM289 1266q0 -11 1.5 -32.5t5 -47t9.5 -51.5t15.5 -47.5t22.5 -35t31 -13.5t31 13.5
t22.5 34.5t16 47t10 51.5t5 46.5t1.5 33q0 17 -3.5 54.5t-13 75.5t-26 66.5t-43.5 28.5t-43.5 -28.5t-25.5 -66.5t-12.5 -75t-3.5 -54zM194 769q-25 0 -33.5 9.5t-8.5 48.5q0 23 2.5 36t8.5 19.5t15.5 8.5t23.5 2q136 0 269.5 0.5t269.5 0.5q13 0 22 -2t15 -8.5t8.5 -19.5
t2.5 -35q0 -20 -2 -32t-7.5 -18t-14 -8t-20.5 -2h-551z" />
    <glyph glyph-name="registered" unicode="&#xae;" horiz-adv-x="1500" 
d="M1115 1208q0 -75 -29 -141t-78.5 -115.5t-116.5 -78.5t-142 -29q-76 0 -142.5 29t-116 78.5t-78 115.5t-28.5 141t29 142t79 117.5t116 79.5t141 29t141.5 -29t116.5 -79.5t79 -117.5t29 -142zM1029 1210q0 57 -22 108t-60.5 89t-89.5 60t-108 22t-108 -22t-89.5 -60
t-60.5 -89t-22 -108t22 -108t60.5 -89.5t89.5 -60.5t108 -22t108 22t89.5 60.5t60.5 89.5t22 108zM939 1018h-94q-27 45 -53 83t-61 76q-22 5 -42.5 5.5t-42.5 0.5v-165h-79v388h200q27 0 52 -5t44.5 -16.5t31 -30.5t11.5 -48q0 -25 -9 -45.5t-24.5 -36t-35.5 -25t-41 -12.5
q26 -8 42.5 -24.5t31.5 -39.5zM825 1297q0 17 -8 28.5t-20.5 18t-27 9.5t-27.5 3h-96v-114h83q15 0 32 1.5t31 7.5t23.5 17t9.5 29z" />
    <glyph glyph-name="degree" unicode="&#xb0;" 
d="M312 1392q0 44 15.5 84t43 71t65.5 49.5t83 18.5t83 -18.5t65 -49.5t42.5 -71.5t15.5 -83.5t-15 -83.5t-42.5 -71t-65.5 -49t-83 -18.5t-83 18.5t-65.5 49t-43 71t-15.5 83.5zM428 1392q0 -21 4 -47t14 -49t28 -38.5t45 -15.5t45 15.5t28.5 38.5t14.5 49t4 47t-4.5 47.5
t-15 50t-28 39.5t-44.5 16t-44.5 -16t-28 -39.5t-14.5 -50t-4 -47.5z" />
    <glyph glyph-name="plusminus" unicode="&#xb1;" 
d="M880 673q23 0 36.5 -13.5t13.5 -36.5v-48q0 -23 -13.5 -36.5t-36.5 -13.5h-284v-284q0 -23 -13.5 -36.5t-36.5 -13.5h-48q-23 0 -36.5 13.5t-13.5 36.5v284h-284q-23 0 -36.5 13.5t-13.5 36.5v48q0 23 13.5 36.5t36.5 13.5h284v284q0 23 13.5 36.5t36.5 13.5h48
q23 0 36.5 -13.5t13.5 -36.5v-284h284zM880 148q23 0 36.5 -13.5t13.5 -36.5v-48q0 -23 -13.5 -36.5t-36.5 -13.5h-716q-23 0 -36.5 13.5t-13.5 36.5v48q0 23 13.5 36.5t36.5 13.5h716z" />
    <glyph glyph-name="twosuperior" unicode="&#xb2;" 
d="M399 855h335q16 0 27 -0.5t18.5 -4.5t11 -12.5t3.5 -23.5q0 -17 -4 -26.5t-11.5 -13.5t-19 -4.5t-25.5 -0.5h-425q-12 0 -25 5t-24 14t-18 20.5t-7 24.5q0 14 8 26t16 23l240 307q14 17 29 42t28.5 52.5t22 55.5t8.5 50q0 56 -29.5 79t-86.5 23q-32 0 -60.5 -6t-59.5 -17
q-10 -3 -17.5 -5t-13.5 -2q-13 0 -24.5 9t-11.5 25q0 22 24.5 37.5t56.5 25t64 14t48 4.5q41 0 84.5 -10.5t79.5 -32.5t59 -56.5t23 -82.5q0 -8 0.5 -15t0.5 -13q0 -24 -9.5 -52t-23 -56t-29.5 -52.5t-30 -42.5z" />
    <glyph glyph-name="threesuperior" unicode="&#xb3;" 
d="M436 854q46 0 84 9t65 29t41.5 52t14.5 78q0 36 -20 67t-51 53.5t-68.5 35t-71.5 12.5h-9q-27 0 -38 5.5t-11 32.5q0 18 4.5 28t12.5 14.5t19 5t25 0.5q22 0 44 8t39.5 22.5t28.5 35t11 46.5q0 20 -7.5 38.5t-21.5 32.5t-34 22.5t-46 8.5q-21 0 -39 -4.5t-33.5 -10.5
t-28.5 -10.5t-24 -4.5q-14 0 -26 9.5t-12 27.5q0 23 20 38.5t48 24.5t58.5 12.5t50.5 3.5q40 0 81 -12.5t74.5 -36t54.5 -58.5t21 -80q0 -50 -25 -87.5t-62 -60.5q77 -23 124.5 -79.5t47.5 -139.5q0 -73 -28 -121.5t-74.5 -78t-106 -42t-123.5 -12.5q-16 0 -48 4.5t-64 14.5
t-56 25t-24 37q0 15 11 25t25 10q12 0 24.5 -6t26.5 -11q23 -8 49.5 -10.5t46.5 -2.5z" />
    <glyph glyph-name="onesuperior" unicode="&#xb9;" 
d="M607 1577q28 0 45.5 -13.5t17.5 -43.5v-695q0 -20 -4.5 -31.5t-13.5 -17t-22 -6.5t-30 -1q-32 0 -49 9.5t-17 46.5v543q-9 -3 -28 -9.5t-39.5 -13t-39 -11.5t-25.5 -5t-14.5 5.5t-13.5 13.5t-9.5 17t-3.5 17q0 9 5 15t12.5 9.5t16.5 6t16 4.5q30 9 49 16t32 17t21 27.5
t16 47.5q5 18 11 28.5t15 16t21.5 6.5t30.5 1z" />
    <glyph glyph-name="ordmasculine" unicode="&#xba;" horiz-adv-x="692" 
d="M150 1269q0 42 11 95t34.5 100.5t61 79.5t89.5 32t89 -32.5t61 -79.5t35 -100.5t11 -95.5q0 -41 -11 -94t-34.5 -99.5t-60.5 -78.5t-90 -32t-90 32t-60.5 79t-34.5 99.5t-11 94.5zM283 1269q0 -8 1 -28t3.5 -45.5t7 -53.5t11.5 -50.5t17 -37.5t23 -15q14 0 23.5 14.5
t17 37.5t12 50.5t7 52.5t3.5 45.5t1 28.5q0 9 -1 29.5t-4 46t-7.5 53t-11.5 50.5t-17 37.5t-23 14.5t-22.5 -14.5t-16.5 -37.5t-12 -50.5t-7.5 -53t-3.5 -46t-1 -28.5zM192 769q-25 0 -33.5 9.5t-8.5 48.5q0 23 2.5 36t8.5 19.5t15.5 8.5t23.5 2q74 0 146.5 0.5t146.5 0.5
q13 0 22.5 -2t15.5 -9t8.5 -20t2.5 -35q0 -39 -9.5 -49t-35.5 -10h-305z" />
    <glyph glyph-name="divide" unicode="&#xf7;" 
d="M859 476h-680q-23 0 -36 1.5t-19.5 7t-8 16.5t-1.5 30v38q0 19 1.5 30t8 16.5t19.5 7t36 1.5h680q26 0 40.5 -1.5t21 -7.5t8 -19t1.5 -36v-11q0 -27 -1 -42t-8 -21.5t-21.5 -8t-41.5 -1.5h1zM422 262q0 37 26.5 63.5t63.5 26.5t63.5 -26.5t26.5 -63.5q0 -38 -26 -64
t-64 -26t-64 26t-26 64zM422 838q0 37 26.5 63.5t63.5 26.5t63.5 -26.5t26.5 -63.5q0 -38 -26 -64t-64 -26t-64 26t-26 64z" />
    <glyph glyph-name="approxequal" unicode="&#x2248;" 
d="M350 648q-30 0 -55.5 -5t-57.5 -18q-4 -2 -13 -5.5t-19 -7t-19.5 -6t-16.5 -2.5q-18 0 -26.5 16.5t-8.5 36.5q0 41 29 67.5t70.5 41.5t86.5 21t77 6q33 0 71.5 -11.5t69.5 -22.5v1q41 -13 75 -17.5t76 -4.5q34 0 60.5 6.5t57.5 17.5q14 5 29 12t29 7q22 0 30 -17.5
t8 -34.5q0 -40 -30 -66t-71 -41.5t-84 -22t-70 -6.5q-43 0 -79 11.5t-71 23.5q-38 13 -73 16.5t-75 3.5zM350 394q-30 0 -56.5 -7t-49 -15.5t-40.5 -15.5t-32 -7q-21 0 -29.5 16.5t-8.5 36.5q0 41 29 67.5t70.5 41.5t86.5 21t77 6q33 0 71.5 -11.5t69.5 -22.5v1
q41 -13 75 -17.5t76 -4.5q34 0 60.5 6.5t57.5 17.5q14 5 29 12t29 7q21 0 29.5 -17t8.5 -36q0 -39 -29.5 -65t-71 -41.5t-84.5 -22t-70 -6.5q-43 0 -79.5 11.5t-70.5 23.5q-40 14 -73 17.5t-75 3.5z" />
    <glyph glyph-name="lessequal" unicode="&#x2264;" 
d="M120 581q0 19 19 26l701 240q9 3 18 3q33 0 45 -34l14 -39q3 -9 3 -18q0 -33 -34 -45l-466 -160l466 -160q34 -12 34 -45q0 -9 -3 -18l-14 -39q-12 -34 -45 -34q-9 0 -18 3l-701 240q-19 7 -19 26v54zM179 217h679q26 0 40.5 -1.5t21 -7.5t8 -18.5t1.5 -35.5v-22
q0 -23 -1.5 -35.5t-8 -18.5t-21 -7.5t-40.5 -1.5h-679q-23 0 -36 1.5t-19.5 7t-8 16.5t-1.5 30v38q0 19 1.5 30t8 16.5t19.5 7t36 1.5z" />
    <glyph glyph-name="notequal" unicode="&#x2260;" 
d="M114 444q0 23 13.5 36.5t36.5 13.5h243l33 111h-276q-23 0 -36.5 13.5t-13.5 36.5v48q0 23 13.5 36.5t36.5 13.5h319l116 396q7 22 23.5 31t38.5 3l62 -18q30 -9 35 -36q2 -13 -4 -37t-17 -60l-82 -279h225q23 0 36.5 -13.5t13.5 -36.5v-48q0 -23 -13.5 -36.5
t-36.5 -13.5h-268l-33 -111h301q23 0 36.5 -13.5t13.5 -36.5v-48q0 -23 -13.5 -36.5t-36.5 -13.5h-344l-119 -405q-7 -22 -23.5 -31t-38.5 -3l-62 18q-22 6 -31.5 23t-2.5 39l105 359h-200q-23 0 -36.5 13.5t-13.5 36.5v48z" />
    <glyph glyph-name="greaterequal" unicode="&#x2265;" 
d="M130 775l14 39q12 34 45 34q9 0 18 -3l701 -240q19 -7 19 -26v-54q0 -19 -19 -26l-701 -240q-9 -3 -18 -3q-33 0 -45 34l-14 39q-3 9 -3 18q0 33 34 45l466 160l-466 160q-34 12 -34 45q0 9 3 18zM115 152q0 23 1 36t6.5 19.5t16 8t28.5 1.5h698q24 0 37 -1t19.5 -7
t7.5 -19t1 -37t-1 -37t-7.5 -19t-19.5 -7t-37 -1h-692q-21 0 -32.5 1.5t-17 7.5t-7 19t-1.5 35z" />
    <glyph glyph-name="scaron" unicode="&#x161;" horiz-adv-x="790" 
d="M258 1206q21 22 36 39.5t31.5 29.5t39 18.5t57.5 6.5q6 0 15 -0.5t17 -3t14 -7.5t6 -14q0 -13 -12.5 -30t-32 -35t-44 -35t-48.5 -30.5t-45 -22t-34 -8.5t-34 8.5t-45 22t-48.5 30.5t-44 35t-32 35t-12.5 30q0 9 6 14t14 7.5t17 3t15 0.5q35 0 57.5 -6.5t39 -18.5
t31.5 -29.5t36 -39.5zM120 823l-1 72q0 23 7 35.5t18.5 19.5t26 8.5t29.5 1.5q45 0 65 -13.5t20 -60.5q0 -23 14 -52.5t36.5 -61.5t50.5 -64.5t55.5 -62t52 -54l40.5 -40.5q27 -27 54.5 -57.5t49.5 -64.5t37 -71t17 -77q1 -14 0.5 -28t-2.5 -26q5 -1 16 -1.5t25 3t29.5 12
t29.5 24.5q8 9 15 20.5t12 25.5q8 19 26 24t35 -1t27 -20.5t2 -34.5q-21 -50 -52 -73.5t-65 -31.5q-38 -9 -70.5 -4.5t-44.5 8.5q-40 -82 -111 -130t-162 -48q-45 0 -86.5 12.5t-73 37.5t-50.5 61.5t-19 84.5q0 20 15.5 28.5t32.5 8.5t32.5 -8.5t15.5 -28.5q0 -27 10.5 -47
t28.5 -32.5t41 -19t48 -6.5q40 0 66 18t41.5 46t21.5 61t6 64q0 41 -14.5 76t-38 65.5t-52 58.5t-55.5 53q-24 22 -42.5 40t-35 36t-32 39.5t-32.5 49.5q-1 -18 -4 -42t-7 -53q-5 -40 -16 -84t-25 -86.5t-30 -82t-31 -71.5q-9 -18 -27 -22.5t-34.5 1t-26.5 20t-2 33.5
q12 29 23.5 67t21.5 77.5t17 78t11 68.5q4 32 7.5 67t6.5 66t4.5 54.5t1.5 33.5z" />
    <glyph glyph-name="caron" unicode="&#x2c7;" horiz-adv-x="546" 
d="M282 1258q21 22 36 39.5t31.5 29.5t39 18.5t57.5 6.5q6 0 15 -0.5t17 -3t14 -7.5t6 -14q0 -13 -12.5 -30t-32 -35t-44 -35t-48.5 -30.5t-45 -22t-34 -8.5t-34 8.5t-45 22t-48.5 30.5t-44 35t-32 35t-12.5 30q0 9 6 14t14 7.5t17 3t15 0.5q35 0 57.5 -6.5t39 -18.5
t31.5 -29.5t36 -39.5z" />
    <glyph glyph-name="Scaron" unicode="&#x160;" horiz-adv-x="1019" 
d="M445 0q-64 0 -110.5 9t-81 23t-59 30t-43.5 30q-21 15 -21 35q0 8 5.5 17.5t14.5 16t20 8.5t23 -6q40 -25 70 -39.5t54 -21.5t43 -9t35 -2q102 0 174 33.5t117 88t65.5 123.5t20.5 139q0 71 -19.5 136.5t-58.5 118t-96.5 88t-133.5 46.5q-39 6 -76 15t-73 25
q-46 21 -89 52.5t-75 72t-51.5 88.5t-19.5 102q0 78 32 143.5t85 113t122.5 74t144.5 26.5q80 0 146 -16t106 -36q12 -6 17 -15t5 -20q0 -21 -15.5 -35t-35.5 -8q-72 22 -124 30.5t-85 8.5q-51 0 -93.5 -22.5t-73.5 -59.5t-48 -85t-17 -99q0 -49 16 -93t44.5 -78t68.5 -57
t89 -31q97 -16 183 -53t150.5 -95.5t102 -139.5t37.5 -185q0 -68 -14.5 -131t-42.5 -118q12 -5 23 -7t16 -4q5 -1 16 -1.5t25 3t29.5 12t29.5 24.5q8 9 15 20.5t12 25.5q8 19 26 24t35 -1t27 -20.5t2 -34.5q-21 -50 -52 -73.5t-65 -31.5q-38 -9 -70.5 -4.5t-44.5 8.5
q-11 3 -23 9t-23 12q-58 -90 -159 -144.5t-254 -54.5zM502 1806.08q-21 21.998 -36 39.4971t-31.5 29.498q-16.5 12 -39 18.499q-22.5 6.5 -57.5 6.5q-6 0 -15 -0.5t-17 -3t-14 -7.49902q-6 -5 -6 -14q0 -19.998 26.5 -47.4971q26.5 -27.498 62.5 -52.4961
q36 -24.999 72 -42.998t55 -17.999t55 17.999t72 42.998q36 24.998 62.5 52.4961q26.5 27.499 26.5 47.4971q0 9 -6 14q-6 4.99902 -14 7.49902t-17 3t-15 0.5q-35 0 -57.5 -6.5q-22.5 -6.49902 -39 -18.499q-16.5 -11.999 -31.5 -29.498t-36 -39.4971z" />
    <glyph glyph-name="dagger" unicode="&#x2020;" horiz-adv-x="1101" 
d="M624 1020h346q26 0 40.5 -1.5t21 -7.5t8 -18.5t1.5 -35.5v-22q0 -23 -1.5 -35.5t-8 -18.5t-21 -7.5t-40.5 -1.5h-346v-1153q0 -23 -1.5 -36t-7 -19.5t-16.5 -8t-30 -1.5h-38q-19 0 -30 1.5t-16.5 8t-7 19.5t-1.5 36v1153h-351q-23 0 -36 1.5t-19.5 7t-8 16.5t-1.5 30v38
q0 19 1.5 30t8 16.5t19.5 7t36 1.5h351v347q0 23 1.5 36t7 19.5t16.5 8t30 1.5h38q19 0 30 -1.5t16.5 -8t7 -19.5t1.5 -36v-347z" />
    <glyph glyph-name="zcaron" unicode="&#x17e;" horiz-adv-x="837" 
d="M219 603q-7 -40 -18 -83.5t-24.5 -86.5t-29 -82.5t-30.5 -71.5q-9 -18 -27 -22.5t-34.5 1t-26.5 20t-2 33.5q12 29 24.5 67t22.5 77.5t16.5 78t6.5 68.5q0 71 -11 134t-36 132q-3 8 -7.5 21.5t-4.5 22.5q0 15 15.5 24.5t35 15t39 7t26.5 1.5q15 0 24.5 -4.5t15 -11.5
t8.5 -16l6 -18q5 -16 25.5 -29t46 -22t51 -14t41.5 -5q99 0 143 38q10 9 17 22.5t14.5 27t17 23t23.5 9.5q10 0 28.5 -6.5t36.5 -17t31 -24t13 -27.5q0 -8 -4 -18.5t-9 -20.5l-317 -696q13 2 40.5 -4t58.5 -14.5t58.5 -17t40.5 -11.5q27 -6 41.5 -9t28.5 -3q38 0 68.5 11.5
t55 32.5t44 50.5t35.5 64.5q7 15 13.5 30t13.5 31q8 19 26 24t35 -1t27 -20.5t2 -34.5q-17 -38 -36 -73q-17 -33 -36.5 -61.5t-44.5 -54.5q-16 -17 -32.5 -33t-38 -29t-51 -20.5t-70.5 -7.5q-42 0 -93 12t-97.5 25t-82.5 21.5t-48 0.5q-5 -3 -9.5 -12.5t-11 -20t-16.5 -18.5
t-26 -8q-12 0 -29.5 6t-34.5 16t-29 23t-12 27q0 9 5.5 22.5t10.5 24.5l296 650q-28 -8 -49 -13.5t-50 -5.5q-42 0 -74.5 10t-70.5 24q2 -11 3 -30.5t1 -44.5t-2 -52.5t-7 -53.5zM392 1206q21 22 36 39.5t31.5 29.5t39 18.5t57.5 6.5q6 0 15 -0.5t17 -3t14 -7.5t6 -14
q0 -13 -12.5 -30t-32 -35t-44 -35t-48.5 -30.5t-45 -22t-34 -8.5t-34 8.5t-45 22t-48.5 30.5t-44 35t-32 35t-12.5 30q0 9 6 14t14 7.5t17 3t15 0.5q35 0 57.5 -6.5t39 -18.5t31.5 -29.5t36 -39.5z" />
    <glyph glyph-name="bullet" unicode="&#x2022;" horiz-adv-x="480" 
d="M110 563q0 27 10.5 50.5t28 41t41 28t50.5 10.5t50.5 -10.5t41 -28t28 -41t10.5 -50.5t-10 -50.5t-28 -41.5t-41.5 -28t-50.5 -10t-50.5 10t-41.5 28t-28 41.5t-10 50.5z" />
    <glyph glyph-name="dotlessi" unicode="&#x131;" horiz-adv-x="424" 
d="M243 0q-63 0 -104.5 25.5t-66 67t-35 92.5t-10.5 102v599q0 47 20 60.5t63 13.5q42 0 62.5 -13.5t20.5 -60.5v-601q0 -17 2.5 -49.5t10 -64.5t22 -56t38.5 -24q29 0 52.5 15t42.5 38.5t34.5 51.5t28.5 54q8 15 14.5 30.5t12.5 30.5q8 19 26 24t35 -1t27 -20.5t2 -34.5
q-8 -19 -17.5 -36.5t-18.5 -34.5q-19 -36 -38.5 -67t-42.5 -56q-32 -35 -75.5 -60t-105.5 -25z" />
    <glyph glyph-name="idieresis" unicode="&#xef;" horiz-adv-x="424" 
d="M27 287v599q0 47 20 60.5t63 13.5q42 0 62.5 -13.5t20.5 -60.5v-601q0 -17 2.5 -49.5t10 -64.5t22 -56t38.5 -24q35 0 63.5 23.5t52 57.5t40.5 72t29 67q6 14 17 20t24 6q20 0 36 -11.5t16 -30.5q0 -7 -3 -16q-10 -22 -23.5 -49t-29 -53.5t-32 -50.5t-32.5 -41
q-32 -35 -75.5 -60t-105.5 -25q-63 0 -104.5 25.5t-66 67t-35 92.5t-10.5 102zM124 1210q0 38 26 64t64 26t64 -26t26 -64t-26 -64t-64 -26t-64 26t-26 64zM-84 1210q0 38 26 64t64 26t64 -26t26 -64t-26 -64t-64 -26t-64 26t-26 64z" />
    <glyph glyph-name="I" unicode="I" horiz-adv-x="500" 
d="M363 100v-8.5t2 -6.5q1 -3 12.5 -6t26 -6t28.5 -5.5t20 -4.5q9 -3 18.5 -12t9.5 -29v-4q-1 -2 -1.5 -4t-2.5 -4q-4 -3 -16 -5.5t-29 -3.5t-37 -1.5t-40 -0.5h-148q-19 0 -39.5 0.5t-37.5 1.5t-29 3.5t-16 5.5q-3 4 -3.5 8.5t-0.5 9.5q0 16 9.5 24t18.5 11q6 2 20 4.5
t28.5 5.5t26 6t12.5 6q2 3 2 6.5v8.5v1376v8.5t-2 6.5q-1 3 -12.5 6t-26 6t-28.5 5.5t-20 4.5q-9 3 -18.5 12t-9.5 29q0 2 1 4q0 5 3 8q4 3 16 5.5t29 3.5t37.5 1.5t39.5 0.5h148q20 0 40 -0.5t37 -1.5t29 -3.5t16 -5.5q3 -4 3.5 -8.5t0.5 -9.5q0 -16 -9.5 -24t-18.5 -11
q-6 -2 -20 -4.5t-28.5 -5.5t-26 -6t-12.5 -6q-2 -3 -2 -6.5v-8.5v-1376z" />
    <glyph glyph-name="uni00A0" unicode="&#xa0;" horiz-adv-x="442" 
 />
    <glyph glyph-name="a_x" horiz-adv-x="1885" 
d="M30 681q17 52 46 102t68.5 89.5t88.5 63.5t107 24q50 0 93 -18t81 -50q0 24 5 37.5t15 20.5t25 8.5t34 1.5q23 0 39.5 -2t27 -9.5t15.5 -22t5 -40.5v-614q0 -17 1 -47.5t7 -60t19.5 -51.5t37.5 -22q26 0 49.5 14.5t44 37.5t37.5 51t29 56q19 44 32.5 111t24 140.5t19 145
t16.5 123.5q6 37 17.5 71t31.5 60.5t50 42.5t72 16q44 0 79 -19t63 -50t48.5 -69t36.5 -76q14 32 33.5 69t48 69.5t66.5 54t89 21.5q49 0 97.5 -10t84.5 -42q16 -13 16 -32.5t-9 -34t-24.5 -20t-31.5 8.5q-20 12 -45.5 25.5t-68.5 13.5q-30 0 -54.5 -21.5t-43.5 -55.5
t-33 -77t-23.5 -86t-14 -82.5t-4.5 -66.5q0 -34 3 -76.5t10.5 -85.5t20.5 -84t33 -73t48.5 -51t66.5 -19q77 0 134.5 44t90.5 115q7 15 13.5 30t13.5 31q8 19 26 24t35 -1t27 -20.5t2 -34.5q-13 -31 -26 -57t-27 -48.5t-29.5 -43t-34.5 -40.5q-16 -17 -36 -33t-45.5 -29
t-58.5 -20.5t-74 -7.5q-53 0 -99 10.5t-81.5 34t-60 61t-35.5 91.5q-13 -31 -34 -65.5t-48.5 -63.5t-61 -48t-73.5 -19q-49 0 -87.5 9.5t-74.5 41.5q-16 14 -16 33t9 33.5t24.5 20t31.5 -8.5q20 -12 43 -25.5t51 -13.5q30 0 53 23t40 59.5t28.5 81t18.5 86.5t10 77t3 52
q0 21 -3.5 58.5t-11 81.5t-19 90t-27.5 83.5t-36 61.5t-45 24q-19 0 -32.5 -12t-23 -29.5t-14.5 -36.5t-8 -34q-10 -52 -18 -111t-17.5 -120.5t-21 -123t-28.5 -119.5t-41 -109.5t-57 -92.5q-32 -39 -79 -60t-116 -21q-25 0 -48.5 9.5t-43.5 25t-35.5 36.5t-24.5 45
q-45 -50 -99 -83t-125 -33q-57 0 -104.5 22t-85 59.5t-65.5 86t-46.5 102t-27.5 108t-9 102.5q0 52 7 102.5t23 98.5zM340 91q34 0 60 21t45 55t32.5 76.5t21.5 85.5t11.5 83t3.5 68t-3.5 67.5t-11.5 83t-21.5 86t-32.5 76.5t-45 55t-60 21t-60 -21t-45.5 -55t-32.5 -76.5
t-21 -85t-11.5 -81.5t-3.5 -65q0 -25 3 -64t11 -82.5t20.5 -88t32 -80t46 -57.5t61.5 -22z" />
    <glyph glyph-name="e_x" horiz-adv-x="1683" 
d="M316 869q-33 0 -57 -22.5t-41 -58.5t-27.5 -81t-16.5 -88.5t-8 -81.5t-2 -61q0 -8 0.5 -16t2.5 -16q48 26 97 43t102 29q23 6 41.5 11.5t31 15.5t19 25.5t6.5 41.5q0 19 -3.5 45.5t-11.5 55.5t-20 57t-28 50.5t-37.5 36.5t-47.5 14zM968 869q-19 0 -34.5 -12t-27 -29.5
t-19 -36.5t-10.5 -34q-16 -78 -29.5 -170t-34 -184t-54 -176t-90.5 -146q-36 -39 -94 -60t-127 -21q-107 0 -190.5 37t-140.5 100.5t-87 150t-30 185.5q0 49 7.5 104t24 109t41.5 104t60 87.5t80.5 60t102.5 22.5q67 0 121 -30.5t92 -80t58.5 -110.5t20.5 -123
q0 -64 -21 -102.5t-55.5 -60.5t-79 -32t-92 -18.5t-94.5 -19.5t-85 -35q8 -52 31 -98.5t59.5 -82t85 -56t106.5 -20.5q54 0 88.5 14t57.5 36.5t36.5 51t25.5 57.5q18 46 33.5 113.5t28 140.5t23 143.5t19.5 122.5q6 37 21 71.5t39 60.5t56.5 42t74.5 16q44 0 79 -19t63 -50
t48.5 -69t36.5 -76q14 32 33.5 69t48 69.5t66.5 54t89 21.5q49 0 97.5 -10t84.5 -42q16 -13 16 -32.5t-9 -34t-24.5 -20t-31.5 8.5q-20 12 -45.5 25.5t-68.5 13.5q-30 0 -54.5 -21.5t-43.5 -55.5t-33 -77t-23.5 -86t-14 -82.5t-4.5 -66.5q0 -34 3 -76.5t10.5 -85.5t20.5 -84
t33 -73t48.5 -51t66.5 -19q77 0 134.5 44t90.5 115q7 15 13.5 30t13.5 31q8 19 26 24t35 -1t27 -20.5t2 -34.5q-26 -61 -52.5 -105t-64.5 -84q-16 -17 -36 -33t-45.5 -29t-58.5 -20.5t-74 -7.5q-53 0 -99 10.5t-81.5 34t-60 61t-35.5 91.5q-13 -31 -34 -65.5t-48.5 -63.5
t-61 -48t-73.5 -19q-49 0 -87.5 9.5t-74.5 41.5q-16 14 -16.5 32.5t8.5 33t25 20t32 -7.5q18 -14 42 -26.5t52 -12.5q30 0 53 23t40 59.5t28.5 81t18.5 86.5t10 77t3 52q0 21 -3.5 58.5t-11 81.5t-19 90t-27.5 83.5t-36 61.5t-45 24z" />
    <glyph glyph-name="i_x" horiz-adv-x="1400" 
d="M27 1160q0 35 23.5 58.5t58.5 23.5q34 0 57.5 -24t23.5 -58t-23.5 -57.5t-58.5 -23.5q-34 0 -57.5 23t-23.5 58zM243 0q-63 0 -104.5 25.5t-66 67t-35 92.5t-10.5 102v599q0 47 20 60.5t63 13.5q42 0 62.5 -13.5t20.5 -60.5v-601q0 -17 2.5 -49.5t10 -64.5t22 -56
t38.5 -24t46.5 14.5t42.5 37.5t36.5 51t28.5 56q19 44 32.5 111t24 140.5t19 145t16.5 123.5q6 37 17.5 71t31.5 60.5t50 42.5t72 16q44 0 79 -19t63 -50t48.5 -69t36.5 -76q14 32 33.5 69t48 69.5t66.5 54t89 21.5q49 0 97.5 -10t84.5 -42q16 -13 16 -32.5t-9 -34
t-24.5 -20t-31.5 8.5q-20 12 -45.5 25.5t-68.5 13.5q-30 0 -54.5 -21.5t-43.5 -55.5t-33 -77t-23.5 -86t-14 -82.5t-4.5 -66.5q0 -34 3 -76.5t10.5 -85.5t20.5 -84t33 -73t48.5 -51t66.5 -19q77 0 134.5 44t90.5 115q7 15 13.5 30t13.5 31q8 19 26 24t35 -1t27 -20.5
t2 -34.5q-26 -61 -52.5 -105t-64.5 -84q-16 -17 -36 -33t-45.5 -29t-58.5 -20.5t-74 -7.5q-53 0 -99 10.5t-81.5 34t-60 61t-35.5 91.5q-13 -31 -34 -65.5t-48.5 -63.5t-61 -48t-73.5 -19q-49 0 -87.5 9.5t-74.5 41.5q-16 14 -16 33t9 33.5t24.5 20t31.5 -8.5
q20 -12 43 -25.5t51 -13.5q30 0 53 23t40 59.5t28.5 81t18.5 86.5t10 77t3 52q0 21 -3.5 58.5t-11 81.5t-19 90t-27.5 83.5t-36 61.5t-45 24q-19 0 -32.5 -12t-23 -29.5t-14.5 -36.5t-8 -34q-10 -52 -18 -111t-17.5 -120.5t-21 -123t-28.5 -119.5t-40.5 -109.5t-57.5 -92.5
q-32 -39 -77.5 -60t-103.5 -21z" />
    <glyph glyph-name="n_x" horiz-adv-x="1756" 
d="M599 0q-66 0 -105 25.5t-59.5 66t-26 90.5t-5.5 98q0 50 3 97t7 93t7 91t3 90q0 26 -2 63t-12.5 71.5t-31 59t-58.5 24.5q-26 0 -45 -22t-33 -56t-23.5 -76t-15 -81.5t-7.5 -72.5t-2 -49v-438q0 -26 -5.5 -40.5t-17 -22t-28 -9.5t-38.5 -2q-42 0 -59.5 14.5t-17.5 59.5
v812q0 27 6.5 42t19 22t30.5 8.5t40 1.5q42 0 56.5 -15t13.5 -59q24 38 52.5 56t73.5 18q72 0 123 -25t83 -68t46.5 -101.5t14.5 -126.5q0 -33 -3 -70t-7 -75.5t-8.5 -75.5t-7.5 -70q-4 -38 -6 -71t-2 -70q0 -15 1.5 -35t8 -38t21 -30.5t39.5 -12.5q24 0 46.5 14.5
t42.5 37.5t36.5 51t28.5 56q19 44 32.5 111t24 140.5t19 145t16.5 123.5q6 37 17.5 71t31.5 60.5t50 42.5t72 16q44 0 79 -19t63 -50t48.5 -69t36.5 -76q14 32 33.5 69t48 69.5t66.5 54t89 21.5q49 0 97.5 -10t84.5 -42q16 -13 16 -32.5t-9 -34t-24.5 -20t-31.5 8.5
q-20 12 -45.5 25.5t-68.5 13.5q-30 0 -54.5 -21.5t-43.5 -55.5t-33 -77t-23.5 -86t-14 -82.5t-4.5 -66.5q0 -34 3 -76.5t10.5 -85.5t20.5 -84t33 -73t48.5 -51t66.5 -19q77 0 134.5 44t90.5 115q7 15 13.5 30t13.5 31q8 19 26 24t35 -1t27 -20.5t2 -34.5q-26 -61 -52.5 -105
t-64.5 -84q-16 -17 -36 -33t-45.5 -29t-58.5 -20.5t-74 -7.5q-53 0 -99 10.5t-81.5 34t-60 61t-35.5 91.5q-13 -31 -34 -65.5t-48.5 -63.5t-61 -48t-73.5 -19q-49 0 -87.5 9.5t-74.5 41.5q-16 14 -16 33t9 33.5t24.5 20t31.5 -8.5q20 -12 43 -25.5t51 -13.5q30 0 53 23
t40 59.5t28.5 81t18.5 86.5t10 77t3 52q0 21 -3.5 58.5t-11 81.5t-19 90t-27.5 83.5t-36 61.5t-45 24q-19 0 -32.5 -12t-23 -29.5t-14.5 -36.5t-8 -34q-10 -52 -18 -111t-17.5 -120.5t-21 -123t-28.5 -119.5t-41 -109.5t-57 -92.5q-32 -39 -77.5 -60t-103.5 -21z" />
    <glyph glyph-name="r_x" horiz-adv-x="1736" 
d="M556 91q45 0 74 14.5t49 37.5t33 51t25 56q19 44 32.5 111t24 140.5t19 145t16.5 123.5q6 37 20.5 71t38 60.5t56.5 42.5t75 16q44 0 79 -19t63 -50t48.5 -69t36.5 -76q14 32 33.5 69t48 69.5t66.5 54t89 21.5q49 0 97.5 -10t84.5 -42q16 -13 16 -32.5t-9 -34t-24.5 -20
t-31.5 8.5q-20 12 -45.5 25.5t-68.5 13.5q-30 0 -54.5 -21.5t-43.5 -55.5t-33 -77t-23.5 -86t-14 -82.5t-4.5 -66.5q0 -34 3 -76.5t10.5 -85.5t20.5 -84t33 -73t48.5 -51t66.5 -19q77 0 134.5 44t90.5 115q7 15 13.5 30t13.5 31q8 19 26 24t35 -1t27 -20.5t2 -34.5
q-26 -61 -52.5 -105t-64.5 -84q-16 -17 -36 -33t-45.5 -29t-58.5 -20.5t-74 -7.5q-53 0 -99 10.5t-81.5 34t-60 61t-35.5 91.5q-13 -31 -34 -65.5t-48.5 -63.5t-61 -48t-73.5 -19q-49 0 -87.5 9.5t-74.5 41.5q-16 14 -16 33t9 33.5t24.5 20t31.5 -8.5q20 -12 43 -25.5
t51 -13.5q30 0 53 23t40 59.5t28.5 81t18.5 86.5t10 77t3 52q0 21 -3.5 58.5t-11 81.5t-19 90t-27.5 83.5t-36 61.5t-45 24q-19 0 -35.5 -12t-29.5 -29.5t-21 -36.5t-11 -34q-15 -78 -26 -171t-28 -185.5t-46.5 -176t-82.5 -143.5q-35 -39 -86.5 -60t-120.5 -21
q-46 0 -85.5 14t-68 42.5t-44.5 71t-16 99.5q0 64 13.5 133t33 139t43 138t42.5 129q-31 -13 -63 -18t-65 -5q-20 0 -34 1t-25 3.5t-21.5 6.5t-24.5 11q5 -22 6 -45t0.5 -44.5t-2.5 -40t-4 -32.5q-8 -57 -25.5 -118.5t-39.5 -117.5q-9 -24 -18.5 -46t-18.5 -42
q-9 -18 -27 -22.5t-34.5 1t-26.5 20t-2 33.5q14 35 28 79q17 54 29.5 111.5t12.5 100.5q0 38 -12.5 109t-44.5 157q-4 10 -8 22t-4 20q0 16 15.5 25.5t35.5 15t39.5 7t27.5 1.5q15 0 23.5 -4.5t13 -12t6.5 -17.5t5 -21q4 -17 17 -29t31 -19.5t40 -11t44 -3.5q15 0 39.5 1
t50 7.5t46.5 21.5t30 42q2 5 4.5 13t7.5 15.5t12.5 13t19.5 5.5q8 0 27.5 -3t39.5 -9t35.5 -15.5t15.5 -22.5q0 -8 -4.5 -21t-7.5 -21q-30 -88 -58 -167.5t-50.5 -158.5t-36 -161.5t-13.5 -176.5q0 -52 17 -82.5t55 -30.5z" />
    <glyph glyph-name="o_x" horiz-adv-x="1640" 
d="M479 920q-47 3 -80.5 -1t-58 -15t-43 -29t-35.5 -43q-28 -31 -46.5 -78t-29.5 -97t-15.5 -96t-4.5 -76q0 -25 3 -64t11 -82.5t20.5 -87.5t32 -79.5t46 -57.5t61.5 -22q34 0 60 21t45 54.5t32.5 76t21.5 85.5t11.5 83t3.5 68q0 17 -0.5 32.5t-2 33t-4 37.5t-7.5 46
q-11 -4 -31.5 -6.5t-44.5 -2.5q-26 0 -50.5 9t-43 25t-29.5 39.5t-11 51.5q0 72 46.5 107t126.5 35q30 0 55.5 -10t45.5 -33q9 -11 16.5 -24.5t14.5 -25.5q24 26 49 55.5t57.5 54t76 40.5t105.5 16q71 0 115.5 -19t73 -50t45.5 -69t33 -76q14 32 33.5 69t48 69.5t66.5 54
t89 21.5q49 0 97.5 -10t84.5 -42q16 -13 16 -32.5t-9 -34t-24.5 -20t-31.5 8.5q-20 12 -45.5 25.5t-68.5 13.5q-30 0 -54.5 -21.5t-43.5 -55.5t-33 -77t-23.5 -86t-14 -82.5t-4.5 -66.5q0 -34 3 -76.5t10.5 -85.5t20.5 -84t33 -73t48.5 -51t66.5 -19q77 0 134.5 44t90.5 115
q7 15 13.5 30t13.5 31q8 19 26 24t35 -1t27 -20.5t2 -34.5q-26 -61 -52.5 -105t-64.5 -84q-16 -17 -36 -33t-45.5 -29t-58.5 -20.5t-74 -7.5q-53 0 -99 10.5t-81.5 34t-60 61t-35.5 91.5q-13 -31 -34 -65.5t-48.5 -63.5t-61 -48t-73.5 -19q-49 0 -87.5 9.5t-74.5 41.5
q-16 14 -16 33t9 33.5t24.5 20t31.5 -8.5q20 -12 43 -25.5t51 -13.5q30 0 53 23t40 59.5t28.5 81t18.5 86.5t10 77t3 52q0 21 -1 58.5t-6.5 81.5t-16.5 90t-31 83.5t-51 61.5t-76 24q-52 0 -91 -20t-68.5 -47t-50.5 -54.5t-37 -43.5q13 -33 21 -61t12.5 -55t6.5 -54.5
t2 -59.5q0 -56 -11.5 -119.5t-34.5 -119.5q-19 -44 -47.5 -86.5t-66 -75.5t-82.5 -53t-97 -20h-3q-55 0 -102 22t-84.5 59t-66 86t-47.5 102.5t-28.5 109.5t-9.5 106t9.5 104t28 107t47 101t66 84t85 57.5t104.5 21.5q40 0 75 -11t64 -29zM384 762q0 -8 3 -18.5t11 -20
t21.5 -16t33.5 -6.5q11 0 17 2t11 6q-3 11 -4.5 17t-3.5 11t-4.5 11t-6.5 15q-2 5 -5.5 12.5t-8.5 14t-11.5 11t-14.5 4.5q-12 0 -25 -11.5t-13 -31.5z" />
    <glyph glyph-name="u_x" horiz-adv-x="1885" 
d="M745 91q26 0 49.5 14.5t44 37.5t37.5 51t29 56q19 44 32.5 111t24 140.5t19 145t16.5 123.5q6 37 17.5 71t31.5 60.5t50 42.5t72 16q44 0 79 -19t63 -50t48.5 -69t36.5 -76q14 32 33.5 69t48 69.5t66.5 54t89 21.5q49 0 97.5 -10t84.5 -42q16 -13 16 -32.5t-9 -34
t-24.5 -20t-31.5 8.5q-20 12 -45.5 25.5t-68.5 13.5q-30 0 -54.5 -21.5t-43.5 -55.5t-33 -77t-23.5 -86t-14 -82.5t-4.5 -66.5q0 -34 3 -76.5t10.5 -85.5t20.5 -84t33 -73t48.5 -51t66.5 -19q77 0 134.5 44t90.5 115q7 15 13.5 30t13.5 31q8 19 26 24t35 -1t27 -20.5
t2 -34.5q-26 -61 -52.5 -105t-64.5 -84q-16 -17 -36 -33t-45.5 -29t-58.5 -20.5t-74 -7.5q-53 0 -99 10.5t-81.5 34t-60 61t-35.5 91.5q-13 -31 -34 -65.5t-48.5 -63.5t-61 -48t-73.5 -19q-49 0 -87.5 9.5t-74.5 41.5q-16 14 -16 33t9 33.5t24.5 20t31.5 -8.5
q20 -12 43 -25.5t51 -13.5q30 0 53 23t40 59.5t28.5 81t18.5 86.5t10 77t3 52q0 21 -3.5 58.5t-11 81.5t-19 90t-27.5 83.5t-36 61.5t-45 24q-19 0 -32.5 -12t-23 -29.5t-14.5 -36.5t-8 -34q-10 -52 -18 -111t-17.5 -120.5t-21 -123t-28.5 -119.5t-41 -109.5t-57 -92.5
q-32 -39 -79 -60t-116 -21q-25 0 -48.5 9.5t-43.5 25t-35.5 36.5t-24.5 45q-45 -53 -98 -84.5t-122 -31.5q-57 0 -105 21.5t-86 57.5t-66.5 83.5t-47 99.5t-28 105.5t-9.5 101.5v417q0 25 4.5 40t14.5 22.5t25.5 9.5t36.5 2q23 0 39 -2.5t26.5 -10t15 -22t4.5 -39.5v-417
q0 -24 3.5 -61.5t11.5 -79.5t21 -84t32 -76t45.5 -55.5t60.5 -21.5q35 0 61.5 22t46 57t32 78.5t20.5 87t11 81.5t3 63v406q0 25 4.5 40t14 22.5t25 9.5t36.5 2q23 0 39 -2.5t26.5 -10t15 -22t4.5 -39.5v-614q0 -17 1 -47.5t7.5 -60t20 -51.5t37.5 -22z" />
    <glyph glyph-name="y_x" horiz-adv-x="1827" 
d="M513 -109q-30 -25 -47 -51t-25.5 -53t-10 -56.5t-1.5 -61.5v-25v-36.5t1.5 -54t5 -60.5t9.5 -56.5t16 -41.5t24 -16q9 0 14.5 8t8.5 19.5t4 25t1 24.5v435zM679 69q52 17 97.5 64.5t70.5 116.5q16 44 29 111t24.5 140.5t21 145t17.5 123.5q6 37 17.5 71t31.5 60.5
t50 42.5t72 16q44 0 79 -19t63 -50t48.5 -69t36.5 -76q14 32 33.5 69t48 69.5t66.5 54t89 21.5q49 0 97.5 -10t84.5 -42q16 -13 16 -32.5t-9 -34t-24.5 -20t-31.5 8.5q-20 12 -45.5 25.5t-68.5 13.5q-30 0 -54.5 -21.5t-43.5 -55.5t-33 -77t-23.5 -86t-14 -82.5t-4.5 -66.5
q0 -34 3 -76.5t10.5 -85.5t20.5 -84t33 -73t48.5 -51t66.5 -19q77 0 134.5 44t90.5 115q7 15 13.5 30t13.5 31q8 19 26 24t35 -1t27 -20.5t2 -34.5q-26 -61 -52.5 -105t-64.5 -84q-16 -17 -36 -33t-45.5 -29t-58.5 -20.5t-74 -7.5q-53 0 -99 10.5t-81.5 34t-60 61
t-35.5 91.5q-13 -31 -34 -65.5t-48.5 -63.5t-61 -48t-73.5 -19q-49 0 -87.5 9.5t-74.5 41.5q-16 14 -16 33t9 33.5t24.5 20t31.5 -8.5q20 -12 43 -25.5t51 -13.5q30 0 53 23t40 59.5t28.5 81t18.5 86.5t10 77t3 52q0 21 -3.5 58.5t-11 81.5t-19 90t-27.5 83.5t-36 61.5
t-45 24q-19 0 -32.5 -12t-23 -29.5t-14.5 -36.5t-8 -34q-15 -78 -26 -171t-28.5 -185t-47 -176t-81.5 -144q-17 -19 -33 -35t-35.5 -30t-44.5 -26.5t-59 -25.5v-344q0 -50 -6.5 -105.5t-26.5 -102t-58 -76.5t-101 -30q-66 0 -107.5 32.5t-65 81.5t-32 107.5t-8.5 109.5
q0 58 17.5 111.5t49.5 100t76 85t96 67.5v66q-35 -32 -81 -49.5t-97 -17.5q-57 0 -104 22t-84 59t-64.5 85.5t-46 102t-27.5 108t-9 103.5v406q0 25 4.5 40t14.5 22.5t26 9.5t38 2t37.5 -2t25.5 -9.5t15 -22.5t5 -40v-406q0 -24 3 -62.5t11 -82t20.5 -87t31.5 -78.5
t45.5 -57t60.5 -22q35 0 61.5 22t46 57.5t32.5 79.5t21 87t11.5 81t3.5 62v412q0 24 5 38t14.5 20.5t23 8t31.5 1.5q25 0 42.5 -2t28.5 -9.5t16 -22t5 -40.5z" />
    <glyph glyph-name="A_x" horiz-adv-x="2125" 
d="M966 0q-67 0 -105.5 30t-56.5 77q-24 -30 -59.5 -50t-76 -33t-82.5 -18.5t-81 -5.5q-104 0 -180 35.5t-130 95.5t-88 139t-53.5 166.5t-26.5 178t-7 172.5q0 96 15.5 192t48.5 183.5t83.5 163t119.5 131.5t158 87.5t198 31.5q35 0 73 -2.5t74.5 -11.5t68 -27t52.5 -50
q4 -6 7 -12.5t3 -12.5q0 -9 -7.5 -16t-18.5 -7q-14 0 -37 9.5t-46 17.5q-38 13 -80 17t-89 4q-85 0 -151.5 -33t-117.5 -88t-86.5 -126.5t-58 -149.5t-33 -155.5t-10.5 -145.5q0 -37 2.5 -86.5t9 -105.5t17.5 -115t28 -115t41.5 -106t57 -87t74.5 -59t95 -22q49 0 93 19
t77.5 51.5t53 76t19.5 92.5v930q0 27 16.5 43.5t43.5 16.5h46q27 0 43.5 -16.5t16.5 -43.5v-1058q0 -10 1.5 -28.5t8 -37t20 -32t36.5 -13.5q26 0 49.5 14.5t44 37.5t37 51t28.5 56q19 44 32.5 111t24 140.5t19 145t16.5 123.5q6 37 17.5 71t31.5 60.5t50 42.5t72 16
q44 0 79 -19t63 -50t48.5 -69t36.5 -76q14 32 33.5 69t48 69.5t66.5 54t89 21.5q49 0 97.5 -10t84.5 -42q16 -13 16 -32.5t-9 -34t-24.5 -20t-31.5 8.5q-20 12 -45.5 25.5t-68.5 13.5q-30 0 -54.5 -21.5t-43.5 -55.5t-33 -77t-23.5 -86t-14 -82.5t-4.5 -66.5q0 -34 3 -76.5
t10.5 -85.5t20.5 -84t33 -73t48.5 -51t66.5 -19q77 0 134.5 44t90.5 115q7 15 13.5 30t13.5 31q8 19 26 24t35 -1t27 -20.5t2 -34.5q-26 -61 -52.5 -105t-64.5 -84q-16 -17 -36 -33t-45.5 -29t-58.5 -20.5t-74 -7.5q-53 0 -99 10.5t-81.5 34t-60 61t-35.5 91.5
q-13 -31 -34 -65.5t-48.5 -63.5t-61 -48t-73.5 -19q-49 0 -87.5 9.5t-74.5 41.5q-16 14 -16 33t9 33.5t24.5 20t31.5 -8.5q20 -12 43 -25.5t51 -13.5q30 0 53 23t40 59.5t28.5 81t18.5 86.5t10 77t3 52q0 21 -3.5 58.5t-11 81.5t-19 90t-27.5 83.5t-36 61.5t-45 24
q-19 0 -32.5 -12t-23 -29.5t-14.5 -36.5t-8 -34q-10 -52 -18 -111t-17.5 -120.5t-21 -123t-28.5 -119.5t-41 -109.5t-57 -92.5q-32 -39 -77.5 -60t-105.5 -21z" />
    <glyph glyph-name="E_x" horiz-adv-x="1799" 
d="M1084 869q-19 0 -33 -12t-24 -29t-16 -36.5t-9 -34.5q-10 -52 -17 -110.5t-14.5 -118t-17 -119t-24.5 -114t-36.5 -101t-53.5 -81.5q-27 -30 -62 -51.5t-72 -35t-73 -20t-66 -6.5q-104 0 -196 28t-161 86.5t-109 149.5t-40 216q0 73 22 140t62 124t96 100.5t124 68.5
q-46 22 -85 53t-67.5 70.5t-45 87.5t-16.5 104q0 74 28 137.5t76.5 110.5t115 73.5t143.5 26.5q34 0 72.5 -2.5t75 -11.5t68 -27t52.5 -50q4 -6 7 -12.5t3 -12.5q0 -9 -7 -16t-18 -7q-7 0 -17 4t-20.5 9t-20.5 10.5t-18 9.5q-22 10 -39.5 16t-34.5 9.5t-35.5 4.5t-43.5 1
q-52 0 -93 -25t-69.5 -64.5t-43.5 -88t-15 -96.5q0 -46 14 -93.5t42 -86t68.5 -63t93.5 -24.5q38 0 54.5 -6.5t16.5 -38.5q0 -20 -5.5 -31t-15.5 -16t-22.5 -5.5t-27.5 -0.5q-71 0 -128 -37t-97 -94t-61.5 -125t-21.5 -129q0 -87 22.5 -158t68 -122t113.5 -78.5t158 -27.5
q52 0 90.5 14.5t65.5 36.5t44 47t27 46q24 51 39.5 121.5t26 145t17.5 145.5t15 123q6 37 17 71.5t31 60.5t49.5 42t71.5 16q44 0 79 -19t63 -50t48.5 -69t36.5 -76q14 32 33.5 69t48 69.5t66.5 54t89 21.5q49 0 97.5 -10t84.5 -42q16 -13 16 -32.5t-9 -34t-24.5 -20
t-31.5 8.5q-20 12 -45.5 25.5t-68.5 13.5q-30 0 -54.5 -21.5t-43.5 -55.5t-33 -77t-23.5 -86t-14 -82.5t-4.5 -66.5q0 -34 3 -76.5t10.5 -85.5t20.5 -84t33 -73t48.5 -51t66.5 -19q77 0 134.5 44t90.5 115q7 15 13.5 30t13.5 31q8 19 26 24t35 -1t27 -20.5t2 -34.5
q-9 -20 -18 -38.5t-18 -35.5q-17 -35 -36.5 -64.5t-44.5 -55.5q-16 -17 -36 -32.5t-45.5 -27t-58.5 -18.5t-74 -7q-53 0 -99 10.5t-81.5 34t-60 61t-35.5 91.5q-13 -31 -34 -65.5t-48.5 -63.5t-61 -48t-73.5 -19q-49 0 -87.5 9.5t-74.5 41.5q-16 14 -16 33t9 33.5t24.5 20
t31.5 -8.5q20 -12 43 -25.5t51 -13.5q30 0 53 23t40 59.5t28.5 81t18.5 86.5t10 77t3 52q0 21 -3.5 58.5t-11 81.5t-19 90t-27.5 83.5t-36 61.5t-45 24z" />
    <glyph glyph-name="I_x" horiz-adv-x="1429" 
d="M569 130q20 -12 45.5 -25.5t68.5 -13.5q30 0 54.5 21.5t43.5 55.5t33 77t23.5 86t14 82.5t4.5 66.5t-4.5 66.5t-14 82.5t-23.5 86t-33 77t-43.5 55.5t-54.5 21.5q-43 0 -68.5 -13.5t-45.5 -25.5q-11 -10 -23 -10q-17 0 -29.5 16.5t-12.5 36.5t16 35q36 32 84.5 42
t97.5 10q51 0 89 -21.5t66.5 -54t48.5 -69.5t33 -69q14 32 33.5 69t48 69.5t66.5 54t89 21.5q49 0 97.5 -10t84.5 -42q16 -15 16 -35t-12.5 -36.5t-29.5 -16.5q-12 0 -23 10q-20 12 -45.5 25.5t-68.5 13.5q-30 0 -54.5 -21.5t-43.5 -55.5t-33 -77t-23.5 -86t-14 -82.5
t-4.5 -66.5q0 -34 3 -76.5t10.5 -85.5t20.5 -84t33 -73t48.5 -51t66.5 -19q77 0 134.5 44t90.5 115q7 15 13.5 30t13.5 31q6 14 17 20t24 6q20 0 36 -11.5t16 -30.5q0 -7 -3 -16q-23 -56 -52.5 -106.5t-69.5 -89t-91 -61t-118 -22.5q-107 0 -180.5 53t-95.5 161
q-13 -31 -33 -68.5t-48.5 -70t-66.5 -54t-89 -21.5q-49 0 -97.5 10t-84.5 42q-16 15 -16 35t12.5 36.5t29.5 16.5q12 0 23 -10zM80 28q0 16 9.5 24t18.5 11q6 2 20 4.5t28.5 5.5t26 6t12.5 6q2 3 2 6.5v8.5v1376v8.5t-2 6.5q-1 3 -12.5 6t-26 6t-28.5 5.5t-20 4.5
q-9 3 -18.5 12t-9.5 29q0 2 1 4q0 5 3 8q4 3 16 5.5t29 3.5t37.5 1.5t39.5 0.5h148q20 0 40 -0.5t37 -1.5t29 -3.5t16 -5.5q3 -4 3.5 -8.5t0.5 -9.5q0 -16 -9.5 -24t-18.5 -11q-6 -2 -20 -4.5t-28.5 -5.5t-26 -6t-12.5 -6q-2 -3 -2 -6.5v-8.5v-1376v-8.5t2 -6.5
q1 -3 12.5 -6t26 -6t28.5 -5.5t20 -4.5q9 -3 18.5 -12t9.5 -29v-4q-1 -2 -1.5 -4t-2.5 -4q-4 -3 -16 -5.5t-29 -3.5t-37 -1.5t-40 -0.5h-148q-19 0 -39.5 0.5t-37.5 1.5t-29 3.5t-16 5.5q-3 4 -3.5 8.5t-0.5 9.5z" />
    <glyph glyph-name="O_x" horiz-adv-x="1913" 
d="M43 1103q24 81 65.5 165.5t101 152.5t136.5 111.5t170 43.5q34 0 72.5 -2t75.5 -11.5t69 -28t52 -51.5q3 -5 6 -10.5t3 -11.5q0 -10 -7 -17t-18 -7q-16 0 -37 12.5t-38 20.5q-41 17 -81.5 24t-84.5 7q-74 0 -130 -38t-96.5 -99.5t-66.5 -139t-41.5 -157t-21.5 -154
t-6 -128.5q0 -53 8.5 -126.5t26 -152.5t45 -156.5t66.5 -138.5t89.5 -99t113.5 -38q62 0 112 38t89 99.5t67 139t46.5 157t27.5 153t9 126.5q0 68 -7 145.5t-28 151.5t-61 136.5t-106 99.5q-32 17 -63 25.5t-65 14.5q-3 1 -11.5 2.5t-17.5 4.5t-16 8t-7 12q0 8 7.5 13
t17.5 8t20 4t15 1q50 0 103.5 -14.5t104 -40.5t93.5 -60.5t71 -75.5q41 -60 66.5 -134t37.5 -152q25 11 57.5 17.5t78.5 6.5q71 0 115.5 -19t73 -50t45.5 -69t33 -76q14 32 33.5 69t48 69.5t66.5 54t89 21.5q49 0 97.5 -10t84.5 -42q16 -13 16 -32.5t-9 -34t-24.5 -20
t-31.5 8.5q-20 12 -45.5 25.5t-68.5 13.5q-30 0 -54.5 -21.5t-43.5 -55.5t-33 -77t-23.5 -86t-14 -82.5t-4.5 -66.5q0 -34 3 -76.5t10.5 -85.5t20.5 -84t33 -73t48.5 -51t66.5 -19q77 0 134.5 44t90.5 115q7 15 13.5 30t13.5 31q8 19 26 24t35 -1t27 -20.5t2 -34.5
q-26 -61 -52.5 -105t-64.5 -84q-16 -17 -36 -33t-45.5 -29t-58.5 -20.5t-74 -7.5q-53 0 -99 10.5t-81.5 34t-60 61t-35.5 91.5q-13 -31 -34 -65.5t-48.5 -63.5t-61 -48t-73.5 -19q-49 0 -87.5 9.5t-74.5 41.5q-16 14 -16 33t9 33.5t24.5 20t31.5 -8.5q20 -12 43 -25.5
t51 -13.5q30 0 53 23t40 59.5t28.5 81t18.5 86.5t10 77t3 52q0 21 -1 58.5t-6.5 81.5t-16.5 90t-31 83.5t-51 61.5t-76 24q-44 0 -74.5 -5.5t-53.5 -14.5q1 -15 1.5 -30t0.5 -29q0 -74 -12.5 -161.5t-39.5 -175.5t-68.5 -169.5t-99.5 -144.5t-132 -101t-167 -38
q-62 0 -117 20.5t-102.5 55.5t-87 82.5t-71 101t-55 111t-39.5 112.5q-20 72 -30.5 150t-10.5 157q0 81 10.5 160t32.5 153z" />
    <glyph glyph-name="U_x" horiz-adv-x="2086" 
d="M1372 869q-19 0 -32.5 -12t-23 -29.5t-14.5 -36.5t-8 -34q-10 -52 -18 -111t-17.5 -120.5t-21 -123t-28.5 -119.5t-40.5 -109.5t-57.5 -92.5q-32 -39 -77.5 -60t-105.5 -21q-51 0 -88.5 24.5t-55.5 70.5q-29 -35 -62.5 -54.5t-70.5 -28.5t-77.5 -10.5t-83.5 -1.5
q-105 0 -182 35.5t-131.5 95.5t-89 139t-54 166.5t-26.5 178t-7 172.5v729q0 27 16.5 43.5t43.5 16.5h46q27 0 43.5 -16.5t16.5 -43.5v-729q0 -49 4.5 -121t17.5 -151.5t35.5 -158t58.5 -141.5t87.5 -102t121.5 -39q49 0 93 19.5t77.5 52.5t53 77t19.5 93v1200
q0 27 16.5 43.5t43.5 16.5h46q27 0 43.5 -16.5t16.5 -43.5v-1244q0 -10 -0.5 -39.5t3 -61t13.5 -56t32 -24.5q26 0 49.5 14.5t44 37.5t37 51t28.5 56q19 44 32.5 111t24 140.5t19 145t16.5 123.5q6 37 17.5 71t31.5 60.5t49.5 42.5t71.5 16q44 0 79 -19t63 -50t48.5 -69
t36.5 -76q14 32 33.5 69t48 69.5t66.5 54t89 21.5q49 0 97.5 -10t84.5 -42q16 -13 16 -32.5t-9 -34t-24.5 -20t-31.5 8.5q-20 12 -45.5 25.5t-68.5 13.5q-30 0 -54.5 -21.5t-43.5 -55.5t-33 -77t-23.5 -86t-14 -82.5t-4.5 -66.5q0 -34 3 -76.5t10.5 -85.5t20.5 -84t33 -73
t48.5 -51t66.5 -19q77 0 134.5 44t90.5 115q7 15 13.5 30t13.5 31q8 19 26 24t35 -1t27 -20.5t2 -34.5q-9 -20 -18 -38.5t-18 -35.5q-17 -35 -36.5 -64.5t-44.5 -55.5q-16 -17 -36 -32.5t-45.5 -27t-58.5 -18.5t-74 -7q-53 0 -99 10.5t-81.5 34t-60 61t-35.5 91.5
q-13 -31 -34 -65.5t-48.5 -63.5t-61 -48t-73.5 -19q-49 0 -87.5 9.5t-74.5 41.5q-16 14 -16 33t9 33.5t24.5 20t31.5 -8.5q20 -12 43 -25.5t51 -13.5q30 0 53 23t40 59.5t28.5 81t18.5 86.5t10 77t3 52q0 21 -3.5 58.5t-11 81.5t-19 90t-27 83.5t-35.5 61.5t-45 24z" />
    <glyph glyph-name="Y_x" horiz-adv-x="2215" 
d="M907 -110q-38 -31 -58.5 -64t-29.5 -69.5t-10.5 -77t-1.5 -85.5q0 -9 0.5 -28t2.5 -43t5.5 -49.5t10 -46.5t15.5 -34.5t21 -13.5q15 0 24 19.5t13.5 44.5t6 49.5t1.5 35.5v362zM1073 61q26 11 51.5 36.5t48.5 56.5t41.5 64.5t30.5 61.5q19 44 31 106.5t20.5 130.5
t15.5 134.5t15 118.5q6 37 17.5 71t31.5 60.5t50 42.5t72 16q44 0 79 -19t63 -50t48.5 -69t36.5 -76q14 32 33.5 69t48 69.5t66.5 54t89 21.5q49 0 97.5 -10t84.5 -42q16 -13 16 -32.5t-9 -34t-24.5 -20t-31.5 8.5q-20 12 -45.5 25.5t-68.5 13.5q-30 0 -54.5 -21.5
t-43.5 -55.5t-33 -77t-23.5 -86t-14 -82.5t-4.5 -66.5q0 -34 3 -76.5t10.5 -85.5t20.5 -84t33 -73t48.5 -51t66.5 -19q77 0 134.5 44t90.5 115q7 15 13.5 30t13.5 31q8 19 26 24t35 -1t27 -20.5t2 -34.5q-9 -20 -18 -38.5t-18 -35.5q-17 -35 -36.5 -64.5t-44.5 -55.5
q-16 -17 -36 -32.5t-45.5 -27t-58.5 -18.5t-74 -7q-53 0 -99 10.5t-81.5 34t-60 61t-35.5 91.5q-13 -31 -34 -65.5t-48.5 -63.5t-61 -48t-73.5 -19q-49 0 -87.5 9.5t-74.5 41.5q-16 14 -16 33t9 33.5t24.5 20t31.5 -8.5q20 -12 43 -25.5t51 -13.5q30 0 53 23t40 59.5
t28.5 81t18.5 86.5t10 77t3 52q0 21 -3.5 58.5t-11 81.5t-19 90t-27.5 83.5t-36 61.5t-45 24q-19 0 -32.5 -12t-23 -29.5t-14.5 -36.5t-8 -34q-15 -78 -26.5 -165.5t-29.5 -174t-47.5 -165.5t-79.5 -141q-32 -39 -69.5 -71t-96.5 -55v-365q0 -51 -9 -106.5t-32 -101.5
t-63.5 -76t-103.5 -30q-65 0 -106.5 31.5t-65 79t-32.5 104.5t-9 108q0 63 19 118t53 100.5t81 82t102 62.5v157q-19 -26 -45.5 -52.5t-57 -48t-64 -35t-68.5 -13.5q-66 0 -120 29t-97.5 79t-76 116t-57 140.5t-41 152.5t-26.5 151.5t-14 138t-4 112.5q0 76 2.5 151t2.5 147
v34q0 33 -2.5 75.5t-12.5 81t-30.5 64.5t-57.5 26q-20 0 -34 -7t-25.5 -16t-23 -16t-25.5 -7q-15 0 -22.5 8.5t-7.5 19.5q0 20 21.5 37.5t51 30.5t60 20.5t47.5 7.5q60 0 99.5 -19t63.5 -52t36 -78t17 -97q5 -50 6 -98t1 -92q0 -45 -0.5 -84.5t-0.5 -78.5q0 -31 1.5 -86.5
t5.5 -125t12.5 -147.5t22 -155t33.5 -147.5t47.5 -124t64 -85.5t83.5 -32q39 0 69.5 22t54.5 59t41.5 86t29.5 103t20 110t12.5 106.5t6 92.5t1.5 69v794q0 27 16.5 43.5t43.5 16.5h46q27 0 43.5 -16.5t16.5 -43.5v-1455z" />
    <glyph glyph-name="AE" unicode="&#xc6;" horiz-adv-x="1512" 
d="M505 0q-104 0 -180 35.5t-130 95.5t-88 139t-53.5 166.5t-26.5 178t-7 172.5q0 87 11.5 179t37 179.5t65 166t95.5 137t128.5 93t164.5 34.5q64 0 123 -19.5t109 -56.5v16q0 27 16.5 43.5t43.5 16.5h45q27 0 43.5 -16.5t16.5 -43.5v-71q50 60 123.5 95.5t163.5 35.5
q80 0 146 -16t106 -36q12 -6 17 -15t5 -20q0 -9 -4.5 -18.5t-11.5 -16t-16 -9t-19 0.5q-72 25 -122 32t-83 7q-52 0 -92 -22.5t-67.5 -59t-42 -82.5t-14.5 -94q0 -46 14 -93.5t42 -86t68.5 -63t93.5 -24.5q38 0 54.5 -6.5t16.5 -38.5q0 -20 -5.5 -31t-15.5 -16t-22.5 -5.5
t-27.5 -0.5q-65 0 -118.5 -31.5t-92.5 -81t-63.5 -110t-31.5 -119.5v-108q7 -73 30 -132.5t63 -101.5t97.5 -64.5t133.5 -22.5q65 0 111 15.5t79.5 44t57.5 69t46 91.5q8 19 26.5 23.5t35.5 -1.5t27 -20.5t1 -33.5q-28 -60 -55 -105t-62 -77q-20 -19 -47 -36.5t-61 -31
t-76 -21.5t-93 -8q-88 0 -167.5 23.5t-145.5 72.5v-36q0 -27 -16.5 -43.5t-43.5 -16.5h-46q-27 0 -44 16.5t-16 43.5l1 27q-49 -48 -115 -67.5t-136 -19.5zM186 787q0 -37 2.5 -86.5t9 -105.5t17.5 -115t28 -115t41.5 -106t57 -87t74.5 -59t95 -22q49 0 93 19t77.5 51.5
t53 76t19.5 92.5q-2 202 -1 402.5t1 402.5q0 96 -19 163.5t-51 109.5t-73 61t-86 19q-64 0 -114.5 -36t-88.5 -94.5t-64 -133t-42 -152.5t-23 -152.5t-7 -132.5zM920 835q60 50 136 78q-40 20 -74.5 45.5t-61.5 57.5v-181z" />
    <glyph glyph-name="OE" unicode="&#x152;" horiz-adv-x="1602" 
d="M0 790q0 81 10.5 160t32.5 153q24 81 65.5 165.5t101 152.5t136.5 111.5t170 43.5q34 0 72.5 -2t75.5 -11.5t69 -28t52 -51.5q3 -5 6 -10.5t3 -11.5q0 -10 -7 -17t-18 -7q-16 0 -37 12.5t-38 20.5q-41 17 -81.5 24t-84.5 7q-74 0 -130 -38t-96.5 -99.5t-66.5 -139
t-41.5 -157t-21.5 -154t-6 -128.5q0 -53 8.5 -126.5t26 -152.5t45 -156.5t66.5 -138.5t89.5 -99t113.5 -38q64 0 114.5 38t89.5 99.5t67 139t45.5 157t26 153t8.5 126.5q0 68 -7 145.5t-28 151.5t-61 136.5t-106 99.5q-32 17 -63 25.5t-65 14.5q-3 1 -11.5 2.5t-17.5 4.5
t-16 8t-7 12q0 8 7.5 13t17.5 8t20 4t15 1q51 0 108 -16t110 -44.5t97 -67t70 -83.5q-1 7 -1 13v13q0 74 28 137.5t76.5 110.5t115 73.5t143.5 26.5q34 0 72.5 -2.5t75 -11.5t68 -27t52.5 -50q4 -6 7 -12.5t3 -12.5q0 -9 -7 -16t-18 -7q-7 0 -17 4t-20.5 9t-20.5 10.5
t-18 9.5q-22 10 -39.5 16t-34.5 9.5t-35.5 4.5t-43.5 1q-52 0 -93 -25t-69.5 -64.5t-43.5 -88t-15 -96.5q0 -46 14 -93.5t42 -86t68.5 -63t93.5 -24.5q38 0 54.5 -6.5t16.5 -38.5q0 -20 -5.5 -31t-15.5 -16t-22.5 -5.5t-27.5 -0.5q-71 0 -128 -37t-97 -94t-61.5 -125
t-21.5 -129q0 -87 19.5 -158t59.5 -122t101.5 -78.5t145.5 -27.5q63 0 109.5 14.5t81 42.5t60.5 69t47 94q8 19 26 24t35.5 -1t27.5 -20.5t1 -34.5q-30 -69 -66.5 -121t-83.5 -87.5t-108 -53t-140 -17.5q-68 0 -133 14.5t-121.5 44.5t-102.5 75.5t-76 108.5
q-30 -49 -69.5 -93.5t-87.5 -77.5t-102.5 -52.5t-114.5 -19.5q-62 0 -117 20.5t-102.5 55.5t-87 82.5t-71 101t-55 111t-39.5 112.5q-20 72 -30.5 150t-10.5 157zM1142 913q-41 20 -76 46t-63 59q21 -82 27 -165q51 38 112 60z" />
    <glyph glyph-name="F_j" horiz-adv-x="1204" 
d="M700 1538q-45 0 -90 6t-90.5 13t-91 13t-92.5 6q-27 0 -62 -3t-70 -10.5t-66.5 -21.5t-53.5 -35q-10 -10 -17 -21t-7 -22q0 -9 5.5 -15t13 -9.5t15.5 -5.5t14 -2q8 0 14 3q31 15 55.5 25t48.5 16t50.5 8.5t61.5 2.5q23 0 54.5 -6t64.5 -14.5t63.5 -17.5t51.5 -15
q25 -7 49 -13.5t44 -6.5q32 0 67.5 4.5t70 15.5t64.5 28.5t52 43.5q9 11 16.5 24t7.5 25t-8.5 17t-20.5 5q-15 0 -35 -5.5t-37 -12.5q-37 -14 -70.5 -17t-71.5 -3zM421 864v-804q0 -27 -16.5 -43.5t-43.5 -16.5h-46q-27 0 -43.5 16.5t-16.5 43.5v804h-52q-14 0 -22 8t-8 22
v36q0 14 8 22t22 8h52v330q0 27 16.5 43.5t43.5 16.5h46q27 0 43.5 -16.5t16.5 -43.5v-330h244q14 0 22 -8t8 -22v-36q0 -14 -8 -22t-22 -8h-244zM866 1160q0 34 24 58t58 24q35 0 59 -23.5t24 -58.5t-24.5 -58t-58.5 -23t-58 23.5t-24 57.5zM867 -109q-30 -23 -47 -48.5
t-25 -53t-10 -57.5t-2 -63v-35t1.5 -54.5t4.5 -62.5t9 -59t16 -44t24 -17q10 0 16 8.5t9 20.5t3.5 25.5t0.5 24.5v415zM867 886q0 25 4.5 39.5t14.5 22t26 10t39 2.5q21 0 36.5 -2t25.5 -9.5t15 -22.5t5 -40l-1 -817q61 35 101 78t71 103q8 15 14.5 30.5t12.5 30.5
q8 19 26 24t35 -1t27 -20.5t2 -34.5q-8 -19 -17.5 -36t-18.5 -34q-19 -35 -38.5 -65t-42.5 -55q-19 -20 -35 -35t-35 -28.5t-43 -28t-59 -33.5l1 -344q0 -50 -6.5 -105t-26.5 -101.5t-58.5 -77t-101.5 -30.5q-65 0 -106.5 32.5t-65 81.5t-32 107.5t-8.5 109.5q0 58 17.5 113
t49.5 102.5t76 85.5t96 62v886z" />
    <glyph glyph-name="Zcaron" unicode="&#x17d;" horiz-adv-x="983" 
d="M261 1485q-33 0 -85.5 -7.5t-124.5 -31.5q-10 -4 -19 -1t-16 9.5t-11.5 16t-4.5 18.5q0 11 5 20t17 15q40 20 106 36t146 16q46 0 90.5 -6t88 -13t86.5 -13t86 -6t79 2t73 16q17 6 42 13t36 7t29.5 -8.5t36.5 -20.5t31 -26.5t13 -26.5q0 -7 -4 -17.5t-9 -18.5l-753 -1333
q42 14 81 24t84 10q51 0 97 -10.5t89 -23.5t84.5 -23.5t81.5 -10.5q42 0 81 7.5t72.5 26t62.5 49t51 76.5q8 15 14.5 30.5t12.5 30.5q8 19 26 24t35 -1t27 -20.5t2 -34.5q-29 -59 -55.5 -104.5t-61.5 -77.5q-20 -19 -46 -36.5t-59 -31t-74 -21.5t-92 -8q-57 0 -100 8t-84 17
t-85 17t-102 8q-80 0 -155 -30q-19 -8 -37.5 -14t-32.5 -6q-13 0 -32.5 6.5t-38 17t-31.5 23.5t-13 27q0 8 5 18l10 20l757 1342q-42 -14 -81.5 -19.5t-78.5 -5.5q-45 0 -88.5 9t-87 19.5t-87.5 19t-89 8.5zM492 1806q21 22 36 39.5t31.5 29.5t39 18.5t57.5 6.5q6 0 15 -0.5
t17 -3t14 -7.5t6 -14q0 -13 -12.5 -30t-32 -35t-44 -35t-48.5 -30.5t-45 -22t-34 -8.5t-34 8.5t-45 22t-48.5 30.5t-44 35t-32 35t-12.5 30q0 9 6 14t14 7.5t17 3t15 0.5q35 0 57.5 -6.5t39 -18.5t31.5 -29.5t36 -39.5z" />
    <glyph glyph-name="Ccedilla" unicode="&#xc7;" horiz-adv-x="843" 
d="M538 1576q80 0 146 -16t106 -36q12 -6 17 -15t5 -20q0 -21 -15.5 -34.5t-35.5 -8.5q-36 9 -63.5 16t-52.5 12.5t-50.5 8t-57.5 2.5q-82 0 -141.5 -36.5t-100.5 -95.5t-66.5 -133.5t-39.5 -151.5t-18.5 -149t-4.5 -126q0 -73 7 -153.5t24.5 -158.5t47 -148.5t75 -124.5
t109 -85.5t147.5 -31.5q42 0 81 7.5t72.5 26t62.5 49t51 76.5q8 15 14.5 30.5t12.5 30.5q8 19 26 24t35 -1t27 -20.5t2 -34.5q-29 -59 -55.5 -104.5t-61.5 -77.5q-20 -19 -46 -36.5t-59 -31t-74 -21.5t-92 -8q-114 0 -200.5 34.5t-150.5 94t-106 138t-68 166t-36.5 180
t-10.5 178.5q0 81 8.5 171t30.5 177t60 166.5t98 139.5t144 95.5t197 35.5zM475 23h150v-81q0 -16 12.5 -23t31.5 -12t41 -10.5t41 -19t31.5 -38.5t12.5 -68q0 -52 -29.5 -88t-73.5 -58.5t-94.5 -32.5t-92.5 -10q-13 0 -42.5 1t-59.5 6t-52.5 15.5t-22.5 29.5q0 8 0.5 17.5
t3.5 18t8.5 14.5t15.5 6q12 0 27 -8.5t33 -18.5t39.5 -18.5t47.5 -8.5q25 0 48 9t40.5 24.5t28 37t10.5 46.5q0 42 -11.5 60.5t-28.5 24.5t-37.5 5.5t-37.5 3t-28.5 18t-11.5 50.5v108z" />
    <glyph glyph-name="cent" unicode="&#xa2;" horiz-adv-x="818" 
d="M396 6q-87 15 -145.5 62.5t-94.5 113.5t-51 144t-15 155q0 76 15.5 153.5t51 143t94 113t145.5 62.5v172q0 24 4.5 39t14 23t25.5 10.5t40 2.5q22 0 37.5 -2.5t25 -10.5t14 -22.5t4.5 -39.5v-171q46 -7 81.5 -19.5t63.5 -26.5q12 -6 17 -15t5 -20q0 -9 -4.5 -18.5
t-11.5 -16t-16 -9t-19 0.5q-18 6 -41 13t-46.5 13t-47 9.5t-43.5 3.5q-51 0 -89 -17.5t-65 -46.5t-44.5 -68t-27 -82t-13.5 -88t-4 -86t4 -86t13.5 -88t27 -82t44.5 -68t65 -46.5t89 -17.5q20 0 43.5 3.5t47 9.5t46.5 13t41 13q10 3 19 0.5t16 -9t11.5 -16t4.5 -18.5
q0 -11 -5 -20t-17 -15q-28 -14 -63.5 -27t-81.5 -20v-173q0 -24 -4.5 -39t-14 -22.5t-25 -10t-37.5 -2.5q-24 0 -40 2.5t-26 11t-14 23.5t-4 39v170z" />
    <glyph glyph-name="ae" unicode="&#xe6;" horiz-adv-x="1376" 
d="M0 480q0 52 7 102.5t23 98.5q17 52 46 102t68.5 89.5t88.5 63.5t107 24q50 0 93 -18t81 -50q0 24 5 37.5t15 20.5t25 8.5t34 1.5q23 0 39.5 -2t27 -9.5t15.5 -22t5 -40.5v-288q11 66 34.5 130.5t61 116t89.5 83.5t120 32q67 0 121 -30.5t92 -80t58.5 -110.5t20.5 -123
q0 -58 -25 -95.5t-66 -58.5t-92 -29t-104 -8h-154q-1 -17 5 -45.5t15 -58.5t19.5 -57t19.5 -41q40 -63 100.5 -97.5t136.5 -34.5q61 0 103.5 16t72.5 45t52 69.5t43 89.5q8 19 26.5 24t35 -1t26.5 -20.5t2 -34.5q-23 -51 -50 -100.5t-67 -89.5q-17 -16 -44 -32t-61 -29
t-73.5 -20.5t-80.5 -7.5q-69 0 -127.5 15t-107.5 44q-31 -26 -71.5 -42.5t-96.5 -16.5q-25 0 -48.5 9.5t-43.5 25t-35.5 36.5t-24.5 45q-45 -50 -99 -83t-125 -33q-57 0 -104.5 22t-85 59.5t-65.5 86t-46.5 102t-27.5 108t-9 102.5zM166 485q0 -25 3 -64t11 -82.5t20.5 -88
t32 -80t46 -57.5t61.5 -22q34 0 60 21t45 55t32.5 76.5t21.5 85.5t11.5 83t3.5 68t-3.5 67.5t-11.5 83t-21.5 86t-32.5 76.5t-45 55t-60 21t-60 -21t-45.5 -55t-32.5 -76.5t-21 -85t-11.5 -81.5t-3.5 -65zM985 869q-33 0 -57 -22.5t-41 -58.5t-27.5 -81t-16.5 -88.5
t-8 -81.5t-2 -61q0 -4 -0.5 3t-0.5 16.5t0.5 17t1.5 3.5h201q48 0 73 21t25 73q0 19 -3.5 45.5t-11.5 55.5t-20 57t-28 50.5t-37.5 36.5t-47.5 14zM680 272q0 -17 1 -47.5t7 -60t19.5 -51.5t37.5 -22q33 0 64 23q-50 47 -82.5 109t-46.5 134v-85z" />
    <glyph glyph-name="o_r" horiz-adv-x="1414" 
d="M659 638q6 -24 10 -44.5t6.5 -39t3.5 -38t1 -42.5q0 -56 -11 -119.5t-35 -119.5q-19 -44 -47.5 -86.5t-65.5 -75.5t-82.5 -53t-97.5 -20h-3q-55 0 -102 22t-84.5 59t-66 86t-47.5 102.5t-28.5 109.5t-9.5 106t9.5 104t28 107t47 101t66 84t85 57.5t104.5 21.5
q40 0 75 -11t64 -29q-47 3 -80 -1.5t-57 -16t-42.5 -29t-37.5 -41.5q-26 -33 -44.5 -80t-30 -96.5t-16.5 -95t-5 -75.5q0 -25 3 -64t11 -82.5t20.5 -87.5t32 -79.5t46 -57.5t61.5 -22q34 0 60 21t45 54.5t32.5 76t21.5 85.5t11.5 83t3.5 68q0 31 -2.5 65t-11.5 72
q-15 -2 -33.5 -3.5t-42.5 1.5q-26 3 -50.5 13t-43 26.5t-29.5 39.5t-11 51q0 72 46.5 107t126.5 35q36 0 61 -13t43.5 -34.5t32.5 -49t26 -55.5q21 11 32.5 26t17 36t6 49t0.5 64q0 16 15.5 25.5t35.5 15t39.5 7t27.5 1.5q15 0 23.5 -4.5t13 -12t6.5 -17.5t5 -21
q4 -17 17 -29t31 -19.5t40 -11t44 -3.5q15 0 39.5 1t50 7.5t46.5 21.5t30 42q2 5 4.5 13t7.5 15.5t12.5 13t19.5 5.5q8 0 27.5 -3t39.5 -9t35.5 -15.5t15.5 -22.5q0 -8 -4.5 -21t-7.5 -21q-30 -88 -58 -167.5t-50.5 -158.5t-36 -161.5t-13.5 -176.5q0 -52 17 -82.5t55 -30.5
q47 0 83.5 20t64 51.5t48 71t35.5 77.5q8 19 26 24t35 -1t27 -20.5t2 -34.5q-8 -19 -17.5 -36.5t-18.5 -34.5q-27 -52 -54.5 -91t-62.5 -65t-81 -39t-109 -13q-46 0 -85.5 14t-68 42.5t-44.5 71t-16 99.5q0 64 13.5 133t33 139t43 138t42.5 129q-15 -6 -36 -13t-44 -12
t-47.5 -8.5t-47.5 -3.5q-27 0 -49.5 5.5t-41 13t-33.5 16t-29 15.5q-2 -15 -11 -35.5t-24 -40.5t-36.5 -37.5t-47.5 -27.5zM384 762q0 -8 2.5 -18t9.5 -19t20.5 -15.5t34.5 -9.5q6 -1 12 -0.5t16 2.5q-7 21 -11 31.5t-12 29.5q-2 5 -5.5 12.5t-8 14t-9.5 11t-11 4.5
q-12 0 -25 -11.5t-13 -31.5z" />
    <glyph glyph-name="o_z" horiz-adv-x="1481" 
d="M384 762q0 -8 2.5 -18t9.5 -19t20.5 -15.5t34.5 -9.5q6 -1 12 -0.5t16 2.5q-7 21 -11 31.5t-12 29.5q-2 5 -5.5 12.5t-8 14t-9.5 11t-11 4.5q-12 0 -25 -11.5t-13 -31.5zM778 779q-2 -15 -11 -35.5t-24 -40.5t-36.5 -37.5t-47.5 -27.5q6 -24 10 -44.5t6.5 -39t3.5 -38
t1 -42.5q0 -56 -11 -119.5t-35 -119.5q-19 -44 -47.5 -86.5t-65.5 -75.5t-82.5 -53t-97.5 -20h-3q-55 0 -102 22t-84.5 59t-66 86t-47.5 102.5t-28.5 109.5t-9.5 106t9.5 104t28 107t47 101t66 84t85 57.5t104.5 21.5q40 0 75 -11t64 -29q-47 3 -80 -1.5t-57 -16t-42.5 -29
t-37.5 -41.5q-26 -33 -44.5 -80t-30 -96.5t-16.5 -95t-5 -75.5q0 -25 3 -64t11 -82.5t20.5 -87.5t32 -79.5t46 -57.5t61.5 -22q34 0 60 21t45 54.5t32.5 76t21.5 85.5t11.5 83t3.5 68q0 31 -2.5 65t-11.5 72q-15 -2 -33.5 -3.5t-42.5 1.5q-26 3 -50.5 13t-43 26.5
t-29.5 39.5t-11 51q0 72 46.5 107t126.5 35q36 0 61 -13t43.5 -34.5t32.5 -49t26 -55.5q21 11 32.5 26t17 36t6 49t0.5 64q0 15 15.5 25t35 15.5t39 7.5t26.5 2q15 0 23.5 -4.5t13 -11.5t6.5 -16t5 -18q8 -31 41 -50t93 -19q51 0 81.5 8.5t53.5 28.5q10 9 15 22.5t10.5 27
t14 23t25.5 9.5q10 0 31 -4.5t42 -12.5t37 -19.5t16 -25.5q0 -8 -3 -15t-7 -17l-286 -716q13 2 40.5 -4t58.5 -14.5t58.5 -17t40.5 -11.5q27 -6 41.5 -9t28.5 -3q38 0 68.5 11.5t55 32.5t44 50.5t35.5 64.5q7 15 13.5 30t13.5 31q8 19 26 24t35 -1t27 -20.5t2 -34.5
q-17 -38 -36 -73q-17 -33 -36.5 -61.5t-44.5 -54.5q-16 -17 -32.5 -33t-38 -29t-51 -20.5t-70.5 -7.5q-42 0 -93 12t-97.5 25t-82.5 21.5t-48 0.5q-5 -3 -9.5 -12.5t-11 -20t-16.5 -18.5t-26 -8q-12 0 -29.5 6t-34.5 16t-29 23t-12 27q0 9 5.5 22.5t10.5 24.5l257 638
q-31 -13 -63.5 -20.5t-78.5 -7.5q-27 0 -49.5 5.5t-41 13t-33.5 16t-29 15.5z" />
    <glyph glyph-name="o_j" horiz-adv-x="1164" 
d="M826 1160q0 -34 24 -57.5t58 -23.5t58.5 23t24.5 58t-24 58.5t-59 23.5q-34 0 -58 -24t-24 -58zM827 -109q-30 -23 -47 -48.5t-25 -53t-10 -57.5t-2 -63v-35t1.5 -54.5t4.5 -62.5t9 -59t16 -44t24 -17q10 0 16 8.5t9 20.5t3.5 25.5t0.5 24.5v415zM384 762q0 -8 2.5 -18
t9.5 -19t20.5 -15.5t34.5 -9.5q6 -1 12 -0.5t16 2.5q-7 21 -11 31.5t-12 29.5q-2 5 -5.5 12.5t-8 14t-9.5 11t-11 4.5q-12 0 -25 -11.5t-13 -31.5zM827 708q-21 -12 -44.5 -23t-46 -20t-43 -16t-34.5 -11q6 -24 10 -44.5t6.5 -39t3.5 -38t1 -42.5q0 -56 -11 -119.5
t-35 -119.5q-19 -44 -47.5 -86.5t-65.5 -75.5t-82.5 -53t-97.5 -20h-3q-55 0 -102 22t-84.5 59t-66 86t-47.5 102.5t-28.5 109.5t-9.5 106t9.5 104t28 107t47 101t66 84t85 57.5t104.5 21.5q40 0 75 -11t64 -29q-47 3 -80 -1.5t-57 -16t-42.5 -29t-37.5 -41.5
q-26 -33 -44.5 -80t-30 -96.5t-16.5 -95t-5 -75.5q0 -25 3 -64t11 -82.5t20.5 -87.5t32 -79.5t46 -57.5t61.5 -22q34 0 60 21t45 54.5t32.5 76t21.5 85.5t11.5 83t3.5 68q0 31 -2.5 65t-11.5 72q-15 -2 -33.5 -3.5t-42.5 1.5q-26 3 -50.5 13t-43 26.5t-29.5 39.5t-11 51
q0 72 46.5 107t126.5 35q36 0 61 -13t43.5 -34.5t32.5 -49t26 -55.5q21 8 55.5 20t67.5 30t56.5 43t23.5 58q0 25 4 39.5t14 22t25.5 10t38.5 2.5t38.5 -2t25.5 -9.5t14 -22.5t4 -40l-1 -817q61 35 101 78t71 103q8 15 14.5 30.5t12.5 30.5q8 19 26 24t35 -1t27 -20.5
t2 -34.5q-8 -19 -17.5 -36t-18.5 -34q-19 -35 -38.5 -65t-42.5 -55q-19 -20 -35 -35t-35 -28.5t-43 -28t-59 -33.5l1 -344q0 -50 -6.5 -105t-26.5 -101.5t-58.5 -77t-101.5 -30.5q-65 0 -106.5 32.5t-65 81.5t-32 107.5t-8.5 109.5q0 58 17.5 113t49.5 102.5t76 85.5t96 62
v708z" />
    <glyph glyph-name="IJ" unicode="&#x132;" horiz-adv-x="1200" 
d="M363 100v-8.5t2 -6.5q1 -3 12.5 -6t26 -6t28.5 -5.5t20 -4.5q9 -3 18.5 -12t9.5 -29v-4q-1 -2 -1.5 -4t-2.5 -4q-4 -3 -16 -5.5t-29 -3.5t-37 -1.5t-40 -0.5h-148q-19 0 -39.5 0.5t-37.5 1.5t-29 3.5t-16 5.5q-3 4 -3.5 8.5t-0.5 9.5q0 16 9.5 24t18.5 11q6 2 20 4.5
t28.5 5.5t26 6t12.5 6q2 3 2 6.5v8.5v1376v8.5t-2 6.5q-1 3 -12.5 6t-26 6t-28.5 5.5t-20 4.5q-9 3 -18.5 12t-9.5 29q0 2 1 4q0 5 3 8q4 3 16 5.5t29 3.5t37.5 1.5t39.5 0.5h148q20 0 40 -0.5t37 -1.5t29 -3.5t16 -5.5q3 -4 3.5 -8.5t0.5 -9.5q0 -16 -9.5 -24t-18.5 -11
q-6 -2 -20 -4.5t-28.5 -5.5t-26 -6t-12.5 -6q-2 -3 -2 -6.5v-8.5v-1376zM780 91q53 0 82.5 17.5t44 48t17.5 71.5t3 88v1137q0 19 -11.5 25.5t-28.5 6.5q-33 0 -91 -7.5t-130 -31.5q-10 -4 -19 -1t-16 9.5t-11.5 16t-4.5 18.5q0 11 5 20t17 15q40 20 106 36t146 16h130
q74 0 74 -75v-1140q0 -70 -12 -129q6 -2 11 -3t8 -2q5 -1 16 -1.5t25 3t29.5 12t29.5 24.5q8 9 15 20.5t12 25.5q8 19 26 24t35 -1t27 -20.5t2 -34.5q-21 -50 -52 -73.5t-65 -31.5q-38 -9 -70.5 -4.5t-44.5 8.5q-4 2 -7.5 3t-8.5 3q-3 -11 -7 -21.5t-8 -19.5
q-22 -49 -55.5 -77.5t-69.5 -43t-71 -18.5t-59 -4q-81 0 -134.5 21.5t-86 49t-48.5 53.5t-22 36q-12 20 -6.5 35.5t18.5 24.5t27.5 9t20.5 -11q34 -60 86.5 -93.5t125.5 -33.5z" />
    <glyph glyph-name="ij" unicode="&#x133;" horiz-adv-x="914" 
d="M27 1160q0 -35 23.5 -58t57.5 -23q35 0 58.5 23.5t23.5 57.5t-23.5 58t-57.5 24q-35 0 -58.5 -23.5t-23.5 -58.5zM243 0q-63 0 -104.5 25.5t-66 67t-35 92.5t-10.5 102v599q0 47 20 60.5t63 13.5q42 0 62.5 -13.5t20.5 -60.5v-601q0 -17 2.5 -49.5t10 -64.5t22 -56
t38.5 -24q29 0 52.5 15t42.5 38.5t34.5 51.5t28.5 54q8 15 14.5 30.5t12.5 30.5q8 19 26 24t35 -1t27 -20.5t2 -34.5q-8 -19 -17.5 -36.5t-18.5 -34.5q-19 -36 -38.5 -67t-42.5 -56q-32 -35 -75.5 -60t-105.5 -25zM576 1160q0 34 24 58t58 24q35 0 59 -23.5t24 -58.5
t-24.5 -58t-58.5 -23t-58 23.5t-24 57.5zM577 -524v415q-30 -23 -47 -48.5t-25 -53t-10 -57.5t-2 -63v-35t1.5 -54.5t4.5 -62.5t9 -59t16 -44t24 -17q10 0 16 8.5t9 20.5t3.5 25.5t0.5 24.5zM577 355q-11 -25 -18.5 -40.5t-17.5 -35.5q-9 -18 -27 -22.5t-34.5 1t-26.5 20
t-2 33.5t20.5 57.5t26.5 88.5t28 108t25.5 115.5t18.5 111t7 94.5q0 25 4.5 39.5t14.5 22t26 10t39 2.5q21 0 36.5 -2t25.5 -9.5t15 -22.5t5 -40l-1 -817q61 35 101 78t71 103q8 15 14.5 30.5t12.5 30.5q8 19 26 24t35 -1t27 -20.5t2 -34.5q-8 -19 -17.5 -36t-18.5 -34
q-19 -35 -38.5 -65t-42.5 -55q-19 -20 -35 -35t-35 -28.5t-43 -28t-59 -33.5l1 -344q0 -50 -6.5 -105t-26.5 -101.5t-58.5 -77t-101.5 -30.5q-65 0 -106.5 32.5t-65 81.5t-32 107.5t-8.5 109.5q0 58 17.5 113t49.5 102.5t76 85.5t96 62v355z" />
    <glyph glyph-name="o.1" horiz-adv-x="764" 
d="M0 485q0 50 9.5 104t28 107t47 101t66 84t85 57.5t104.5 21.5q40 0 75 -11t64 -29q-47 3 -80 -1.5t-57 -16t-42.5 -29t-37.5 -41.5q-26 -33 -44.5 -80t-30 -96.5t-16.5 -95t-5 -75.5q0 -25 3 -64t11 -82.5t20.5 -87.5t32 -79.5t46 -57.5t61.5 -22q49 0 83.5 42.5
t54.5 116.5q-62 50 -102 104t-62 110.5t-28 114t-1 114.5q10 103 51.5 148t108.5 45q65 0 104 -39q17 -17 40 -51t43 -81t34 -105.5t14 -125.5q0 -28 -3 -59.5t-9 -63.5t-15 -62t-21 -56q20 -8 32 -11q7 -1 18 -2.5t24.5 1t28.5 10t29 23.5q8 9 15 20.5t12 25.5q8 19 26 24
t35 -1t27 -20.5t2 -34.5q-20 -49 -49 -72t-63 -34q-26 -8 -59 -8.5t-55 4.5q-11 2 -26 6.5t-24 9.5q-22 -37 -48.5 -71t-58.5 -59t-71.5 -40t-86.5 -15q-55 0 -102 22t-85 59t-66.5 86t-47.5 102.5t-29 109.5t-10 106zM514 485q0 30 -2.5 58.5t-5.5 51t-6 38t-4 19.5
q-6 30 -13.5 57.5t-16.5 49t-20 34t-26 12.5q-7 0 -16 -4.5t-16.5 -18t-14 -37t-9.5 -62.5q-2 -34 -0.5 -75.5t14 -87t40.5 -95.5t79 -101q5 20 8 43t5 44.5t3 41t1 32.5z" />
    <glyph glyph-name="uni00AD" unicode="&#xad;" 
d="M880 626q23 0 36.5 -13.5t13.5 -36.5v-48q0 -23 -13.5 -36.5t-36.5 -13.5h-716q-23 0 -36.5 13.5t-13.5 36.5v48q0 23 13.5 36.5t36.5 13.5h716z" />
    <glyph glyph-name="tilde" unicode="&#x2dc;" horiz-adv-x="1092" 
d="M373 1164q-24 0 -43.5 -7.5t-35.5 -16.5t-29 -16.5t-24 -7.5q-16 0 -21.5 16t-5.5 33q0 37 18 62.5t46 42t62.5 24t67.5 7.5q21 0 41.5 -8t41 -18t41 -19.5t40.5 -12.5q8 -2 15.5 -2h13.5h15q24 0 45.5 7.5t38.5 16t31 16t23 7.5q16 0 21 -16.5t5 -32.5q0 -37 -18.5 -63
t-46.5 -42t-62 -23t-66 -7q-28 0 -49.5 9.5t-44.5 20.5t-51 20.5t-69 9.5z" />
    <glyph glyph-name="ogonek" unicode="&#x2db;" horiz-adv-x="462" 
d="M388 -371l8 -35q-32 -19 -66 -27.5t-69 -8.5q-37 0 -71.5 9.5t-62 27t-45 42.5t-21.5 56q-4 36 11 76t42 80t61.5 78t69 71t65 59t48.5 41l44 -1q-15 -13 -34.5 -39t-40.5 -60t-41 -73t-36 -78.5t-26 -77.5t-10 -69q0 -40 19 -64.5t65 -24.5q35 0 90 18z" />
    <glyph glyph-name="breve" unicode="&#x2d8;" horiz-adv-x="552" 
d="M112 1352q33 -58 71.5 -81t92.5 -23t92.5 23t71.5 81l52 -25q-7 -27 -26.5 -60t-48 -62.5t-64.5 -49t-77 -19.5t-77 19.5t-64.5 49t-47.5 62.5t-27 60z" />
    <glyph glyph-name="circumflex" unicode="&#x2c6;" horiz-adv-x="1345" 
d="M409 1260q-21 -22 -36 -39.5t-31.5 -29.5t-39 -18.5t-57.5 -6.5q-6 0 -15 0.5t-17 3t-14 7.5t-6 14q0 20 26.5 47.5t62.5 52.5t72 43t55 18t55 -18t72 -43t62.5 -52.5t26.5 -47.5q0 -9 -6 -14t-14 -7.5t-17 -3t-15 -0.5q-35 0 -57.5 6.5t-39 18.5t-31.5 29.5t-36 39.5z
" />
    <glyph glyph-name="hungarumlaut" unicode="&#x2dd;" horiz-adv-x="596" 
d="M196 1497q8 14 17 28t20.5 25t25 18.5t29.5 7.5q27 0 34 -23t1 -51q-7 -36 -28 -68t-47 -57.5t-55 -43t-53 -23.5q-8 -2 -21.5 -6.5t-26.5 -5.5t-22.5 3t-9.5 18q0 19 4.5 29.5t12.5 18t20.5 15.5t27.5 21.5t33 35.5t38 58zM406 1497q8 14 17 28t20.5 25t25 18.5
t29.5 7.5q27 0 34 -23t1 -51q-7 -36 -28 -68t-47 -57.5t-55 -43t-53 -23.5q-8 -2 -21.5 -6.5t-26.5 -5.5t-22.5 3t-9.5 18q0 19 4.5 29.5t12.5 18t20.5 15.5t27.5 21.5t33 35.5t38 58z" />
    <glyph glyph-name="Abreve" unicode="&#x102;" horiz-adv-x="1179" 
d="M648 1485q-85 0 -152 -33t-118.5 -88t-87.5 -126.5t-59.5 -149.5t-34 -155.5t-10.5 -145.5q0 -37 2.5 -86.5t9 -105.5t17.5 -115t28 -115t41.5 -106t57 -87t74.5 -59t95 -22q49 0 93 19t77.5 51.5t53 76t19.5 92.5v930q0 27 16.5 43.5t43.5 16.5h46q27 0 43.5 -16.5
t16.5 -43.5v-1058q0 -10 1.5 -28.5t8 -37t20 -32t36.5 -13.5q46 0 80.5 20.5t60.5 52.5t45 71t34 76q8 19 26 24t35 -1t27 -20.5t2 -34.5q-29 -59 -55.5 -108t-61.5 -86q-38 -41 -87 -63t-111 -22q-74 0 -116.5 30.5t-60.5 76.5q-24 -30 -59.5 -50t-76 -33t-82.5 -18.5
t-81 -5.5q-104 0 -180 35.5t-130 95.5t-88 139t-53.5 166.5t-26.5 178t-7 172.5q0 96 16 192t48.5 183.5t83 163t120 131.5t158.5 87.5t198 31.5q80 0 146 -16t106 -36q12 -6 17 -15t5 -20q0 -21 -15.5 -35t-35.5 -8q-72 22 -129 30.5t-90 8.5zM662 1798q54 0 92.5 23
t71.5 81l52 -25q-7 -27 -26.5 -60t-48 -62.5t-64.5 -49t-77 -19.5t-77 19.5t-64.5 49t-47.5 62.5t-27 60l52 25q33 -58 71.5 -81t92.5 -23z" />
    </font>
</defs>
</svg>
